<?xml version="1.0" encoding="UTF-8"?>
<svg id="Layer_2" data-name="Layer 2" xmlns="http://www.w3.org/2000/svg" xmlns:xlink="http://www.w3.org/1999/xlink" viewBox="0 0 2500 510.53">
  <defs>
    <style>
      .cls-1 {
        fill: none;
      }

      .cls-2 {
        fill: #e97438;
      }

      .cls-3 {
        fill: #1c1b18;
      }

      .cls-4 {
        clip-path: url(#clippath-1);
      }

      .cls-5 {
        fill: #eb7639;
      }

      .cls-6 {
        fill: #1e1a14;
      }

      .cls-7 {
        clip-path: url(#clippath);
      }
    </style>
    <clipPath id="clippath">
      <rect class="cls-1" x="1426.29" y="221.93" width="119.92" height="112.59"/>
    </clipPath>
    <clipPath id="clippath-1">
      <rect class="cls-1" x="1426.29" y="221.93" width="119.92" height="112.59"/>
    </clipPath>
  </defs>
  <g id="Layer_1-2" data-name="Layer 1">
    <g id="lettermark_clear">
      <path id="e-fill" class="cls-6" d="M2482.46,189.74c-11.71-20.1-27.61-35.83-47.7-47.16-20.11-11.33-43.52-17-70.2-17s-51.36,6.03-72.93,18.1c-21.58,12.07-38.58,28.61-50.99,49.63-12.43,21.03-18.65,44.69-18.65,71.02s6.39,51.18,19.2,72.38c12.79,21.21,30.34,37.75,52.64,49.63,22.3,11.88,47.89,17.83,76.77,17.83,22.67,0,43.33-3.75,61.96-11.25,18.65-7.49,34.55-19.1,47.71-34.82l-46.62-46.07c-8.05,9.14-17.37,15.99-27.97,20.56-10.61,4.58-22.31,6.86-35.1,6.86-14.26,0-26.59-3.02-37.01-9.04-10.42-6.03-18.47-14.72-24.13-26.05-1.76-3.52-3.25-7.24-4.47-11.15l190.64-.92c1.82-6.58,3.01-12.51,3.56-17.82.55-5.29.83-10.51.83-15.63,0-25.96-5.85-48.99-17.55-69.09M2331.38,199.06c9.68-6.21,21.11-9.32,34.27-9.32,12.07,0,22.39,2.74,30.98,8.23,8.59,5.48,15.08,13.25,19.46,23.3,1.74,3.98,3.15,8.36,4.26,13.11l-115.43.66c1.1-3.59,2.41-6.99,3.97-10.2,5.29-10.97,12.79-19.55,22.49-25.78"/>
      <g id="k2-fill">
        <polygon class="cls-6" points="2233.06 398.12 2130.22 256.89 2227.03 131.61 2133.26 131.61 2047.16 251.53 2047.16 0 1962.71 0 1962.71 398.12 2047.16 398.12 2047.16 268.93 2133.81 398.12 2233.06 398.12"/>
      </g>
      <path id="o-fill" class="cls-6" d="M1784.38,404.15c-27.79,0-52.65-6.21-74.58-18.65-21.94-12.42-39.31-29.25-52.09-50.45-12.8-21.2-19.2-44.97-19.2-71.29s6.31-49.35,18.92-70.19c12.61-20.84,29.88-37.37,51.82-49.63,21.94-12.24,46.98-18.37,75.12-18.37s52.18,6.03,74.31,18.1c22.12,12.07,39.57,28.61,52.37,49.63,12.79,21.03,19.2,44.51,19.2,70.47s-6.4,50.55-19.2,71.57c-12.8,21.03-30.16,37.75-52.1,50.18-21.94,12.43-46.8,18.65-74.58,18.65M1784.38,327.38c11.7,0,22.12-2.55,31.26-7.68,9.13-5.12,16.17-12.51,21.11-22.21,4.94-9.68,7.4-20.74,7.4-33.17s-2.56-22.75-7.68-32.08c-5.13-9.32-12.16-16.63-21.11-21.94-8.96-5.29-19.28-7.96-30.98-7.96s-22.13,2.65-31.26,7.96c-9.14,5.3-16.27,12.7-21.39,22.21-5.13,9.51-7.68,20.11-7.68,31.81,0,12.43,2.55,23.49,7.68,33.17,5.12,9.69,12.24,17.09,21.39,22.21,9.13,5.13,19.55,7.68,31.26,7.68"/>
      <path id="p-fill" class="cls-6" d="M1603.7,193.58c-11.34-20.84-26.78-37.29-46.34-49.36-19.56-12.07-41.77-18.1-66.63-18.1-17.92,0-34.36,3.66-49.35,10.97-7.67,3.74-14.61,8.18-20.84,13.3v-18.79h-84.45v378.92h83.35v-130.59c6.34,5.16,13.46,9.57,21.39,13.24,14.99,6.94,31.62,10.42,49.9,10.42,24.86,0,47.16-6.12,66.9-18.37,19.74-12.24,35.18-28.7,46.34-49.36,11.15-20.65,16.72-44.32,16.72-71.02s-5.67-50.46-17-71.29M1527.21,297.22c-5.3,9.51-12.43,16.91-21.39,22.21-8.96,5.3-19.28,7.96-30.98,7.96s-21.48-2.64-30.43-7.96c-8.96-5.29-15.99-12.69-21.11-22.21-5.13-9.5-7.68-20.29-7.68-32.36s2.55-22.84,7.68-32.36c5.12-9.5,12.15-16.91,21.11-22.21,8.95-5.29,19.27-7.96,30.98-7.96s21.94,2.65,30.71,7.96c8.77,5.3,15.8,12.7,21.11,22.21,5.29,9.51,7.95,20.29,7.95,32.36s-2.65,22.85-7.95,32.36"/>
      <path id="s2-fill" class="cls-6" d="M1147.07,404.15c-32.18,0-59.69-5.13-82.53-15.36-22.85-10.23-43.6-25.96-62.24-47.15l55.93-55.93c12.42,14.26,26.22,25.32,41.4,33.17,15.17,7.87,32.81,11.79,52.92,11.79,17.91,0,31.89-3.38,41.95-10.14,10.05-6.76,15.08-15.99,15.08-27.69,0-10.23-3.2-18.65-9.59-25.23-6.4-6.58-15.08-12.24-26.05-17-10.97-4.75-22.85-9.22-35.65-13.44-12.8-4.2-25.69-9.22-38.66-15.08-12.98-5.84-24.87-12.97-35.65-21.39-10.79-8.41-19.46-19.2-26.05-32.36-6.58-13.16-9.87-29.43-9.87-48.81,0-24.13,5.75-44.78,17.27-61.96,11.52-17.18,27.69-30.24,48.53-39.21,20.84-8.95,44.42-13.43,70.74-13.43s52.28,4.76,74.58,14.26c22.3,9.51,40.76,22.31,55.38,38.39l-56.49,56.48c-11.71-12.07-23.49-21.02-35.37-26.87-11.89-5.84-25.14-8.77-39.76-8.77s-26.87,2.83-35.65,8.5c-8.77,5.67-13.16,13.81-13.16,24.41,0,9.51,3.29,17.27,9.87,23.3,6.58,6.03,15.26,11.24,26.05,15.63,10.78,4.39,22.67,8.77,35.65,13.16,12.97,4.39,25.96,9.41,38.94,15.08,12.97,5.67,24.76,13.07,35.37,22.21,10.6,9.14,19.27,20.48,26.05,34,6.76,13.53,10.15,30.53,10.15,51,0,36.92-13.16,65.9-39.49,86.92-26.32,21.03-62.88,31.53-109.68,31.53"/>
      <g id="l2-fill">
        <rect class="cls-6" x="889.72" width="84.45" height="398.12"/>
      </g>
      <g id="l1-fill">
        <rect class="cls-6" x="756.03" width="84.45" height="398.12"/>
      </g>
      <path id="I-fill" class="cls-6" d="M664.96,95.42c-12.8,0-23.58-4.57-32.36-13.71-8.77-9.13-13.16-20.1-13.16-32.91s4.39-24.13,13.16-32.91c8.77-8.77,19.55-13.16,32.36-13.16,13.52,0,24.4,4.39,32.63,13.16,8.23,8.77,12.33,19.74,12.33,32.91s-4.12,23.77-12.33,32.91c-8.23,9.14-19.11,13.71-32.63,13.71M622.74,131.61h84.45v266.52h-84.45V131.61Z"/>
      <g id="k1-fill">
        <polygon class="cls-6" points="501.3 256.89 598.12 131.61 504.35 131.61 418.25 251.53 418.25 0 333.79 0 333.79 398.12 418.25 398.12 418.25 268.93 504.89 398.12 604.15 398.12 501.3 256.89"/>
      </g>
      <path id="s1-fill" class="cls-6" d="M144.78,404.15c-32.18,0-59.69-5.13-82.53-15.36-22.85-10.23-43.6-25.96-62.24-47.15l55.93-55.93c12.42,14.26,26.22,25.32,41.4,33.17,15.17,7.87,32.81,11.79,52.92,11.79,17.91,0,31.89-3.38,41.95-10.14,10.05-6.76,15.08-15.99,15.08-27.69,0-10.23-3.2-18.65-9.59-25.23-6.4-6.58-15.08-12.24-26.05-17-10.97-4.75-22.85-9.22-35.65-13.44-12.8-4.2-25.69-9.22-38.66-15.08-12.98-5.84-24.87-12.97-35.65-21.39-10.79-8.41-19.46-19.2-26.05-32.36-6.58-13.16-9.87-29.43-9.87-48.81,0-24.13,5.75-44.78,17.27-61.96,11.52-17.18,27.69-30.24,48.53-39.21,20.84-8.95,44.42-13.43,70.74-13.43s52.28,4.76,74.58,14.26c22.3,9.51,40.76,22.31,55.38,38.39l-56.48,56.48c-11.71-12.07-23.49-21.02-35.37-26.87-11.89-5.84-25.14-8.77-39.76-8.77s-26.87,2.83-35.65,8.5c-8.77,5.67-13.16,13.81-13.16,24.41,0,9.51,3.29,17.27,9.87,23.3,6.58,6.03,15.26,11.24,26.05,15.63,10.78,4.39,22.67,8.77,35.65,13.16,12.97,4.39,25.96,9.41,38.94,15.08,12.97,5.67,24.77,13.07,35.37,22.21,10.6,9.14,19.27,20.48,26.05,34,6.76,13.53,10.14,30.53,10.14,51,0,36.92-13.16,65.9-39.49,86.92-26.32,21.03-62.88,31.53-109.68,31.53"/>
    </g>
    <g id="wren">
      <g class="cls-7">
        <g class="cls-4">
          <path class="cls-5" d="M1464.48,276.6l.43.43-.16.92.81.89c.3.33.47.55.5,1.1l.82.49c.51-.35.85-.24,1.28.12.28.23.43.53.6.86l.78,1.55.79.31.84,1.23c.22.32.89-.27,1.2-.33l3.17-.56h.93c4.87,1.8,9.84,3.18,14.95,4.5,5.47,1.41,10.79,2.57,16.49,3.61-.51.73-1.11,1.31-1.74,1.82l-1.37,1.1c-2.88,2.3-6.02,4.04-9.37,5.6l-4.45,1.76c-5.98,1.99-12.14,3.04-18.45,2.81-5.29-.19-10.35-1.19-15.18-3.06l.36-.42c-.21-.46-.63-1.23-.94-1.59-.18-.15-.88-.11-.98-.03,0,.28,0,.47.09.5l.4.13.24,1.1-3.81-1.67.78-.07-.12-1.49,1.28.43c.2.57.7.94,1.22.83.18-.04.29-.63.12-.67l-.89-.2.24-1.12.32-1.01,1.15.43.79-1.23-.81.13c-.12-.07-.36-.49-.27-.63l.39-.65c.09-.14-.16-.43-.31-.52-.2-.11-.65-.13-.84-.02.36.51.54,1.17-.04,1.46-.35.17-1.1-.3-1.47-.4-.33.14-.87.5-1.08.07l-.07-.73c-.02-.2-.48-.39-.71-.54-.28-.19-.55-.98-.41-1.3.18-.44,1.07-.92,1.42-.72l1.18.69c.29.17.93-.41,1.24-.48.14-.03.5.1.64.14.17.04.52-.23.48-.39l-.13-.55c-.03-.13.23-.29.43-.45.14-.12-.15-.54-.39-.58-.18-.03-.45.16-.72.37-.41-.33-1.07-.27-1.5.06-.52.04-.56-.87-1.21-.79-.65.07,0,1.08-.36,1.57-.82.03-1.33.17-1.93.87l-.74-.77c-.17-.18-.31-.79-.08-.84l.52-.1c.12-.02,0-.46.07-.59l1.16-2.09.72-1.4-.21-1.16c-.53-.06-.73-.32-.69-.73.04-.46.4-.59.92-.51.37.06.53.36.55.78.01.25.61.46.87.34.25-.11.53-.62.57-.99-.5-.41-.83-.92-.98-1.59-.57.32-1.03.47-1.68.29l-.19.68-1.14,1.11c-.11.17.14.69.17.9l.22,1.59h-.85c.24.75-.27,1.83-.82,2.12-.09-.77-.15-1.5.23-2.04.21-.31.51-.71.03-1.03-.28.08-.58.55-.74.91-.45,1.03.27,1.1-.08,1.56-.14.2-.52.22-.72.09-.16-.1-.42-.24-.39-.35l.15-.56c-.2-.55-.59-1.55-.36-2.12.43-.51.47-1.5.18-1.85l-.3-.36c-.06-.07.22-.15.3-.14.52.03-.1.66.74.65h1.32c.15-.04.29-.41.34-.69l.88-.63c.19-.13.39-.22.47-.34.1-.14-.02-.64-.18-.68-.13-.03-.51-.06-.5-.17.01-.11.06-.48.05-.43.89.08.83-.85,1.04-.81.69.13.94.76,1.64.28.26-.18.31-.93-.04-.99l-1.18-.21c.39-1.46,1.49-.23,2.89.28l.14,1.55-1.24-.24.09,1.18.73-.4h.67l-.06-.71,1.01.13.77-.79c0-.27.05-.56.18-.61.17-.06.48.13.64.39l1.44-.12c.62-.05,1.05-.09,1.57.11l1.35-.31c.11.61-.67.69-.72,1.15-.01.16.3.53.45.47.15-.05.43-.22.54-.34l.26-.28c.07-.07.27.03.39.08l.39.16c.11.05.04-.43-.02-.54l-.58-1.03c-.12-.22,0-.63.14-1.16l-1.38.04h-.8s.18-1.88.18-1.88l.81-.17c.18-.33.72-.6.93-.33.18.22.36.53.52.6.16.07.49.02.72-.04M1455.29,294.59l-.43-.25-.04.35c0,.08.21,0,.47-.1"/>
          <path class="cls-2" d="M1449.19,247.51l.36,1.21c.04.14.33.52.43.43l.41-.33c.12-.1.4-.22.53-.25l-.24,1.36c-.05.28-.85.3-1.14.28l-.38-.03c-.08,0-.14-.27-.13-.36.05-.54-.05-.84-.61-1.06-.28-.11-.63.06-.95.36l-1.19,1.13c-.31.29-1.28.34-1.49.73-.55,1.05.93,1.36,1.63,2.65l.85-.53c-.14-.2-.45-.43-.63-.46l-.32-.06c-.59-.11.81-.31.91-.92.04-.25-.17-.57-.4-.88.05-.29.97-.39.97,0,0,.12-.09.55.01.51l.38-.16c.1-.04.39-.23.42-.12l.11.47c.07.31,1.45,1.16,2.24,1.21.12-.5.25-1.2.58-1.46.48-.39,1.15.02,1.41.44l-.52.4.5,1.63c.15.49.16.77.7,1.06l.67.36.56-.89.12-.52,1.46.58c.27.11.48.58.43.95-.04.28-.3.59-.55.88l-.53.64c.57.45.72.73,1.03,1.26l.5.85c.25-.4.37-.62.57-.68.22-.06.77.01.79.21.13.9.87.27.9.84.03.6-.78.04-1.1.9-.4-.29-1.09-.36-1.35.09-.08.14-.41.29-.55.26-.11-.03-.15-.24-.15-.51l-.3-.27c-.28.12-.65.22-.72.08l-.32-.64c-.64.19-.56,1.1-.99,1.16-.32.04-.52-.77-.85-.68-.61.18-.92.78-1.79.81-.45-.49-.87-.54-1.55-.32-.22.07-.64.35-.64.57,0,.19.23.51.4.71l-.03,1c.49.27,1.07.66,1.35.98.25.28-.58,1.15-.05,1.17l.47.02c.17,0,.36-.04.42.05l.21.35c.26.44.4,1.14-.04,1.48-.09.07-.5.17-.42.25l.31.3c.96.93-.89,1.12-.38,2.43.17.43.51.82.88,1.3l-.84.85.73.46.22,1.37c-.3.2-.76.77-.61,1.05l.62,1.06-.67.66c-.81-.21-1.2-.7-1.65-1.62-.38.39-.43.79-.59,1.23-.14.4-.3.76-.21,1.18l.26,1.27c-.55.22-.67.42-.9.85l-.99.55c.06.51-.07,1.08-.48,1.21-.29.09-.54.24-.58.44-.12.6,1.1.46,1.25.94.06.19-.02.61-.09.94l1.29-.14-.15-.83.47-1.15c.1-.25.41-.8.19-.93l-.5-.3c-.1-.06.02-.49.14-.49.19,0,.61,0,.64-.15l.12-.63,2.59-.3c-.34-.71-.49-1.67.1-2.24.94-.9-.15-1.57.22-1.85l.49-.39.38.67,3.01-.78-.2-.55c.06.18.94-.42.66-2.15.94-.12,1.32-1.17,1.54-.53l.16.48,1.61-.25c.93,2.2,2.17,4.22,3.84,5.92-.22.06-.55.11-.72.04-.16-.07-.34-.37-.52-.6-.21-.26-.74,0-.93.33l-.81.17-.18,1.87h.8s1.38-.04,1.38-.04c-.14.53-.26.94-.14,1.16l.58,1.03c.06.11.13.59.02.54l-.4-.16c-.11-.05-.32-.16-.39-.08l-.26.28c-.11.11-.39.28-.54.34-.15.05-.47-.32-.45-.47.04-.46.83-.54.72-1.15l-1.35.31c-.52-.19-.95-.16-1.57-.11l-1.44.12c-.17-.26-.48-.45-.64-.39-.13.05-.17.34-.18.61l-.77.79-1.01-.13.06.71h-.67l-.73.4-.09-1.18,1.24.24-.14-1.55c-1.39-.5-2.49-1.73-2.89-.28l1.18.21c.35.06.3.81.04.99-.7.48-.95-.16-1.64-.28-.21-.04-.15.9-1.04.81,0-.04-.04.32-.05.43-.01.11.37.15.5.17.17.03.29.54.18.68-.08.12-.29.21-.47.34l-.88.63c-.06.28-.19.65-.34.68h-1.32c-.83.01-.22-.61-.74-.65-.09,0-.36.08-.3.14l.3.36c.29.35.26,1.34-.18,1.85-.23.58.15,1.58.36,2.12l-.15.56c-.03.11.23.25.39.35.2.12.57.1.72-.09.34-.46-.37-.53.08-1.56.16-.37.45-.84.74-.91.48.32.18.72-.03,1.03-.38.55-.32,1.27-.23,2.04.56-.29,1.06-1.38.82-2.13h.85s-.22-1.58-.22-1.58c-.03-.2-.28-.73-.17-.9l1.14-1.11.19-.68c.65.18,1.11.03,1.68-.29.15.67.48,1.18.98,1.59-.04.36-.32.88-.57.99-.27.11-.86-.09-.87-.34-.02-.42-.18-.72-.55-.78-.52-.08-.88.05-.92.51-.03.41.16.67.69.73l.21,1.16-.72,1.4-1.16,2.09c-.07.12.06.56-.07.59l-.52.1c-.23.04-.09.66.08.84l.74.77c.59-.7,1.11-.84,1.93-.87.37-.49-.29-1.5.36-1.58.65-.07.69.84,1.2.79.43-.33,1.09-.39,1.5-.06.27-.22.53-.4.72-.37.24.04.53.46.39.58-.2.16-.46.32-.43.45l.13.55c.04.17-.32.44-.48.39-.14-.03-.5-.17-.64-.14-.31.08-.95.65-1.24.48l-1.18-.69c-.35-.2-1.24.28-1.42.72-.14.32.12,1.11.41,1.3.23.15.69.33.71.54l.07.73c.21.43.75.06,1.08-.07.38.1,1.13.57,1.47.4.57-.29.39-.95.04-1.46.19-.11.64-.1.84.02.15.09.4.38.31.52l-.39.65c-.09.14.15.56.27.63l.81-.13-.79,1.23-1.15-.43-.32,1.01-.24,1.12.89.2c.17.04.06.63-.12.67-.52.11-1.02-.26-1.22-.83l-1.28-.43.12,1.49-.78.07-.65-.32-.48-.62c-.18-.19.02-.81-.01-1.07-.01-.1-.2-.37-.24-.46-.03-.07.25-.21.33-.22l.84.69,1.06-.04c.1-.06.17-.73-.02-.85l-.7-.45.09-.7c.02-.13-.4-.3-.5-.21l-.42.36-.45.34c-.09.06-.37-.12-.44-.21l-.3-.34c-.05-.06-.29.07-.37.11-.38.23-.79,0-1.03-.4l-.85.04-1.43-.1.17.78c.02.12-.41.15-.48.18l-2.08-1.55-3.3-2.78c-4.93-4.65-8.94-10.25-11.41-16.61-1.41-3.63-1.89-7.41-2.22-11.25l.13-1.93c.22-2.42.61-4.86,1.69-6.94l1.24.22c.28-.15.76-.36.98-.23.29.19.43.47.61.88.25.08.93.13,1.29,0,.32-.11.14-.79-.12-1.13l1.74-.93h.12s.83-1.12.83-1.12c.17-.23.61-.43.85-.32.11,1.9,1.2,1.33,1.16,2.01-.34.35-.7.73-.39,1.14.18.23.94.18,1.05-.08l.44-1.06-.62-.75-.28-.26c-.06-.05.5-.68.29-.82l-.41-.27-.31-.21c-.09-.06.14-.32.24-.36.45-.17.74-.11,1.11.19l.53-.78c-.28-.56-.32-1.06-.26-1.67l.06-.73c.02-.2.52-.34.66-.25l.2.7,1.38-.13-.04-1.05c0-.09.07-.34.15-.39.1-.07.4-.03.5.04l.57.36.08-.11c.21-.47.74-.78,1.3-.91l.52-.94c1.89,1,2.41,2.37,4.11,1.22M1443.39,248.26l-.04.1c-.05.29-.17.56-.45.86-.15.16.11.63.36.7.25.06,1.47-.71,1.1-1.22-.16-.22-.73-.43-.97-.45M1441.86,252.17c.03-.07.13-.34.05-.33-.1.01-.24,0-.27.05l-.15.21c-.04.06-.06.28-.01.34.04.06.2.14.23.08l.16-.34ZM1445.74,260.46c.17-.83,1.26-.8,1.15-1.06l-.19-.46c-.04-.11-.16-.47-.05-.49l.56-.11c.18-.04.36-.44.52-.61.53-.57,1.48-.57,2.2-.64l.48-.05c.17-.02-.07,1.07.42,1.05.41-.01.21-.49.92-1.21.68-.69,1.23-.56,1.42-1.16l-1.56.35.17-.78c-.51.03-1.35.08-1.59.39l-.49.67c-.11.15-.61.02-.81-.01l-.97.25.09-1.1-1.24-.1c-.11-.41.17-.81.47-1.3-.49.12-.9.35-1.29.59l-.97-.1c-.24-.03-.53-.53-.65-.8-.08-.19-.6-.21-.78-.11-.5.27-.18,1.37-.37,1.35l-.6-.08c-.25-.03-.65-.25-.78-.44-.15-.23-.16-.73-.02-.93.58.17,1.04.21,1.33-.29l.3-.5c.07-.12-.19-.53-.33-.53-.36,0-.84.37-1.11.59l-.88.71-.9-.63c-.52-.11-1.05.83-.64,1.21.25-.06.73-.11.84.08.13.22.1.59,0,.79l-.36.79c.47.41.51.68.51,1.28l1.4-.16c.15-.02.54.11.56.26.06.55-.23,1.52.27,1.39.47-.12,1.12-.29,1.48-.12.17.08.28.66.15.77l-.46.38c-.14.57-.31,1.07-.62,1.55-.02.66-.34,1.12-.99,1.56l.44,1,1.39-.13,1.27-.22c.16.71.11,1.24-.04,1.91l1.23-.24c-.18-.35-.4-.74-.34-.95.05-.21.38-.61.53-.72.2.17.52.42.65.31l.44-.4.33-.21c.38-.23-.6-.45-.59-.69l.03-.62c.03-.61-.88-.63-1.22-.39-.15.11-.56.08-.78.03-.15-.03-.46-.41-.35-.52l.41-.42ZM1449.02,253.55c-.1-.08-.19-.45-.1-.55.09-.1.31-.04.58.05.17.23.45-.11.28-.25-.63-.31-1.03-.26-1.48.12-.27.22-.52.74-.54,1.2l.61.94.78-.82c.09-.09.29-.35.2-.43l-.33-.27ZM1451.5,254.07c-.09.02.11.27.19.24l.23-.09c.06-.02-.03-.24-.08-.23l-.34.07ZM1435.59,254.14l-.08.1-.03.43c0,.12.32.09.42.02.09-.07.29-.39.17-.42l-.48-.12ZM1449.66,255.04c.1-.09-.14-.43-.26-.36l-.43.28c-.09.06-.2.31-.22.41-.01.08.22.19.28.2l.62-.52ZM1452.38,254.89l.03.41c0,.06.23-.03.24-.08v-.28c0-.06-.26-.11-.26-.05M1432.36,256.48l.03.42c0,.06.23-.03.24-.08v-.28c0-.06-.26-.11-.26-.05M1430.08,257.58c.44-.13.04-1.03-.28-.94-.44.13-.18,1.08.28.94M1433.69,263.38c-.39.67.05,2.12.02,2.11l.44.16c.19.07.49.07.84.02l.11.67c.44.43,1.32.72,1.77.27-.37-.5-.54-.92-.41-1.4l-1.15-.59.4-1.2.69.52.98-.35c-.02.61-.32.84-.68,1.15-.06.14.35.33.45.25l.47-.4c.39-.34.94-.6,1.5-.89.06.1.16.46.07.54-.09.07-.27.17-.42.24l-.74.32.59,1.01,1.25.09.23-1.67,1.07-1.28c.46-.55,1.07-1.89.71-2.18l-1.5.33c-.72.16-.47-.95-1.19-1.39.34-.07.84-.38.59-.87l-.89.63-.86.34.48.95-1.57-.06.61-.68c-.63-1.13-2.02.12-2.11-.15l-.16-.54c-.17-.58-.24-1.06-.27-1.73-.17-.14-.65-.3-.97-.32l.23.98-.34.6c-.08.14.14.43.34.7-1.01.98-1.99.42-2.38.83-.1.1-.16.42-.08.55l.44.76c.5.26,1.16-.19,1.18-.8l1.27.27c.34.07.82.48,1.21.79-.05.08-.38.2-.58.21-.85.04-.65.94-.98.99l-.5.08s-.14.1-.17.11M1455.27,257.64c0-.09-.31-.24-.35-.17l-.16.29c-.06.12-.11.35,0,.37l.4.05c.08,0,.11-.38.11-.54M1431.37,259.06c.35-.34.65-.88.7-1.43h-1.44c-.13.12-.19.65-.07.71l.81.73ZM1448.95,258.55l.41.05c.15.02.54-.06.53-.21l-.03-.54c-.01-.19-1.89-.23-1.92.6l-.03,1.06c.01.23.68.51.94.38.41-.2-.18-1.37.09-1.33M1452.24,258.21l.02.42c0,.06.23-.03.24-.08v-.28c.01-.06-.26-.11-.26-.05M1431.3,260.84c.27-.19.1-.89-.21-1.02-.2-.08-.4.36-.4.6,0,.25.36.6.61.42M1433.84,263.1l-.03-.41c0-.07-.26-.14-.33-.15l-.79-.09-1.13.09c.06.18.27.58.39.76.07.11.54.23.61.12.07-.11.1-.23.21-.54l.38.46c.09.1.45-.1.53-.14.03-.01.16-.08.16-.11M1451.14,266.5c.05-.96-.37-1.69-1-1.71-.19,0-.67.26-.62.44l.3,1.15,1.33.12ZM1448.54,273.09c-.28-.22-.84.12-.78.41.08.09.55.33.59.2l.19-.61ZM1457.37,277.63l1.28-.04-.67-.62c.22-.35.82-.75,1.18-.98.4-.86,1.25-1.18,2.1-.96.15.04.46-.34.39-.48l-.23-.5c-.32-.72-.77-1-1.56-.84l-1.57.32-1.14.26-.29,1.4c-.34.19-.57.5-.51.83l1.04.27-.03,1.34ZM1447.95,275.4l-.41-1.66-1.02.02.26,1.15,1.17.49ZM1445.32,275.2l.02.42c0,.06.23-.02.24-.08v-.28c.01-.06-.26-.11-.26-.05M1446.55,278.02l-.4-.6c-.04-.06.48-.93.21-.89l-.56.08-.35-.7-.48.69c-.09.12-.2.57-.06.61l.6.16.11.69.93-.04ZM1451.26,293.42c-.12-.31-.4-.77-.61-.93-.07-.05-.47-.07-.48.02l-.07.34c.14.18.3.43.17.48l-.47.21c-.1.04-.19-.38-.2-.5l-.6-.62.33-.45c.06-.08-.27-.35-.28-.46l-.1-1.56-1.1.72c.19.22.36.41.4.53l.32,1.03c-.45.19-.64.62-.5,1.17.1.39.63.85,1.12.69l1.06-.35,1.01-.31ZM1454.95,295.85l-.47.23.25.5.47-.23-.25-.5Z"/>
          <path class="cls-5" d="M1452.06,299.45l-2.22-1.23c.25-.34.16-1.02-.09-1.23-.12-.1-.61-.06-.63.08l-.1.65-2.19-1.44c.07-.03.5-.07.48-.18l-.17-.78,1.43.09.85-.03c.24.4.65.63,1.03.4.08-.05.32-.18.37-.12l.3.34c.07.09.35.28.44.21l.45-.34.42-.36c.1-.09.51.08.49.21l-.09.7.7.45c.19.12.12.79.02.85l-1.06.04-.84-.69c-.08.01-.36.15-.33.23.05.09.23.36.24.46.04.26-.17.88.01,1.07l.48.62Z"/>
          <path class="cls-2" d="M1468.38,240.57l.86,1,1.36,1.24.97.75-.53.15c-.12.02-.29-.32-.41-.34-.24-.04-.71-.07-.87-.19-.18-.14-.33-.53-.43-.92-.6-.11-1.25-.12-2.06-.04-.1-.29-.22-.94-.23-1.22l1.34-.43Z"/>
          <path class="cls-2" d="M1467.58,239.68l-.76.64-1.34.06c-.56.03-.96.04-1.42-.28l.94-.99c.8.16,1.47-.21,1.85-.84l.73,1.41Z"/>
          <path class="cls-2" d="M1466.57,237.54c-.37.1-.99.25-1.32.15-.82-.24-.04-1.66-.25-1.97-.11-.17-.38-.34-.71-.56l1.03-.83,1.26,3.21Z"/>
          <path class="cls-2" d="M1457.35,301.76l-.83-.32-.24-1.1-.4-.13c-.09-.03-.09-.22-.09-.5.09-.07.8-.12.98.03.31.36.73,1.13.94,1.59l-.36.42Z"/>
          <path class="cls-2" d="M1430.9,241.82l.52.04c.12,0,.15.25.13.39l-.98,1.45-.59-.53.92-1.36Z"/>
          <path class="cls-2" d="M1449.84,298.22l-.83-.5.11-.65c.02-.14.5-.18.63-.08.25.21.34.89.09,1.23"/>
          <path class="cls-2" d="M1428.77,250.31l-.16-.64c.05.06.13.08.18.05l.37-.17-.39.77Z"/>
          <path class="cls-2" d="M1428.57,247.27l.14-.49-.14.49Z"/>
          <path class="cls-3" d="M1450.9,246.56c-.07-.03-.29,0-.36.04l-1.35.91c-1.7,1.15-2.22-.22-4.11-1.22l-1.46-.77c-.26-.14-.78-.06-1.13.09l-.52-.88.17-.49c.1-.3.75-.4,1.13-.45,3.08-.42,4.05-3.32,5.71-2.09l2.07,1.53c1.59,1.18,3.15.62,3.13,1.78-.02,1.08-1.87.46-3.27,1.55"/>
          <path class="cls-2" d="M1462.43,254.14l-.51-1.12-.3-.32c-.07-.07-.39,0-.4.1l-.03.49c-.02.32-.24.84-.15,1.08.08.21.29.54.21.68-.09.16-.38.41-.57.57-.14.11-.08.53.07.63.15.1.59.12.76.04l.46-.21c.11-.05.3.19.42.33l1.34.06-.06,1.11c-.21.25-.61.82-.52,1.12l.36,1.16c-.38.11-.87.17-1.25.18.18-.56.31-.86.3-1.14-.01-.24-.43-.6-.56-.82l-.27-.47c-.07-.12-.38.15-.47.31-.08.15-.57.17-.67.04l-.45-.58c-.25-.32-.27-.82-.21-1.19l-.11-.68c-.03-.17.26-.39.45-.54-.6-1.03,1.03-1.88-.07-3.07.84-.08.62-.92,1.61-.59.43.15.84,0,1.11-.36.22-.3.14-.64-.09-1.16l.8-.65c.09-.08.5-.2.57-.1l.46.62.6-1,.55-1.78.63.47c.14.11.54-.26.7-.36.43-.04,1.05.33,1.32.84l-.9.5-.35.32c-.14.13-.69-.29-.8-.21l-.38.27c-.27.19-.53.6-.49.89l.14.86c.16.97,1.76.59,2.23,1.18l-.43,1.65c-.37,1.42-1.39.59-1.74,1.09-.28.4-.02.92-.25,1.43-.06.13-.47-.01-.62-.09-.36-.18-.62.04-.97.48-.38-.14-.81-.75-1.02-1.18l-.24-.52s1.47-1.05,2.27.1c-.06-.63-.08-.97-.02-1.5l-1.1-.83-.26-.24c-.24-.22-.16.84-.15.84l-.48.22c.06.35-.13,1.04-.47,1.05"/>
          <path class="cls-3" d="M1440.16,241.72c-.53,1.15-1.58,1.73-2.7,1.68-1.1-.05-2.09-.78-2.5-1.92-.43-1.22-.16-2.51.52-3.66.79-1.34,2.69-1.57,3.87-.43,1.1,1.06,1.47,2.9.8,4.34M1438.76,239.14c0-.37-.3-.67-.67-.67s-.67.3-.67.67.3.67.67.67.67-.3.67-.67"/>
          <path class="cls-2" d="M1457.78,268.59c-.75.12-.93.76-1.27,1.24l-.87,1.23c-.13.2-.75-.05-.75-.29.02-1.85-1.18-1.58-1.17-1.99.02-.59,1.12-.67,1.23-1.32.06-.39-.15-1.01-.36-1.23l-1.04.24c-.39-1.12.45-1.72-1-2.52-.08-.4.18-.95.44-1.49-.28.05-.55.18-.88.38l-.17-2c.56.22.99.66,1.14,1.21l.5.16c.11.03.04.48.08.59.2.5,1.22.54,1.41,0l.34-.96c.03-.07.32-.22.32-.14v.32s.02.49.02.49c0,.13.33.07.61,0l-.2,1.64-.89.12c-.17.49-.28.71-.65,1.18.08.21.49.78.73.83l1.2.07c.16.99.82,1.4,1.72,1.66.02.14-.28.54-.48.58M1456.47,269.24c-.07-.59-.13-.85-.28-.97-.14-.11-.59-.19-.68-.03-.14.24-.07.78.14.86.26.1.7.19.82.15"/>
          <path class="cls-2" d="M1450.9,246.56l1.18.52c.36.15.62.55.88.87.11.14.46.34.46.51,0,.17-.3.55-.4.53l-.19-.8-.75.39-1.08-.43-.46-1.55c.06-.04.29-.07.36-.04"/>
          <path class="cls-2" d="M1454.88,272.49c-.78.19-1.24-.27-1.57-.79-.14-.22.11-.62.3-.87.15-.19.86-.1.96.12.18.4.25,1.01.31,1.53"/>
          <path class="cls-2" d="M1430.78,246.78c-.31-.36-.54-.73-.84-1.34l1.81-.57-.42.91-.55.99Z"/>
          <path class="cls-2" d="M1461.82,238.51l-.4-.51c.14-.25.32-.54.53-.6.22-.06.81.08.76.26l-.2.8c-.04.17-.54.13-.69.04"/>
          <path class="cls-2" d="M1460.75,260.17c-.24-.21-.24-.73-.14-.96.37.14.65.29.69.48.04.18-.41.61-.55.49"/>
          <path class="cls-2" d="M1435.55,243.5c-.2.22-.79.37-1.01.21-.16-.11.13-.56.32-.54.22.02.52.15.69.33"/>
          <path class="cls-2" d="M1442.14,244.25l-.17.49c-.14.07-.47.03-.63-.06-.15-.08.01-.62.18-.58l.62.15Z"/>
          <path class="cls-2" d="M1465.69,246.63l-.37-.21c-.1-.06.04-.44.15-.47.11-.03.36.12.42.22.08.12-.08.53-.21.46"/>
          <path class="cls-2" d="M1459.01,257.8c.07-.06.42-.06.42.04-.01.17-.04.4-.09.51-.05.11-.49.04-.51-.08-.02-.12.09-.39.18-.47"/>
          <path class="cls-2" d="M1433.52,254.87l-.52-.63c.22-.08.67-.13.65,0l-.13.63Z"/>
          <rect class="cls-2" x="1432.19" y="241.76" width=".72" height=".29"/>
          <polygon class="cls-2" points="1466.67 242.22 1466.94 242.37 1466.66 242.9 1466.39 242.76 1466.67 242.22"/>
          <path class="cls-2" d="M1469.37,250.69c0,.09-.07.16-.16.16s-.16-.07-.16-.16.07-.16.16-.16.16.07.16.16"/>
          <path class="cls-2" d="M1455.29,294.59c-.26.1-.48.18-.47.1l.04-.35.43.25Z"/>
          <path class="cls-5" d="M1445.74,260.46l-.41.42c-.11.11.2.48.36.52.22.05.63.07.78-.03.33-.24,1.25-.22,1.22.39l-.03.62c-.01.24.96.45.59.69l-.33.21-.44.4c-.12.11-.44-.15-.64-.31-.15.1-.47.5-.53.72-.05.21.16.6.35.95l-1.23.24c.16-.67.2-1.2.04-1.91l-1.27.22-1.39.13-.44-1c.65-.43.97-.89.99-1.56.31-.48.49-.98.62-1.55l.46-.38c.14-.11.02-.69-.15-.77-.36-.17-1,0-1.48.12-.5.12-.21-.84-.27-1.39-.02-.15-.41-.28-.56-.26l-1.4.17c0-.61-.04-.88-.51-1.28l.36-.79c.1-.2.12-.57,0-.79-.11-.19-.59-.13-.84-.08-.41-.38.12-1.32.64-1.21l.9.64.88-.71c.27-.22.75-.59,1.11-.59.14,0,.4.41.33.53l-.3.5c-.29.5-.75.46-1.33.29-.13.2-.12.7.02.93.12.19.53.41.78.44l.6.08c.19.02-.13-1.08.37-1.35.18-.1.7-.08.78.11.12.27.41.77.65.8l.97.1c.4-.24.8-.47,1.29-.59-.31.49-.59.89-.47,1.3l1.24.1-.09,1.1.97-.25c.19.03.7.16.81.01l.49-.67c.23-.32,1.07-.36,1.59-.39l-.17.78,1.56-.35c-.19.59-.74.47-1.42,1.16-.71.72-.51,1.2-.92,1.21-.49.02-.25-1.07-.42-1.05l-.48.05c-.73.07-1.67.07-2.2.64-.16.17-.34.58-.52.61l-.56.11c-.11.02,0,.39.05.49l.19.46c.11.26-.98.23-1.15,1.06"/>
          <path class="cls-5" d="M1433.87,263.26l.5-.08c.33-.05.13-.95.98-.99.2,0,.52-.13.57-.21-.39-.31-.87-.72-1.21-.79l-1.27-.27c-.02.61-.68,1.06-1.18.8l-.44-.76c-.07-.13-.02-.44.08-.55.39-.41,1.37.15,2.38-.83-.2-.27-.42-.56-.34-.7l.34-.6-.23-.98c.32.02.81.17.97.32.03.67.1,1.15.27,1.73l.16.54c.08.28,1.48-.98,2.1.15l-.61.68,1.56.06-.48-.95.86-.34.89-.63c.25.49-.25.8-.59.87.72.44.47,1.55,1.19,1.39l1.5-.33c.36.29-.25,1.63-.71,2.18l-1.07,1.28-.23,1.67-1.25-.09-.59-1.01.75-.32c.15-.07.33-.17.42-.24.09-.07-.02-.44-.07-.53-.57.29-1.12.55-1.5.89l-.47.4c-.1.09-.51-.11-.45-.25.36-.31.66-.54.68-1.15l-.98.35-.69-.52-.4,1.2,1.15.59c-.13.48.04.9.41,1.4-.46.45-1.34.15-1.78-.27l-.11-.67c-.34.05-.64.05-.84-.02l-.45-.16s-.41-1.44-.02-2.11v-.17c-.09.04-.46.25-.54.14l-.39-.46c-.11.31-.13.43-.21.54-.07.11-.54-.01-.61-.12-.12-.18-.33-.59-.39-.76l1.13-.09.79.1c.08,0,.33.07.33.15l.03.41.03.17Z"/>
          <path class="cls-5" d="M1457.37,277.63l.03-1.34-1.04-.27c-.06-.33.17-.64.51-.83l.29-1.4,1.14-.26,1.57-.32c.8-.16,1.24.12,1.56.84l.23.5c.06.14-.24.52-.39.48-.85-.22-1.7.1-2.1.96-.37.24-.96.63-1.18.98l.67.62-1.28.04Z"/>
          <path class="cls-5" d="M1451.26,293.42l-1,.32-1.06.35c-.49.16-1.02-.3-1.12-.69-.14-.55.05-.97.5-1.17l-.32-1.03c-.03-.12-.21-.32-.4-.53l1.1-.72.1,1.56c0,.11.34.38.28.46l-.33.45.6.62c0,.13.09.55.2.5l.47-.21c.13-.06-.03-.3-.17-.48l.07-.34c.02-.08.42-.07.48-.02.22.16.49.62.61.93"/>
          <path class="cls-5" d="M1448.95,258.55c-.27-.03.32,1.14-.09,1.33-.26.12-.93-.15-.94-.38l.03-1.06c.03-.82,1.91-.78,1.92-.6l.03.54c0,.15-.39.23-.53.21l-.42-.05Z"/>
          <path class="cls-5" d="M1449.02,253.55l.33.27c.09.07-.11.33-.2.42l-.78.82-.61-.94c.02-.46.28-.98.54-1.2.45-.38.85-.43,1.48-.12.17.14-.11.47-.28.25-.27-.09-.49-.15-.58-.05-.09.1,0,.47.1.55"/>
          <path class="cls-5" d="M1451.14,266.5l-1.33-.12-.3-1.15c-.05-.18.44-.45.63-.44.63.02,1.05.75,1,1.71"/>
          <path class="cls-5" d="M1446.55,278.02l-.93.04-.11-.69-.6-.16c-.14-.04-.03-.49.06-.61l.48-.69.35.7.56-.08c.27-.04-.24.83-.21.89l.4.6Z"/>
          <path class="cls-5" d="M1431.37,259.06l-.81-.73c-.12-.06-.06-.58.07-.71h1.44c-.06.56-.36,1.1-.7,1.44"/>
          <polygon class="cls-5" points="1447.95 275.4 1446.79 274.91 1446.52 273.76 1447.54 273.73 1447.95 275.4"/>
          <path class="cls-5" d="M1431.3,260.84c-.25.18-.61-.17-.61-.42,0-.24.2-.68.4-.6.31.13.47.82.21,1.02"/>
          <path class="cls-5" d="M1430.08,257.58c-.46.14-.72-.81-.28-.94.32-.09.72.8.28.94"/>
          <path class="cls-5" d="M1449.66,255.04l-.62.52c-.06-.01-.29-.12-.28-.2.02-.1.13-.35.22-.41l.43-.28c.12-.07.36.28.26.36"/>
          <path class="cls-5" d="M1448.54,273.09l-.19.61c-.04.12-.51-.11-.59-.2-.07-.28.5-.63.77-.41"/>
          <path class="cls-5" d="M1455.27,257.64c0,.15-.02.54-.11.54l-.4-.05c-.11-.01-.06-.25,0-.37l.16-.29c.04-.07.35.08.35.17"/>
          <rect class="cls-5" x="1454.58" y="295.94" width=".52" height=".56" transform="translate(20.81 680.75) rotate(-26.52)"/>
          <path class="cls-5" d="M1441.86,252.17l-.16.34c-.03.07-.18-.02-.23-.08s-.03-.28.02-.34l.15-.21s.17-.04.27-.05c.07,0-.02.25-.06.33"/>
          <path class="cls-5" d="M1452.24,258.21c0-.06.27,0,.27.05v.28c0,.06-.24.14-.24.08l-.02-.42Z"/>
          <path class="cls-5" d="M1452.38,254.89c0-.06.27,0,.27.05v.28c0,.06-.24.14-.24.08l-.02-.41Z"/>
          <path class="cls-5" d="M1445.32,275.2c0-.06.27,0,.27.05v.28c0,.06-.24.14-.24.08l-.02-.42Z"/>
          <path class="cls-5" d="M1432.36,256.48c0-.06.27,0,.27.05v.28c-.01.06-.24.14-.24.08l-.02-.42Z"/>
          <path class="cls-5" d="M1451.5,254.07l.34-.07c.06-.01.14.21.08.23l-.23.09c-.08.03-.28-.23-.19-.25"/>
          <path class="cls-3" d="M1475.45,333.92c-.36.44-.56.72-1.13.55-.34-.1-.53-.77-.24-1.15.89-1.17,2.05-2.16,3.19-3.08.09-.07.31-.33.23-.38l-.39-.28c-1.93.12-3.75.38-5.61.84l-1.66.83c-.25.12-.78-.02-.91-.24-1.03-1.79,5.83-2.88,8.33-3.07,1.47-.11,2.84-.87,3.54-2.13l2.13-3.8,4.31-8.2,3.26-6.42c.06-.18.27-.77.18-.96l-.93-1.79c-.2-.39-.71-.26-1.07-.16-4,1.05-7.99,1.76-12.13,1.97-.47.02-1.15-.06-1.41.27l-1.23,1.58c-3.32,4.28-6.38,8.66-9.45,13.13l-2.13,3.09c-.09.13-.16.54-.09.68.06.14.35.36.52.39l2.53.37c.85.12,1.66.46,2.47.81.28.12.44.61.44.9,0,.28-.48.71-.82.55-.99-.47-1.89-.81-3-.89l-2.83-.2c-3.18.3-6.91,1.95-9.11,4.34-.21.23-.88.17-1.07-.07-.19-.25-.18-.91.13-1.15l3.79-2.93c-.49-.29-.98-.33-1.51-.29-1.89.14-3.71.32-5.56.79-1.18.3-2.16,1.45-2.7.61-.6-.92,1.01-1.59,2.44-1.99,2.8-.8,5.6-1.01,8.5-1.14,2.55-.11,3.77-1.25,5.16-3.25l10.05-14.54c.14-.2.27-.51.22-.67-.05-.16-.35-.35-.54-.44-18.19-.98-34.41-11.99-42.11-28.49-1.45-3.52-2.34-7.22-2.81-11.08-.54-4.49.17-8.89,1.84-13.07-2.24-4.38-1.59-8.64,1-12.59.51-2.62,1-5.11,1.71-7.64.73-2.57,2.13-4.66,3.99-6.51.82-.82,1.69-1.57,2.73-2.15,5.28-2.95,11.44-3.68,17.31-2.17,2.55.66,4.94,1.72,6.86,3.47l1.12,1.03c1.97,2.25,3.19,4.92,4.23,7.71,1.21,3.26,2.11,5.06,5.06,7.2l1.28.92c4.01,1.51,7.82,3.2,11.68,5.14,4.66,2.35,9.12,4.81,13.46,7.7,3.1,2.07,5.92,4.28,8.81,6.61.29.23.74.16,1.01-.06l1.59-1.31,1.64-1.54,6.12-6.11,7.43-7.98,9.99-11.3c1.28-1.45,2.98-2.35,4.91-2.08.72.1,1.23.56,1.53,1.24.29.06.78.01,1.09-.07,1.61-.41,3.04.56,3.24,2.16.28,2.13-.1,4.19-1.22,6l-3.73,6.07c-2.78,4.53-5.87,8.71-9.08,12.94l-3.99,5.26c-2.35,3.1-4.64,6.12-6.69,9.42l-2.45,3.94c1.18,1.78,1.79,3.15.77,5.03l1.31,1.92c.53.78.59,1.69.44,2.56.85.9,1.52,1.96,1.02,3.26-.52,1.35-3.29,1.43-5.04,1.23l-7.09-.84c-.49-.06-.78.41-1.11.73-2.94,2.9-6.26,5.25-9.9,7.21l-6.45,2.95c-.26,1.55,1.35,2.14.17,4.19l-1.95,3.39-2.97,5.38-5.73,10.81c-.1.19-.12.57-.05.72.08.15.46.36.65.34l2.74-.24c1.8-.16,3.5-.17,5.11.73.26.14.39.68.29.94-.12.32-.65.48-1,.31-1.3-.67-2.69-.77-4.13-.56l-3.04.43c-.62.09-1.36-.01-1.95.25-2.14.96-4.06,2.29-5.6,4.13M1430.9,241.82l-.92,1.36c-.72,1.05-1.13,2.32-1.27,3.6l-.14.49.04,2.4.16.64c.17,1.53,1.44,2.83,1.13,3.94l-.27.98c-1.08,2.08-1.47,4.51-1.69,6.94l-.13,1.93c.33,3.83.81,7.62,2.22,11.24,2.47,6.36,6.48,11.96,11.41,16.61l3.3,2.78,2.08,1.55,2.19,1.44.83.5,2.22,1.23.65.32,3.8,1.67.83.32c4.84,1.87,9.9,2.86,15.18,3.06,6.31.23,12.47-.82,18.45-2.81l4.45-1.76c3.35-1.56,6.49-3.3,9.37-5.6l1.37-1.1c.63-.5,1.23-1.09,1.74-1.81-5.7-1.03-11.02-2.2-16.49-3.61-5.1-1.31-10.08-2.7-14.95-4.5-2.39-.89-4.73-1.95-7-3.21l-2.28-1.48c-.85-.56-1.6-1.2-2.29-1.89l-.43-.43c-1.68-1.7-2.91-3.72-3.84-5.92l-.71-2.15-.42-1.82-.04-1.22c0-.29.23-.69.49-.76,1.22-.35.71,1.68,1.45,3.69l.68,1.87.74,1.46.86,1.42,1.21,1.62.55.57,1.11,1.11c.06.06.26.14.34.16.39.47.92.87,1.44,1.22l.56.37,1.43.89,1.17.63,3.31,1.56,1.01.41,1.16.44.28.11.14.04.32.11,1,.4,2.13.69,2.44.77,2.61.77,2.72.75,1.93.54,4.25,1.09.92.22c5.09,1.23,10.19,2.24,15.43,3.03l8.04.88c.55.06,1.29-.14,1.78-.34.3-1.07-.57-1.65-1.5-1.79-5.29-.8-10.34-2.17-15.51-3.5l-2.99-.77-.36-.11-1.66-.47-1.48-.42c-.06.04-.08.05-.1.05l-.66-.3-.78-.25c-.45-.14-.93-.18-1.37-.19-.11-.35-.86-.47-1.24-.6l-1.86-.64-2.9-.99-3.38-1.21c-.1-.3-.23-.79-.13-1.14.56-.22.85-.16,1.33.02,5.87,2.24,11.9,4,17.94,5.61,4.89,1.3,9.76,2.61,14.85,3.39.22.03.66-.09.76-.23.1-.14.1-.54-.01-.69l-1.85-2.5-.73-.13-8.65-3.14-.82-.26-15.71-5.7-4.49-1.61-.49-.36c0-.16.04-.7.19-.85.17-.18.79-.14.97-.06l4.34,1.55,9.94,3.61,1.03.37,1.01.36,10.7,3.9,2.39.78c.2.06.66,0,.8-.11.5-.44-.06-1.95-.67-2.74l-1.68-2.17-4.69-2.29-6.99-3.12-.12.08-.31-.23-.59-.26-2.52-1.07c-.1-.04-.39-.05-.5-.03-.03,0-.07.03-.11.06-.14-.25-.49-.47-.81-.59l-2.86-1.06-.25-.13c-.04-.19-.1-.63-.01-.8.09-.17.36-.36.53-.48h.33s2.32,1,2.32,1l1.39.52c4.37,1.63,8.63,3.54,12.85,5.65.63.32,1.13.66,1.92.71-.4-1.58-1.18-2.76-2.04-4.05-2.07-3.13-4.6-5.84-7.51-8.21l-2.12-1.73-.16-.17-5.69-4.11-3.69-2.36-.26-.16-1.89-1.15-.25-.1-4.28-2.4-4.13-2.11-.67-.33-2.03-1-4.18-1.88-1.34-.55-1.14-.43-.87-.28-.28-.11-1.68-1.2-.97-.75-1.36-1.24-.86-.99-.8-.89-.73-1.41-.29-.74-1.26-3.21c-.83-2.13-1.83-4.22-3.49-5.92-1.81-1.86-4.03-3.12-6.51-3.88-4.36-1.34-8.87-1.24-13.21.18-4.97,1.63-8.47,4.9-9.71,10.06l-.83,3.48-.66,3.58ZM1517.23,276.78l.72.69,2.45-3.67,3.01-4.48,5.32-7.07c3.91-5.2,7.79-10.3,11.24-15.8l2.07-3.3,1.11-1.9c.82-1.41,1.43-2.86,1.51-4.53.02-.54-.08-1.44-.52-1.72-.68-.44-1.52-.15-2.17.2-.38.21-1.14.27-1.22-.28-.09-.63-.28-1.22-1.09-1.3-1.21-.11-2.25.61-3.05,1.51l-1.85,2.09-8.71,9.83-1.87,2.05-5.1,5.42-6.04,6.04-3.38,3.11c-.13.12-.28.25-.33.36-.05.1.13.38.21.46l2.35,2.56c1.9,2.06,5.54,7,5.31,9.73"/>
          <path class="cls-5" d="M1465.31,234.33l-1.03.83c.34.21.6.39.71.56.21.31-.57,1.73.25,1.97.34.1.95-.05,1.32-.15l.29.74c-.38.63-1.05.99-1.85.84l-.94.99c.46.31.85.3,1.41.28l1.34-.06.76-.64.8.89-1.34.43c0,.28.14.92.23,1.22.81-.08,1.46-.08,2.06.04.1.39.25.78.43.92.16.12.62.15.87.19.12.02.29.37.41.34l.53-.15,1.68,1.2-1.21.56-.53,1.36-1.44-.51c-.02.33.04.89.19,1.26l.34.84c.03.11-.11.38-.23.38h-.49c-.15-.02-.51.07-.63.17-.11.09.03.4.07.58l.27,1.1c.16.06.5-.29.6-.54l.52-.46c.13-.11.07-.57.07-.81.62.02,1.15.23,1.67.57l.74-.56.68.94c.13.18.14.67.34.74.17.07.75.09.88-.04.26-.25.36-.91.46-1.48.76.47.58,1.4.29,2.11l-.49,1.2,1.07.51c.73.35.55,1.21,1.77,1.39.16-.51.18-.89.12-1.47l1.13-.21c.27-.05.68-.26.72-.49.05-.27-.09-.85-.22-.91-.39.15-.75.3-.99.25-.22-.04-.41-.55-.41-.77,0-.67,1.21-.58,1.53-1.76.27.03.59.05.73-.04.14-.09.24-.44.26-.65l2.03,1-.37.6c-.08.15.2.57.37.6.36.06.73-.52.67-.87l4.13,2.11c-.28.08-.6.29-.82.52l-.55.56.5,1.41,1.51-.48.49.3.56-.89c.27.42.36.66.54.74.57.26,1.47-.18,1.39.16l-.12.53.77-.44.25.11c.04.19.06.44-.03.57-.07.11-.43.18-.57.2l-.46.07c-.06,0,.08.19.11.2.66.21,1.09.17,1.65-.14l1.17.24.26.16-1.4.7c-.36.17-1.01.13-1.38.09-.2.43-.66.61-.97.84l-.57.4c-.11.08-1.02-.18-1.25-.88l-.69.18-1.58-.74.19-1.2c-.43-.09-.77-.21-1.2-.37-.58.27.12,1.12-.3,1.46-.44.35-.94-.47-1.51-.26-.22.08-.57.43-.57.65v1.18s1.07.04,1.07.04c-.01.09.04-.27.05-.38.01-.1-.14-.14-.36-.23-.06-.08-.2-.45-.2-.56,1.22-.18,1.52.91,2.46,1.15.12-.63.26-.88.62-.92.26-.03.68.32.67.57l-.76.92-.67-.1c.03.52,0,.72-.08,1.24.23.15.77-.36.83-.68.04-.1.43.03.39.14l-.14.49c-.06.2.21.54.41.73.16.15.61.15.87.09l1.06-.28.93-.34c.58.2,1.12.56,1.86.29l-.67-.58c0-.13.18-.66.41-.71l1.12-.24c-.46-.33-.94-.97-.73-1.39.08-.15.46.12.55.24l.85.25c.29.51.4.61.89,1.06l-1.16.26v.66c0,.24-.98.45-.81.64l.31.37.64.46c.45-.46.9-.84,1.34-1.03.82.27,1.58.58,2.39.48.49-.06,1.17-.41,1.56.11.22.3.3.98.32,1.36l.81.77-.04-.67c0-.1.3-.29.39-.28.26.17.63.66.81.96.86.45,1.87.09,2.62-.47l.16.17c-.45.94-.77,2.51-.69,2.58l.51.46c.14.13.38.31.51.32.14.01.37-.13.58-.22.8-.35.57-1.29,1.09-1.12.18.06.48.35.55.54.14.34-1.22.59-1.29,1.46-.02.27.25.78.43,1.11-.39.72-1.33.51-2.05.28l-.5-.16c-.16-.05.36-1.16-.06-1.21l-.7-.1c.57,1.04.19,1.53.47,2.04.24.42,1.09,0,1.2.86l-.93.32-.81-1.08-1.18.07-.24,1.5-1.4-.52.03-.22c.03-.11.64.04.8-.35.16-.39-.39-.84-.2-1.03l.43-.44c.18-.31-.25-1.22-.63-1.25l-1.23.04c-1.08,1.08.93,1.69.62,2.95l-.9-.37c-.39-.16-.9-.33-1.24-.32h-.33s.49-.33.49-.33l-.91-.61-.74,1.17c-.12.2-.19.63-.05.78.16.16.49.26.68.27l.25.13c-.15.65.47,1.28,1.2,1.35l.54.93,1.06-.03c.27,0,.69-.41.87-.6.05-.03.08-.06.11-.06l.22.6c.45.27,1.16.5,1.71.66.17.05.51.37.64.27l.46-.42.59.26c0,.11.02.15.07.16l.24.07.12-.08c.3.52.36,1.41.2,1.9-.03.1.2.41.26.33.41-.55.79-.66,1.46-.86.73.66,1.89.87,1.78,1.22l-.19.66.03.45-.27.33c-.19.23-.27.59-.45.7-.36.22-1.39-.15-1.52.12l-.22.46-.94.42-1.01-.35c.01-.18-.18-.57-.36-.56l-.67.19-9.94-3.61-1.19-.76.46-.46c.21-.34.49-.6.76-.83.57-.49-.08-1.17-.3-1.56l-.74-1.35-.94.04c-.16,0-.35.45-.29.59l.28.61c-.44.38-1.16.56-1.84.68l-.52,1.48c-.17-.08-.8-.12-.97.06-.15.15-.19.69-.19.85-.28-.02-.5.25-.41.53.06.17.37.4.54.41.19,0,.4-.32.36-.58l4.49,1.61,15.71,5.7c-.56.86-1.2.31-1.38,1.26-.07.35-.28.43-.72.5-.37.06-.72.78-.97,1.07l-.48.74c-6.04-1.61-12.07-3.38-17.94-5.62-.48-.18-.76-.24-1.33-.02-.55.21-1.15.9-1.15.97l-.04.55-.65.72c-.74.17-1.43.58-1.34,1.49l-1.03.87-2.13-.69c.18-.23.28-.72.09-.88-.24-.21-.35-.39-.32-.56.02-.12.29-.31.39-.24.1.08.31.29.38.41l.24.43c.04.08.29-.26.3-.34l.08-1.02c-.27-.11-.76-.06-1.1.01-.12-.22-.38-.75-.59-.71l-.95.18-1.04.06c-.08.7-.14,1.09-.36,1.55l-1.01-.41-.34-.43.94-.7-.21-1.4-.77,1.15c-.2-.6-.36-1.17-.65-1.55-.22-.29-1.19-.24-1.38.07l-.89,1.3-1.17-.63-1.43-.89,1.21-1.41c.09-.1.06-.5.17-.53l.46-.09c.34-.07.56-.57.51-.97l-1.2-.23-.32,1.36c-.25-.15-1.19-.09-1.18.23.02.55.02.92-.21,1.28-.53-.35-1.05-.75-1.44-1.22.33.07,1.04-.07,1.27-.33.1-.11-.03-.52-.16-.58s-.44-.08-.54.01l-.91.73-1.11-1.11c.4-.29.88-.89.63-1.38-.24-.46-1-.28-1.29.14l.1.67-1.2-1.62c.19-.67,1.51-.61,1.33-1.05-.06-.14-.35-.51-.48-.49l-.57.08-.48-.43-.66.48-.74-1.46.58-.96c.32-.6-.47-1.35-1.01-1.37l-.25.46c-.73-2.01-.23-4.03-1.45-3.69-.26.07-.5.47-.49.76l.04,1.22-.97.25.88,1.21c.09.13.34.37.52.36l.71,2.15-1.61.25-.16-.48c-.21-.63-.6.41-1.54.53.28,1.73-.59,2.33-.66,2.15l.2.55-3.01.78-.38-.67-.49.39c-.36.29.73.95-.22,1.85-.59.56-.45,1.53-.1,2.24l-2.59.3-.12.63c-.03.14-.45.15-.64.15-.12,0-.24.43-.14.49l.5.3c.22.13-.09.68-.19.93l-.47,1.15.15.83-1.29.14c.07-.33.15-.76.09-.94-.15-.48-1.37-.34-1.25-.94.04-.2.29-.35.58-.44.41-.13.53-.7.48-1.21l.99-.55c.23-.44.35-.63.9-.85l-.26-1.27c-.09-.42.07-.78.21-1.18.16-.44.22-.84.59-1.23.45.92.84,1.42,1.65,1.62l.67-.66-.62-1.06c-.15-.27.32-.85.61-1.05l-.22-1.37-.73-.45.84-.85c-.36-.49-.71-.87-.88-1.3-.51-1.31,1.35-1.5.38-2.43l-.31-.3c-.08-.08.33-.18.42-.25.44-.34.31-1.04.05-1.48l-.21-.35c-.06-.09-.25-.05-.42-.05l-.47-.02c-.53-.02.3-.89.06-1.18-.28-.32-.86-.71-1.35-.98l.03-1c-.17-.19-.4-.51-.4-.71,0-.22.43-.5.64-.57.68-.22,1.1-.17,1.55.32.87-.02,1.18-.63,1.79-.81.33-.09.53.72.85.68.43-.06.35-.97.99-1.16l.32.64c.07.14.43.04.72-.08l.3.27c0,.27.04.48.15.51.14.03.47-.12.55-.26.25-.44.95-.38,1.35-.09.32-.86,1.14-.3,1.1-.9-.03-.57-.77.06-.9-.84-.03-.2-.58-.27-.79-.21-.2.05-.32.28-.57.68l-.5-.85c-.31-.53-.47-.81-1.03-1.26l.53-.64c.25-.3.51-.6.54-.88.05-.36-.16-.84-.43-.95l-1.46-.58-.12.52-.56.89-.67-.35c-.54-.29-.55-.57-.7-1.06l-.5-1.63.52-.4c-.26-.42-.93-.83-1.41-.44-.33.26-.46.96-.58,1.46-.79-.04-2.17-.89-2.24-1.21l-.11-.47c-.02-.11-.32.08-.42.12l-.38.16c-.1.04-.01-.39-.01-.51,0-.39-.92-.29-.97,0,.23.31.44.63.4.88-.11.61-1.5.81-.91.92l.32.06c.18.03.48.26.63.46l-.85.53c-.69-1.29-2.18-1.6-1.63-2.65.21-.4,1.18-.44,1.49-.73l1.19-1.13c.32-.3.67-.46.95-.36.56.21.66.52.61,1.06,0,.09.05.36.13.36l.38.03c.29.02,1.09,0,1.14-.28l.24-1.36c-.14.03-.41.15-.53.25l-.41.33c-.11.09-.4-.29-.43-.43l-.36-1.22,1.35-.91.46,1.55,1.08.43.75-.38.19.8c.1.03.4-.36.4-.53,0-.17-.35-.37-.46-.51-.26-.32-.52-.72-.87-.87l-1.18-.52c1.4-1.09,3.25-.47,3.27-1.55.02-1.16-1.54-.6-3.13-1.78l-2.07-1.53c-1.66-1.23-2.63,1.68-5.71,2.09-.38.05-1.02.15-1.13.45l-.62-.15c-.17-.05-.34.49-.18.57.16.09.49.13.63.06l.52.88c.35-.15.87-.23,1.13-.09l1.46.77-.52.94c-.56.13-1.08.44-1.3.92l.13.11c.24.02.82.22.97.45.37.51-.86,1.28-1.1,1.22-.25-.07-.51-.54-.36-.7.28-.3.4-.57.45-.86l-.17-.11-.57-.36c-.1-.06-.4-.1-.5-.04-.07.05-.15.29-.14.39l.04,1.05-1.38.13-.2-.7c-.14-.1-.65.05-.66.25l-.06.73c-.05.61-.02,1.12.26,1.67l-.53.78c-.37-.3-.66-.36-1.11-.19-.1.04-.33.3-.24.36l.31.21.41.27c.21.14-.35.77-.29.82l.28.26.62.75-.44,1.06c-.1.26-.88.3-1.05.08-.31-.41.04-.79.39-1.14.05-.68-1.05-.11-1.16-2.01-.23-.11-.68.09-.85.32l-.83,1.13.1.08.49.12c.11.03-.08.35-.17.42-.09.07-.42.1-.42-.02l.03-.43-.14-.19-1.74.93c.27.34.44,1.02.12,1.13-.36.13-1.04.08-1.29,0-.18-.41-.32-.69-.61-.88-.21-.14-.69.08-.97.22l-1.24-.22.27-.98c.31-1.12-.96-2.41-1.13-3.94l.39-.77-.37.17c-.05.03-.13.01-.18-.05l-.04-2.4.14-.49c.14-1.28.56-2.54,1.27-3.6l.59.53.98-1.45c.02-.15,0-.39-.13-.39l-.52-.04.66-3.58.83-3.48c1.23-5.16,4.74-8.43,9.71-10.06,4.33-1.42,8.84-1.52,13.21-.18,2.48.76,4.71,2.02,6.51,3.88,1.66,1.71,2.66,3.8,3.49,5.93M1440.16,241.72c.67-1.44.3-3.28-.8-4.34-1.19-1.14-3.08-.9-3.88.44-.68,1.15-.95,2.44-.52,3.66.41,1.14,1.39,1.88,2.5,1.92,1.12.05,2.16-.52,2.7-1.68M1461.82,238.51c.15.09.65.12.69-.04l.2-.8c.05-.19-.55-.32-.76-.26-.21.06-.39.35-.53.6-.84-1.06-2.43-1.14-3.52-.34-1.56,1.13-2.15,4.25-.01,5.81.69.51,1.7.54,2.59.18.64-.26,1.22-.96,1.54-1.75.47-1.13.22-2.27-.2-3.4M1432.19,242.05h.72v-.29h-.72v.29ZM1466.67,242.22l-.28.54.28.14.28-.54-.28-.14ZM1435.55,243.5c-.17-.18-.47-.3-.69-.33-.19-.02-.48.43-.32.54.22.16.81,0,1.01-.21M1430.78,246.78l.55-.99.42-.91-1.81.57c.3.6.53.98.84,1.34M1465.69,246.63c.13.07.29-.33.21-.46-.06-.1-.31-.25-.42-.22-.11.03-.25.41-.15.47l.36.21ZM1462.43,254.14c.34,0,.53-.69.47-1.05l.48-.22s-.09-1.06.15-.84l.26.24,1.1.83c-.06.53-.04.87.02,1.5-.81-1.14-2.29-.14-2.27-.1l.24.52c.2.44.64,1.04,1.01,1.18.35-.44.61-.66.97-.48.15.07.56.22.62.09.23-.51-.03-1.03.25-1.43.35-.5,1.37.33,1.74-1.09l.43-1.65c-.47-.58-2.07-.2-2.23-1.18l-.14-.86c-.05-.3.22-.71.49-.89l.38-.27c.12-.08.67.33.8.21l.35-.32.9-.5c-.27-.51-.89-.88-1.33-.84-.16.1-.56.47-.7.36l-.63-.47-.55,1.78-.6,1-.46-.62c-.07-.1-.48.02-.57.1l-.8.65c.23.52.32.86.09,1.16-.27.36-.68.5-1.11.36-.99-.33-.77.5-1.61.59,1.1,1.2-.53,2.04.07,3.07-.18.14-.47.37-.45.54l.11.68c-.06.37-.04.87.2,1.19l.45.58c.1.13.59.11.67-.04.09-.16.4-.43.47-.32l.27.47c.13.22.55.58.56.82.02.28-.12.58-.3,1.15.38,0,.87-.07,1.25-.18l-.36-1.16c-.09-.3.31-.87.52-1.12l.06-1.11-1.34-.06c-.12-.15-.31-.38-.42-.33l-.46.21c-.17.08-.61.05-.76-.05-.15-.1-.2-.52-.07-.63.2-.16.48-.41.58-.57.08-.14-.12-.47-.21-.68-.1-.24.12-.75.15-1.08l.03-.49c0-.1.33-.17.4-.09l.3.32.51,1.12ZM1485.5,250.61c0-.14-.11-.25-.25-.25s-.26.11-.26.25.11.25.26.25.25-.11.25-.25M1469.37,250.69c0-.09-.07-.16-.16-.16s-.16.07-.16.16.07.16.16.16.16-.07.16-.16M1433.52,254.87l.13-.63c.03-.13-.43-.08-.65,0l.52.63ZM1488.76,254.77c.05-.07.04-.39-.02-.36l-.29.1-.35.4c-.07.08.31.34.37.26l.29-.4ZM1465.45,257.99c.12-.41.2-.67.09-.71l-.46-.18c-.11-.04-.26.39-.16.47l.54.43ZM1459.01,257.79c-.09.08-.2.35-.18.47.02.12.46.2.51.08.05-.11.07-.35.09-.51,0-.09-.35-.1-.42-.04M1466.28,259.1c-.1-.53-.14-.81-.25-.94s-.64-.14-.74.01c-.14.21-.09.77,0,1.03l1-.1ZM1467.68,258.48l.13.31s.23-.05.21-.1l-.07-.3s-.29.04-.28.09M1468.03,259.23l-.97-.17c-.05.09-.04.65.12.66l.75.06c.11,0,.42-.13.41-.24,0-.11-.19-.29-.31-.32M1460.75,260.17c.14.13.59-.3.55-.49-.04-.18-.31-.34-.68-.48-.11.23-.1.75.14.96M1457.78,268.59c.2-.03.5-.44.48-.58-.89-.26-1.55-.67-1.72-1.66l-1.2-.07c-.24-.06-.65-.62-.73-.83.37-.47.48-.68.65-1.18l.89-.12.2-1.64c-.28.08-.61.13-.61,0v-.49s-.02-.33-.02-.33c0-.08-.29.07-.32.14l-.34.96c-.19.53-1.21.5-1.41,0-.04-.11.03-.55-.08-.59l-.5-.16c-.15-.55-.58-1-1.14-1.21l.17,2c.33-.2.59-.33.88-.38-.26.54-.53,1.08-.44,1.49,1.45.79.61,1.4,1.01,2.52l1.04-.24c.21.22.42.84.36,1.23-.11.66-1.21.73-1.23,1.32-.01.41,1.19.14,1.17,1.99,0,.24.62.49.75.29l.87-1.23c.34-.48.53-1.12,1.27-1.24M1473.51,262l-.63-.9c-.1-.14-.53.24-.65.36l-.42.28c-.07.05-.02.35,0,.51l1.7-.25ZM1485.59,261.27h-1.07c-.18.01-.26.58-.15.72.09.12.47.11.62.06l.53-.17c.11-.04.1-.41.07-.61M1466.04,264.76c-.08-.69-.53-1.38-.89-1.55l-.94.61c-.24.22.16.85.46.99.4.18,1.05.24,1.37-.06M1502.71,264.75c.4-.38-.01-.9-.41-1.2-.31-.23-.89-.52-1.11-.29l-.83.93c-.13.33.68.92,1.05.72.44-.24.9-.25,1.29-.17M1464.14,266.85l.18-.92c-.25-.24-.93-.63-1.23-.5l-.87.37.32.97,1.6.08ZM1474.2,267.04c.62.13.94-.13,1.08-.48.09-.22-.22-.71-.48-.92-.56.26-.83.91-.6,1.41M1501.37,266.95c.01.08.48.02.47-.09l-.02-.44c0-.11-.31-.14-.45-.13v.66ZM1472.71,268.87l-.59-1.18-.33,1c-.49-.05-.94.42-.76.68.68.36,1.42.17,1.68-.5M1493.87,268.98c.15-.04.13-.44.06-.58-.07-.13-.51-.24-.51-.09v.58c0,.09.35.11.45.09M1478.27,269.25c0-.18-.15-.33-.33-.33s-.33.15-.33.33.15.33.33.33.33-.15.33-.33M1479.53,270.9v-.48c0-.28-.07-.66-.26-.78-.24-.15-.77-.06-.79.17-.03.38-.13.84-.26,1.11-.07.14.16.49.32.49.39,0,.99-.5.99-.53M1454.88,272.49c-.06-.52-.13-1.13-.31-1.53-.1-.22-.81-.31-.96-.12-.19.25-.45.65-.31.87.33.52.79.98,1.57.79M1469.2,271.18l-1.1-.07-.2.95c.36.04.62.04.91-.1.24-.11.44-.55.39-.79M1495.43,271.35c-.09.02.11.28.19.24l.23-.09c.05-.02-.03-.24-.08-.23l-.34.07ZM1482.84,273.6c.11-.28-.22-.98-.49-.99-.18.09-.59.34-.64.19l-.21-.62c-.04-.13-.35-.2-.5-.26l-.46-.19c-.1-.04-.25.27-.23.38.08.43.77.54.73.74l-.14.64c-.03.15,0,.52.11.62.09.08.41.05.53,0l1.31-.52ZM1470.46,273.57c.1-.06.3-.29.41-.27l.62.11c-.05-.4-.22-1.06-.51-1.3-.37-.3-1.01-.36-1.56-.25l-.22,1.16c-.03.18-.39.56-.25.68l.49.45,1.01-.58ZM1498.23,273.22c.66-.07.85-.71.57-1.19-.18.03-.55.24-.59.43-.04.17,0,.63.02.76M1467.89,273.58c-.13-.86-.73-1.05-1.45-1.13-.05.18-.11.56-.11.75,0,.17.4.43.58.42l.99-.04ZM1494.71,273.75c0-.3-.13-.74-.28-.73-.21.01-.6.18-.6.35,0,.21.11.52.26.6.19.1.62-.01.61-.22M1478.64,277.95l.16.95,1.29.7-.08,1.05c.65-.13,1.04-.23,1.35-.44l-.58-.3c-.24-.12.33-.96-.13-1.3-.46-.34-1.56.15-1.56-.47,0-.18.16-.47.35-.75l-.54-.99,1.05-.88-.62-1.44c-.58.38-.66.75-.65,1.43l-.72.09c-.11.01-.43-.07-.48-.17-.04-.1-.06-.35-.04-.46l.05-.41c.01-.08-.28-.06-.37-.06h-.8c-.21.18-.34.7-.33,1.14l-.75.55c-.11.08-.13.4-.08.52.14.35.87-.96,1.54-.4.06.79.38,1.14,1.06,1.36l.84.27ZM1471.05,279.15l-.22-.36s-.22.02-.22.08c0,.11.02.37.1.35.05-.01.33-.07.34-.07"/>
          <path class="cls-2" d="M1496.71,283.92c0,.16.1.37.22.35l.44-.05s.04-.02.1-.05l.46,1.35-.69-.11.09,1.29c.09,1.24,1.27.65,1.96,1.42.05.06.2.1.28.12.58.1,1.28.16,1.94-.05l-.3-.93c.03-.36-.07-1.01-.28-1.26-.09-.11-.54-.21-.61-.09l-.24.44-1.12.33-.46-.92c-.11-.23-.26-.84-.03-.93l.48-.25,1.66.47v.28c0,.06.19.13.22.08l.14-.25,2.99.77c5.17,1.33,10.22,2.7,15.51,3.5.93.14,1.8.72,1.5,1.79-.48.2-1.23.4-1.78.34l-8.04-.88c-5.24-.8-10.35-1.8-15.43-3.03l.32-.54-1.01-.74c-.09-.07-.39-.11-.48-.05-.09.06-.1.32-.04.41l.29.69-4.25-1.09.07-.12c.26-.02.54-.04.71-.11.24-.09.34-.58.36-.81l.13-1.35c.6.47,1.32.22,1.83.74.2.2.27.82.32,1.12l.89-.03c.06-.03.23-.44.15-.56l-.37-.49c.03-.36.05-.82-.07-1.23.44,0,.92.04,1.37.19l.78.25Z"/>
          <path class="cls-2" d="M1500.99,269.53l.24-1.5,1.18-.07.81,1.08.94-.32c-.11-.86-.97-.44-1.2-.86-.28-.51.1-.99-.47-2.04l.71.1c.42.06-.1,1.16.06,1.21l.5.16c.73.24,1.66.44,2.05-.27-.18-.33-.46-.84-.43-1.11.07-.87,1.43-1.12,1.29-1.46-.08-.19-.38-.48-.55-.54-.52-.17-.28.77-1.09,1.12-.21.09-.44.23-.58.22s-.37-.19-.51-.32l-.51-.46c-.08-.07.24-1.64.69-2.58l2.12,1.73c2.9,2.37,5.44,5.07,7.51,8.21.85,1.3,1.64,2.47,2.04,4.05-.8-.05-1.29-.4-1.92-.71-4.22-2.11-8.48-4.02-12.85-5.65"/>
          <path class="cls-2" d="M1504.65,278.27l.94-.42.22-.46c.13-.28,1.16.1,1.52-.12.18-.11.26-.47.45-.7l.27-.33-.03-.45.19-.66c.1-.35-1.05-.56-1.78-1.22-.67.2-1.05.3-1.46.86-.06.08-.3-.23-.26-.33.15-.49.09-1.38-.2-1.9l6.99,3.12,4.69,2.29,1.68,2.17c.61.79,1.18,2.3.68,2.74-.14.12-.6.18-.8.11l-2.39-.78-10.7-3.9Z"/>
          <path class="cls-2" d="M1504.32,284.54l.48-.74c.25-.29.6-1.01.97-1.07.44-.07.65-.15.72-.5.19-.95.82-.41,1.38-1.26l.82.26,8.65,3.14.73.13,1.85,2.5c.11.15.11.55.01.69-.1.14-.54.27-.76.23-5.09-.78-9.96-2.09-14.85-3.39"/>
          <path class="cls-2" d="M1494.57,255.27l3.69,2.36,5.69,4.11c-.76.56-1.76.92-2.62.47-.18-.3-.55-.79-.81-.96-.09,0-.4.19-.39.28l.04.67-.81-.77c-.02-.38-.09-1.06-.32-1.36-.39-.53-1.08-.18-1.56-.12-.82.11-1.57-.2-2.39-.48-.44.2-.89.58-1.34,1.04l-.64-.46-.31-.37c-.16-.19.81-.41.81-.65v-.66s1.17-.26,1.17-.26c-.49-.45-.59-.55-.89-1.06l-.85-.25c-.08-.12-.47-.38-.55-.24-.21.42.27,1.06.72,1.39l-1.11.24c-.23.05-.4.58-.41.71l.66.58c-.74.28-1.27-.08-1.86-.29l-.93.34-1.06.28c-.25.07-.71.06-.87-.09-.21-.19-.47-.52-.41-.73l.14-.49c.03-.12-.36-.25-.39-.14-.06.32-.6.83-.83.68.09-.52.12-.72.08-1.24l.67.1.76-.92c0-.25-.41-.61-.67-.57-.36.04-.49.29-.62.92-.94-.24-1.23-1.33-2.46-1.15,0,.11.13.48.2.56.22.09.37.13.36.23-.02.11-.07.47-.05.38l-1.08-.04v-1.18c.01-.22.36-.57.58-.65.56-.2,1.07.61,1.51.26.43-.34-.28-1.19.3-1.46.43.16.77.28,1.2.37l-.19,1.2,1.58.74.69-.19c.23.7,1.14.95,1.25.88l.57-.4c.32-.23.77-.4.97-.84.36.04,1.02.08,1.38-.09l1.4-.7ZM1496.18,259.01l.06-.84c.41-.34.5-.68.43-1.15-.06-.39-.51-.56-.91-.61,0,.67-.15.91-.73,1.38l1.16,1.22Z"/>
          <path class="cls-2" d="M1473.54,244.87c.06.19.11.36.04.44l-.32.42c-.03.73,1.45.79,1.44,1.01-.04.46-.92.77-.75,1.77.02.13.26.46.38.43.12-.03.43-.15.42-.24l-.04-.59.74-1.16,1.1.5.33-1.31,4.18,1.88c-.02.22-.13.57-.26.65-.14.09-.46.07-.73.04-.32,1.18-1.52,1.09-1.53,1.76,0,.23.19.73.41.77.24.05.6-.11.99-.25.13.06.27.63.22.91-.04.22-.44.44-.72.49l-1.13.21c.06.58.03.97-.12,1.47-1.22-.18-1.04-1.04-1.77-1.39l-1.07-.51.49-1.2c.29-.71.47-1.64-.29-2.11-.1.58-.2,1.23-.46,1.48-.13.13-.7.1-.88.04-.2-.07-.21-.57-.34-.75l-.68-.94-.74.56c-.51-.34-1.04-.55-1.67-.57,0,.25.06.7-.07.81l-.52.46c-.1.25-.44.61-.6.54l-.27-1.1c-.04-.18-.19-.49-.07-.58.11-.09.48-.18.63-.18h.49c.12.01.26-.26.23-.36l-.34-.84c-.15-.37-.21-.93-.19-1.26l1.44.51.53-1.36,1.21-.56.28.11ZM1478.14,248.13c-.24-.32-1.08-.44-1.25.01-.07.2.42.5.63.51.22.01.67-.31.62-.52M1477.73,251.72l-.45-.29c-.12-.07-.39.12-.46.24-.05.1.07.5.17.51.19.02.49-.19.73-.46"/>
          <path class="cls-5" d="M1488.56,281.26l-.43.49v1.13s1.03.29,1.03.29c.72.2,1.39.23,2.09-.05l.2-.87,1.86.64c.38.13,1.13.24,1.24.6.12.41.11.87.07,1.23l.37.49c.09.11-.09.53-.15.56l-.89.04c-.05-.31-.12-.92-.32-1.12-.51-.52-1.22-.27-1.83-.74l-.13,1.35c-.02.24-.12.72-.36.81-.17.07-.45.09-.71.11l-.07.12-1.93-.54c-.12-.62-.11-1.11.07-1.65-.32-.04-.9-.19-1.15-.12l-1.01.3c-.27.08-.58.39-.63.71l-2.61-.77c.28-1.15-.84-1.19-.7-1.67.16-.54,1.12.04,1.67-.72l.59-.33.33-1.5,3.38,1.21Z"/>
          <path class="cls-2" d="M1476.47,283.62h-.93s-3.17.56-3.17.56c-.32.06-.99.64-1.21.33l-.84-1.22-.79-.31-.78-1.55c-.17-.33-.32-.63-.6-.86-.43-.35-.77-.46-1.28-.11l-.82-.49c-.03-.56-.2-.77-.5-1.1l-.81-.89.16-.92c.68.69,1.43,1.34,2.29,1.89l2.28,1.48c2.27,1.27,4.61,2.33,7,3.21"/>
          <path class="cls-2" d="M1492.67,273.94l-4.34-1.55.52-1.48c.68-.12,1.4-.31,1.84-.69l-.28-.61c-.06-.14.13-.59.29-.59l.94-.04.74,1.35c.22.4.87,1.07.3,1.56-.26.23-.55.49-.75.83l-.46.46,1.19.76ZM1491.97,271.75c-.02-.16-.13-.48-.25-.47l-.6.03.07.68.77-.24Z"/>
          <path class="cls-5" d="M1498.95,284.58l-.48.25c-.23.1-.09.7.03.93l.46.92,1.12-.33.24-.44c.07-.12.51-.03.61.09.21.25.31.9.28,1.26l.3.94c-.66.21-1.36.15-1.94.05l-.28-.12c-.7-.77-1.87-.19-1.96-1.42l-.09-1.29.69.11-.46-1.35,1.48.42Z"/>
          <path class="cls-2" d="M1485.05,278.91c-.1.35.03.84.13,1.14l-.33,1.5-.59.33c-.55.77-1.51.19-1.67.72-.14.47.98.52.7,1.67l-2.44-.77,1.03-.87c-.1-.91.59-1.32,1.34-1.49l.65-.72.04-.55c0-.07.6-.76,1.15-.97"/>
          <path class="cls-2" d="M1487.9,251.46l4.28,2.4-.77.44.12-.53c.08-.34-.82.1-1.39-.16-.18-.08-.28-.32-.54-.74l-.56.89-.49-.3-1.51.48-.5-1.41.55-.56c.22-.23.54-.44.82-.52"/>
          <path class="cls-2" d="M1474.8,281.31l-3.31-1.56.89-1.3c.19-.31,1.16-.36,1.38-.07.29.38.45.95.65,1.55l.77-1.15.21,1.41-.94.7.34.42Z"/>
          <path class="cls-2" d="M1478.72,282.82l-1-.4.43-1.32c.03-.08.08-.26.09-.34.01-.08-.26-.18-.31-.11l-.17.22c-.35.46-.91.45-.88.77l.09.52-1.16-.44c.22-.46.29-.85.36-1.55l1.04-.06.95-.18c.21-.04.47.48.59.71.34-.07.82-.12,1.1-.01l-.08,1.02c0,.09-.26.42-.3.34l-.24-.43c-.06-.12-.27-.34-.38-.41-.1-.07-.37.11-.39.24-.03.17.08.35.32.56.19.16.09.65-.09.88"/>
          <path class="cls-5" d="M1474.41,245.15l-.17.65.91.62.4-.84,1.34.55-.33,1.31-1.1-.5-.74,1.16.04.59c0,.09-.3.21-.42.24-.12.03-.36-.3-.38-.43-.17-1,.71-1.31.75-1.77.02-.22-1.47-.29-1.44-1.01l.32-.42c.07-.09.01-.26-.04-.45l.87.29Z"/>
          <path class="cls-2" d="M1499.6,269.01l-2.32-1c.34,0,.85.16,1.24.32l.9.37c.31-1.25-1.7-1.87-.62-2.95l1.23-.04c.38.03.81.95.63,1.25l-.43.44c-.19.19.36.64.2,1.03-.16.39-.78.24-.8.35l-.03.22Z"/>
          <path class="cls-2" d="M1491.45,282.25l-.2.87c-.7.28-1.37.25-2.09.05l-1.04-.29v-1.13s.44-.49.44-.49l2.89.99Z"/>
          <path class="cls-2" d="M1500.35,271.07c-.18.19-.6.59-.87.6l-1.06.03-.54-.93c-.74-.07-1.35-.7-1.2-1.35l2.86,1.06c.33.12.68.35.81.59"/>
          <path class="cls-2" d="M1468.88,278.22l-.56-.37c.22-.36.22-.73.21-1.28,0-.32.93-.38,1.18-.23l.32-1.36,1.2.23c.04.4-.18.9-.52.97l-.46.09c-.11.02-.08.43-.17.53l-1.21,1.41Z"/>
          <path class="cls-2" d="M1488.61,285.8l-2.72-.75c.05-.32.36-.63.63-.71l1.01-.3c.25-.07.83.08,1.15.12-.18.55-.19,1.03-.07,1.65"/>
          <path class="cls-2" d="M1463.68,273.17l-.86-1.42.66-.48.48.43.57-.08c.13-.02.42.35.48.5.17.44-1.14.38-1.33,1.05"/>
          <path class="cls-2" d="M1503.49,272.12l-.46.42c-.13.1-.48-.22-.64-.27-.55-.16-1.26-.4-1.71-.66l-.21-.6c.11-.01.4,0,.5.03l2.52,1.07Z"/>
          <path class="cls-2" d="M1462.08,270.29l-.68-1.87.25-.46c.54.01,1.32.77,1.01,1.37l-.58.96Z"/>
          <path class="cls-2" d="M1496.94,268.02c-.17.12-.44.31-.53.48-.09.17-.02.61.01.8-.19,0-.53-.1-.68-.27-.15-.15-.08-.59.05-.78l.74-1.17.91.61-.49.34Z"/>
          <path class="cls-2" d="M1465.44,275.36l-.55-.57-.1-.67c.29-.42,1.05-.6,1.29-.14.25.49-.23,1.09-.63,1.38"/>
          <path class="cls-2" d="M1494.31,255.11l-1.17-.24c-.57.31-1,.36-1.65.14-.03-.01-.17-.19-.11-.2l.46-.07c.14-.02.5-.09.57-.2.08-.14.07-.38.03-.58l1.89,1.15Z"/>
          <path class="cls-5" d="M1495.71,287.65l-.92-.22-.29-.69c-.05-.09-.05-.35.04-.41.09-.06.39-.02.48.05l1.01.74-.32.54Z"/>
          <path class="cls-5" d="M1477.72,282.42l-.32-.11c-.04-.24-.03-.28-.14-.04l-.28-.11-.09-.51c-.03-.32.53-.31.88-.77l.17-.22c.05-.07.32.03.31.11-.01.08-.06.26-.09.34l-.43,1.32Z"/>
          <path class="cls-2" d="M1459.92,268.53c-.17,0-.43-.24-.52-.36l-.88-1.21.97-.25.42,1.82Z"/>
          <path class="cls-2" d="M1466.89,276.64c-.08-.02-.28-.1-.34-.16l.91-.73c.1-.09.42-.08.54-.01s.26.47.16.58c-.23.26-.94.4-1.27.33"/>
          <polygon class="cls-2" points="1475.55 245.58 1475.14 246.42 1474.24 245.8 1474.41 245.15 1475.55 245.58"/>
          <path class="cls-2" d="M1483.77,249.35c.06.35-.31.93-.67.87-.17-.03-.45-.45-.37-.6l.37-.6.67.33Z"/>
          <path class="cls-2" d="M1487.17,273.3l.49.36c.04.26-.17.58-.36.58-.17,0-.48-.24-.54-.41-.09-.28.13-.55.41-.53"/>
          <path class="cls-2" d="M1503.64,277.92l-1.03-.37.67-.19c.18-.01.38.37.36.56"/>
          <path class="cls-5" d="M1497.37,284.22l-.44.05c-.12.01-.22-.19-.22-.35l.66.3Z"/>
          <path class="cls-5" d="M1500.96,285.16l-.14.25c-.03.05-.21-.02-.21-.08v-.28s.35.11.35.11Z"/>
          <path class="cls-2" d="M1504.39,272.61l-.24-.07s-.06-.05-.07-.16l.31.23Z"/>
          <path class="cls-2" d="M1477.4,282.31l-.14-.04c.1-.23.1-.19.14.04"/>
          <path class="cls-3" d="M1461.41,238.01l.4.51c.43,1.12.67,2.27.2,3.4-.33.79-.9,1.49-1.54,1.75-.9.36-1.9.33-2.6-.18-2.13-1.56-1.55-4.68.01-5.81,1.1-.79,2.68-.71,3.52.34M1460.6,239.51c0-.4-.32-.72-.72-.72s-.72.32-.72.72.32.72.72.72.72-.32.72-.72"/>
          <path class="cls-2" d="M1478.64,277.95l-.84-.27c-.68-.22-1-.57-1.06-1.36-.67-.56-1.4.75-1.54.4-.05-.12-.03-.44.08-.52l.75-.55c-.01-.44.12-.96.33-1.14h.8c.09,0,.38-.02.37.06l-.05.41c-.01.11,0,.35.04.46.04.1.36.19.48.17l.72-.09c-.01-.68.06-1.05.65-1.43l.62,1.44-1.05.88.54.99c-.19.27-.35.57-.35.75,0,.61,1.1.13,1.56.46.46.34-.11,1.17.13,1.3l.58.3c-.32.21-.71.31-1.35.44l.08-1.05-1.29-.7-.16-.95Z"/>
          <path class="cls-2" d="M1470.46,273.57l-1.01.58-.49-.45c-.13-.12.22-.5.25-.68l.23-1.16c.55-.11,1.19-.05,1.56.25.29.24.46.89.51,1.3l-.62-.11c-.11-.02-.32.21-.41.27"/>
          <path class="cls-2" d="M1482.84,273.6l-1.31.52c-.12.05-.44.08-.53,0-.11-.1-.15-.47-.11-.62l.14-.64c.04-.2-.65-.31-.73-.74-.02-.11.13-.42.23-.38l.46.19c.16.06.46.13.51.26l.21.61c.05.15.47-.1.64-.19.27,0,.6.7.49.99"/>
          <path class="cls-2" d="M1502.71,264.75c-.4-.09-.85-.07-1.29.17-.37.2-1.19-.39-1.05-.72l.83-.93c.21-.24.8.05,1.11.29.39.3.81.83.41,1.2"/>
          <path class="cls-2" d="M1464.14,266.85l-1.6-.08-.32-.97.86-.37c.31-.13.98.26,1.23.5l-.18.92Z"/>
          <path class="cls-2" d="M1466.04,264.77c-.31.3-.96.24-1.37.06-.3-.14-.7-.77-.46-.99l.94-.61c.35.16.81.86.89,1.55"/>
          <path class="cls-2" d="M1479.52,270.9s-.61.53-.99.53c-.16,0-.39-.35-.32-.49.13-.28.23-.73.26-1.11.02-.23.56-.32.79-.17.19.12.27.5.27.78v.48Z"/>
          <path class="cls-2" d="M1472.71,268.88c-.25.67-.99.86-1.68.5-.19-.26.27-.74.76-.68l.33-1,.59,1.18Z"/>
          <path class="cls-2" d="M1467.89,273.58l-.99.04c-.18,0-.59-.24-.58-.42,0-.19.07-.57.12-.75.72.08,1.33.27,1.45,1.13"/>
          <path class="cls-2" d="M1474.2,267.04c-.23-.5.05-1.14.6-1.41.26.21.57.7.48.92-.14.35-.46.61-1.08.48"/>
          <path class="cls-2" d="M1473.51,262l-1.7.25c-.02-.16-.07-.46,0-.51l.42-.28c.12-.12.55-.5.65-.36l.63.9Z"/>
          <path class="cls-2" d="M1466.28,259.1l-1,.1c-.08-.26-.14-.83,0-1.03.1-.14.62-.14.74-.01.12.13.15.41.25.94"/>
          <path class="cls-2" d="M1469.2,271.18c.05.25-.16.69-.39.79-.29.13-.55.14-.91.1l.2-.95,1.1.06Z"/>
          <path class="cls-2" d="M1485.59,261.27c.03.2.04.57-.07.61l-.53.17c-.14.05-.52.06-.62-.06-.11-.14-.03-.71.15-.71h1.07Z"/>
          <path class="cls-2" d="M1494.71,273.75c0,.21-.42.32-.61.22-.15-.08-.26-.38-.26-.59,0-.16.39-.34.6-.35.15,0,.27.43.28.73"/>
          <path class="cls-2" d="M1468.03,259.23c.12.02.3.21.31.32,0,.11-.3.25-.41.24l-.75-.06c-.16-.01-.17-.57-.12-.66l.97.17Z"/>
          <path class="cls-2" d="M1498.23,273.22c-.03-.13-.06-.59-.02-.76.04-.19.41-.41.59-.43.28.48.1,1.12-.57,1.19"/>
          <path class="cls-2" d="M1493.87,268.98c-.1.03-.46,0-.46-.09v-.58c0-.15.44-.05.51.09.08.13.09.54-.06.58"/>
          <path class="cls-2" d="M1465.45,257.99l-.54-.43c-.09-.07.05-.51.17-.47l.46.18c.11.04.03.3-.09.71"/>
          <path class="cls-2" d="M1478.27,269.25c0,.18-.15.33-.33.33s-.33-.15-.33-.33.15-.33.33-.33.33.15.33.33"/>
          <path class="cls-2" d="M1501.37,266.95v-.66c.14-.02.45.02.46.13l.02.44c0,.11-.46.17-.47.09"/>
          <path class="cls-2" d="M1488.76,254.78l-.29.4c-.06.08-.43-.19-.37-.26l.35-.4.29-.1c.06-.02.07.29.02.36"/>
          <path class="cls-2" d="M1485.5,250.61c0,.14-.11.25-.25.25s-.25-.11-.25-.25.11-.25.25-.25.25.11.25.25"/>
          <path class="cls-2" d="M1471.05,279.15s-.28.06-.34.07c-.08.02-.09-.24-.1-.35,0-.06.19-.13.22-.08l.22.36Z"/>
          <path class="cls-2" d="M1467.68,258.48s.26-.14.28-.09l.07.3s-.19.14-.21.1l-.13-.31Z"/>
          <path class="cls-2" d="M1495.43,271.35l.34-.07c.06-.01.14.21.08.23l-.23.09c-.08.03-.28-.23-.19-.25"/>
          <path class="cls-3" d="M1499.29,288.12l.28.12c-.08-.01-.23-.06-.28-.12"/>
          <path class="cls-5" d="M1496.18,259.01l-1.16-1.22c.57-.47.72-.7.73-1.38.4.05.85.22.91.61.08.47-.01.81-.43,1.15l-.06.84Z"/>
          <path class="cls-5" d="M1478.14,248.13c.04.22-.4.53-.62.53-.21-.01-.7-.32-.63-.51.17-.45,1.01-.34,1.25-.01"/>
          <path class="cls-5" d="M1491.97,271.75l-.77.24-.07-.68.6-.03c.12,0,.24.31.25.47"/>
          <path class="cls-2" d="M1517.23,276.78c.22-2.73-3.42-7.67-5.31-9.73l-2.35-2.56c-.08-.09-.26-.36-.21-.46.05-.1.2-.24.33-.36l3.38-3.11,6.04-6.04,5.1-5.42,1.87-2.05,8.71-9.83,1.85-2.09c.79-.9,1.83-1.62,3.05-1.51.81.08,1,.67,1.09,1.3.08.55.84.48,1.22.28.64-.35,1.49-.64,2.17-.2.44.28.54,1.18.52,1.72-.08,1.67-.69,3.13-1.51,4.53l-1.11,1.9-2.08,3.3c-3.46,5.5-7.33,10.6-11.24,15.8l-5.32,7.08-3.01,4.48-2.45,3.67-.72-.69ZM1532.14,249.43l7.36-9.24c.13-.17.07-.62-.03-.78-.1-.16-.64-.31-.75-.17l-1.56,1.91-6.14,7.67c-.2.25-.06.76.17.87.25.12.7.04.95-.28M1525.77,262.08l7.4-8.77,4.66-5.87c.21-.27-.05-.87-.3-.93-.32-.07-.64.1-.83.35l-1.65,2.12-.56.74-9.7,11.6c-.22.26-.19.74.05.93.18.14.7.12.94-.16M1525.12,257.7l4.66-5.62c.15-.18-.03-.8-.24-.86-.25-.07-.61,0-.8.23l-3.53,4.26-1.23,1.49c-.15.18.13.82.36.83.19,0,.61-.1.79-.32"/>
          <path class="cls-3" d="M1525.77,262.08c-.24.28-.76.31-.94.17-.24-.19-.27-.67-.05-.93l9.7-11.6.56-.74,1.65-2.12c.19-.25.51-.42.84-.35.25.06.51.65.3.93l-4.66,5.87-7.4,8.77Z"/>
          <path class="cls-3" d="M1532.14,249.43c-.25.32-.7.4-.95.28-.23-.11-.37-.63-.17-.87l6.14-7.67,1.56-1.91c.12-.14.65,0,.75.17.1.16.16.61.03.78l-7.36,9.24Z"/>
          <path class="cls-3" d="M1525.12,257.7c-.18.22-.59.33-.79.32-.22-.01-.5-.65-.36-.83l1.23-1.49,3.53-4.26c.18-.22.55-.3.8-.23.21.06.39.68.24.86l-4.66,5.62Z"/>
          <path class="cls-5" d="M1477.73,251.72c-.24.26-.54.48-.73.46-.11-.01-.23-.41-.17-.51.07-.12.34-.31.46-.24l.45.29Z"/>
          <path class="cls-5" d="M1456.47,269.24c-.12.04-.56-.04-.82-.15-.21-.08-.28-.61-.14-.86.09-.15.55-.08.68.03.15.12.21.38.28.97"/>
        </g>
      </g>
    </g>
  </g>
</svg>