<?xml version="1.0" encoding="UTF-8"?>
<svg id="Layer_2" data-name="Layer 2" xmlns="http://www.w3.org/2000/svg" xmlns:xlink="http://www.w3.org/1999/xlink" viewBox="0 0 2363.46 512">
  <defs>
    <style>
      .cls-1 {
        fill: none;
      }

      .cls-2 {
        fill: url(#linear-gradient-5);
      }

      .cls-3 {
        fill: url(#linear-gradient-4);
      }

      .cls-4 {
        fill: url(#linear-gradient-3);
      }

      .cls-5 {
        fill: url(#linear-gradient-2);
      }

      .cls-6 {
        fill: url(#linear-gradient);
      }

      .cls-7 {
        clip-path: url(#clippath-1);
      }

      .cls-8 {
        clip-path: url(#clippath-3);
      }

      .cls-9 {
        clip-path: url(#clippath-4);
      }

      .cls-10 {
        clip-path: url(#clippath-2);
      }

      .cls-11 {
        clip-path: url(#clippath-6);
      }

      .cls-12 {
        clip-path: url(#clippath-5);
      }

      .cls-13 {
        fill: #1e1a14;
      }

      .cls-14 {
        clip-path: url(#clippath);
      }
    </style>
    <clipPath id="clippath">
      <rect class="cls-1" width="2363.46" height="512"/>
    </clipPath>
    <clipPath id="clippath-1">
      <path class="cls-1" d="M181.32,256c0,41.75,34.04,75.71,75.88,75.71s75.88-33.96,75.88-75.71-34.04-75.71-75.88-75.71-75.88,33.97-75.88,75.71"/>
    </clipPath>
    <linearGradient id="linear-gradient" x1="-4573.21" y1="-4549.14" x2="-4572.21" y2="-4549.14" gradientTransform="translate(690057.07 693629.46) rotate(90) scale(151.63 -151.63)" gradientUnits="userSpaceOnUse">
      <stop offset="0" stop-color="#f9d174"/>
      <stop offset=".34" stop-color="#f9d174"/>
      <stop offset=".95" stop-color="#ea9e39"/>
      <stop offset=".99" stop-color="#e99b35"/>
      <stop offset="1" stop-color="#e99b35"/>
    </linearGradient>
    <clipPath id="clippath-2">
      <path class="cls-1" d="M.61,256h0c0,141.4,114.87,256,256.56,256h.04v-83.59h-.04c-95.27,0-172.79-77.34-172.79-172.41H.61Z"/>
    </clipPath>
    <linearGradient id="linear-gradient-2" x1="-4597.14" y1="-4561.03" x2="-4596.14" y2="-4561.03" gradientTransform="translate(1534849.11 1547054.9) rotate(90) scale(336.49 -336.49)" gradientUnits="userSpaceOnUse">
      <stop offset="0" stop-color="#d4c3ad"/>
      <stop offset=".28" stop-color="#d1bfa8"/>
      <stop offset=".57" stop-color="#cab59c"/>
      <stop offset=".86" stop-color="#bea488"/>
      <stop offset="1" stop-color="#b79a7c"/>
    </linearGradient>
    <clipPath id="clippath-3">
      <path class="cls-1" d="M428.21,280.9h0,0ZM512,280.9h-83.78c-12.13,83.31-84.19,147.51-170.99,147.51h-.03v83.59h.03c131.39,0,239.71-98.56,254.77-225.62v-5.48h0Z"/>
    </clipPath>
    <linearGradient id="linear-gradient-3" x1="-4623.74" y1="-4578.71" x2="-4622.74" y2="-4578.71" gradientTransform="translate(1517153.47 -1501761.15) scale(328.07 -328.07)" gradientUnits="userSpaceOnUse">
      <stop offset="0" stop-color="#4d4658"/>
      <stop offset=".25" stop-color="#50495a"/>
      <stop offset=".45" stop-color="#5a5363"/>
      <stop offset=".64" stop-color="#6b6472"/>
      <stop offset=".81" stop-color="#827b87"/>
      <stop offset=".9" stop-color="#918a94"/>
      <stop offset="1" stop-color="#918a94"/>
    </linearGradient>
    <clipPath id="clippath-4">
      <path class="cls-1" d="M257.2,0h0v27.87s0,55.73,0,55.73h.03c86.8,0,158.86,64.2,170.99,147.51h83.78v-5.57C496.9,98.51,388.6,0,257.23,0h-.03Z"/>
    </clipPath>
    <linearGradient id="linear-gradient-4" x1="-4596.97" y1="-4563.25" x2="-4595.97" y2="-4563.25" gradientTransform="translate(-1496702.19 1508102.1) rotate(90) scale(328.07)" xlink:href="#linear-gradient"/>
    <clipPath id="clippath-5">
      <path class="cls-1" d="M257.16,0C115.47,0,.6,114.61.6,256h83.78c0-95.07,77.51-172.41,172.79-172.41h.03V0h-.03Z"/>
    </clipPath>
    <linearGradient id="linear-gradient-5" x1="-4618.28" y1="-4577.67" x2="-4617.28" y2="-4577.67" gradientTransform="translate(1675805.1 -1661065.59) scale(362.89 -362.89)" gradientUnits="userSpaceOnUse">
      <stop offset="0" stop-color="#4e485b"/>
      <stop offset=".02" stop-color="#544e60"/>
      <stop offset=".11" stop-color="#6a6372"/>
      <stop offset=".21" stop-color="#7b7480"/>
      <stop offset=".34" stop-color="#877f8a"/>
      <stop offset=".51" stop-color="#8e8690"/>
      <stop offset="1" stop-color="#908892"/>
    </linearGradient>
    <clipPath id="clippath-6">
      <rect class="cls-1" x="512" y="105.71" width="1851.46" height="378.09"/>
    </clipPath>
  </defs>
  <g id="SkillSpoke_Assets" data-name="SkillSpoke Assets">
    <g id="combomark_clear_onlight">
      <g class="cls-14">
        <g class="cls-7">
          <rect class="cls-6" x="153.63" y="152.49" width="207.13" height="207.01" transform="translate(-93.54 162.9) rotate(-30)"/>
        </g>
        <g class="cls-10">
          <rect class="cls-5" x="-51.95" y="203.12" width="361.71" height="361.76" transform="translate(-244.47 226.94) rotate(-48.63)"/>
        </g>
        <g class="cls-8">
          <rect class="cls-4" x="220.83" y="228.34" width="327.54" height="336.21" transform="translate(-151.04 531.3) rotate(-60)"/>
        </g>
        <g class="cls-9">
          <rect class="cls-3" x="216.48" y="-48.22" width="336.23" height="327.55" transform="translate(-6.25 207.78) rotate(-30)"/>
        </g>
        <g class="cls-12">
          <rect class="cls-2" x="-52.33" y="-53.23" width="362.46" height="362.46" transform="translate(-52.76 128.63) rotate(-45)"/>
        </g>
        <g class="cls-11">
          <path class="cls-13" d="M2350.47,246.22c-8.67-14.89-20.45-26.53-35.33-34.93-14.89-8.39-32.23-12.59-51.99-12.59s-38.04,4.47-54.01,13.4c-15.98,8.94-28.57,21.19-37.76,36.75-9.21,15.58-13.81,33.1-13.81,52.59s4.73,37.91,14.22,53.61c9.48,15.71,22.47,27.96,38.98,36.75,16.51,8.79,35.47,13.2,56.86,13.2,16.78,0,32.09-2.78,45.89-8.33,13.81-5.55,25.59-14.14,35.34-25.79l-34.52-34.12c-5.96,6.77-12.86,11.85-20.71,15.23-7.86,3.39-16.52,5.08-25.99,5.08-10.56,0-19.7-2.24-27.41-6.7-7.72-4.47-13.68-10.9-17.87-19.29-1.31-2.61-2.41-5.36-3.31-8.26l141.19-.68c1.35-4.87,2.23-9.27,2.64-13.2.41-3.92.61-7.78.61-11.57,0-19.22-4.33-36.28-13-51.17M2238.58,253.13c7.17-4.6,15.63-6.9,25.38-6.9,8.94,0,16.58,2.03,22.94,6.09,6.36,4.06,11.17,9.81,14.42,17.26,1.29,2.95,2.33,6.19,3.15,9.71l-85.49.49c.81-2.66,1.79-5.18,2.94-7.55,3.92-8.12,9.47-14.48,16.65-19.09"/>
          <polygon class="cls-13" points="2165.77 400.55 2089.61 295.96 2161.3 203.18 2091.86 203.18 2028.09 291.99 2028.09 105.71 1965.55 105.71 1965.55 400.55 2028.09 400.55 2028.09 304.87 2092.26 400.55 2165.77 400.55"/>
          <path class="cls-13" d="M1833.48,405.02c-20.58,0-38.99-4.6-55.23-13.81-16.25-9.2-29.11-21.66-38.58-37.36-9.48-15.7-14.22-33.31-14.22-52.79s4.67-36.55,14.01-51.98c9.34-15.43,22.13-27.68,38.38-36.75,16.25-9.07,34.79-13.6,55.64-13.6s38.64,4.47,55.03,13.4c16.38,8.94,29.3,21.19,38.78,36.75,9.47,15.57,14.21,32.97,14.21,52.19s-4.74,37.43-14.21,53c-9.48,15.58-22.34,27.96-38.59,37.16-16.25,9.21-34.66,13.81-55.23,13.81M1833.48,348.16c8.66,0,16.38-1.89,23.15-5.69,6.76-3.79,11.98-9.27,15.63-16.45,3.66-7.17,5.48-15.36,5.48-24.57s-1.9-16.85-5.69-23.76c-3.8-6.9-9-12.32-15.63-16.25-6.64-3.92-14.28-5.89-22.94-5.89s-16.39,1.97-23.15,5.89c-6.77,3.93-12.05,9.41-15.84,16.45-3.8,7.04-5.69,14.89-5.69,23.56,0,9.21,1.89,17.4,5.69,24.57,3.79,7.18,9.07,12.66,15.84,16.45,6.77,3.79,14.48,5.69,23.15,5.69"/>
          <path class="cls-13" d="M1699.67,249.07c-8.4-15.43-19.83-27.62-34.32-36.55-14.49-8.94-30.94-13.4-49.35-13.4-13.27,0-25.45,2.71-36.55,8.12-5.68,2.77-10.82,6.05-15.43,9.85v-13.91h-62.54v280.62h61.73v-96.71c4.7,3.82,9.97,7.09,15.84,9.81,11.1,5.14,23.42,7.72,36.95,7.72,18.41,0,34.93-4.53,49.55-13.6,14.62-9.07,26.05-21.25,34.32-36.55,8.26-15.29,12.38-32.83,12.38-52.59s-4.2-37.37-12.59-52.79M1643.02,325.82c-3.93,7.04-9.21,12.52-15.84,16.44-6.64,3.93-14.28,5.89-22.94,5.89s-15.91-1.96-22.54-5.89c-6.64-3.92-11.84-9.4-15.63-16.44-3.8-7.04-5.69-15.03-5.69-23.96s1.89-16.92,5.69-23.96c3.79-7.04,9-12.52,15.63-16.44,6.63-3.92,14.28-5.89,22.94-5.89s16.25,1.96,22.75,5.89c6.5,3.93,11.7,9.41,15.63,16.44,3.92,7.04,5.89,15.03,5.89,23.96s-1.96,16.93-5.89,23.96"/>
          <path class="cls-13" d="M1361.5,405.02c-23.83,0-44.2-3.8-61.12-11.37-16.93-7.58-32.29-19.22-46.09-34.92l41.42-41.42c9.2,10.56,19.42,18.75,30.66,24.57,11.23,5.83,24.3,8.73,39.19,8.73,13.26,0,23.62-2.5,31.07-7.51,7.44-5.01,11.17-11.85,11.17-20.51,0-7.58-2.37-13.81-7.1-18.68-4.74-4.87-11.17-9.07-19.29-12.59-8.12-3.52-16.93-6.83-26.4-9.96-9.48-3.11-19.02-6.83-28.63-11.17-9.61-4.33-18.42-9.61-26.4-15.84-7.99-6.23-14.42-14.21-19.29-23.96-4.87-9.75-7.31-21.79-7.31-36.15,0-17.87,4.26-33.17,12.79-45.89,8.53-12.72,20.51-22.4,35.94-29.04,15.44-6.63,32.9-9.95,52.39-9.95s38.72,3.52,55.23,10.56c16.51,7.04,30.19,16.52,41.02,28.43l-41.84,41.83c-8.67-8.94-17.4-15.57-26.19-19.9-8.8-4.33-18.62-6.5-29.44-6.5s-19.9,2.1-26.4,6.29c-6.5,4.2-9.75,10.23-9.75,18.08,0,7.05,2.44,12.79,7.31,17.26,4.87,4.47,11.3,8.32,19.29,11.57,7.98,3.25,16.79,6.5,26.4,9.75,9.61,3.25,19.22,6.97,28.84,11.17,9.61,4.2,18.34,9.68,26.19,16.45,7.85,6.77,14.27,15.17,19.29,25.18,5.01,10.02,7.52,22.61,7.52,37.77,0,27.35-9.75,48.81-29.24,64.37-19.5,15.57-46.57,23.35-81.22,23.35"/>
          <rect class="cls-13" x="1170.91" y="105.71" width="62.54" height="294.84"/>
          <rect class="cls-13" x="1071.91" y="105.71" width="62.54" height="294.84"/>
          <path class="cls-13" d="M1004.46,176.37c-9.48,0-17.47-3.38-23.96-10.15-6.5-6.76-9.75-14.89-9.75-24.37s3.25-17.87,9.75-24.37c6.5-6.5,14.48-9.75,23.96-9.75,10.01,0,18.07,3.25,24.16,9.75,6.09,6.5,9.14,14.62,9.14,24.37s-3.05,17.61-9.14,24.37c-6.09,6.77-14.15,10.15-24.16,10.15M973.19,203.18h62.54v197.38h-62.54v-197.38Z"/>
          <polygon class="cls-13" points="883.26 295.96 954.96 203.18 885.51 203.18 821.75 291.99 821.75 105.71 759.2 105.71 759.2 400.55 821.75 400.55 821.75 304.87 885.92 400.55 959.42 400.55 883.26 295.96"/>
          <path class="cls-13" d="M619.22,405.02c-23.83,0-44.21-3.8-61.12-11.37-16.93-7.58-32.29-19.22-46.1-34.92l41.42-41.42c9.2,10.56,19.42,18.75,30.66,24.57,11.23,5.83,24.29,8.73,39.19,8.73,13.26,0,23.62-2.5,31.07-7.51,7.44-5.01,11.17-11.85,11.17-20.51,0-7.58-2.37-13.81-7.1-18.68-4.74-4.87-11.16-9.07-19.29-12.59-8.12-3.52-16.92-6.83-26.4-9.96-9.48-3.11-19.02-6.83-28.63-11.17-9.61-4.33-18.42-9.61-26.4-15.84-7.99-6.23-14.41-14.21-19.29-23.96-4.88-9.75-7.31-21.79-7.31-36.15,0-17.87,4.26-33.17,12.79-45.89,8.53-12.72,20.51-22.4,35.94-29.04,15.43-6.63,32.9-9.95,52.39-9.95s38.72,3.52,55.23,10.56c16.51,7.04,30.19,16.52,41.02,28.43l-41.83,41.83c-8.67-8.94-17.4-15.57-26.19-19.9-8.8-4.33-18.62-6.5-29.44-6.5s-19.9,2.1-26.4,6.29c-6.5,4.2-9.75,10.23-9.75,18.08,0,7.05,2.44,12.79,7.31,17.26,4.87,4.47,11.3,8.32,19.29,11.57,7.98,3.25,16.79,6.5,26.4,9.75,9.61,3.25,19.22,6.97,28.84,11.17,9.61,4.2,18.34,9.68,26.19,16.45,7.85,6.77,14.27,15.17,19.29,25.18,5.01,10.02,7.51,22.61,7.51,37.77,0,27.35-9.75,48.81-29.24,64.37-19.5,15.57-46.57,23.35-81.22,23.35"/>
        </g>
      </g>
    </g>
  </g>
</svg>