<?xml version="1.0" encoding="UTF-8"?>
<svg id="Layer_2" data-name="Layer 2" xmlns="http://www.w3.org/2000/svg" xmlns:xlink="http://www.w3.org/1999/xlink" viewBox="0 0 2043.22 512">
  <defs>
    <style>
      .cls-1 {
        fill: none;
      }

      .cls-2 {
        fill: url(#linear-gradient-5);
      }

      .cls-3 {
        fill: url(#linear-gradient-4);
      }

      .cls-4 {
        fill: url(#linear-gradient-3);
      }

      .cls-5 {
        fill: url(#linear-gradient-2);
      }

      .cls-6 {
        fill: url(#linear-gradient);
      }

      .cls-7 {
        clip-path: url(#clippath-1);
      }

      .cls-8 {
        clip-path: url(#clippath-3);
      }

      .cls-9 {
        clip-path: url(#clippath-4);
      }

      .cls-10 {
        clip-path: url(#clippath-2);
      }

      .cls-11 {
        clip-path: url(#clippath-7);
      }

      .cls-12 {
        clip-path: url(#clippath-6);
      }

      .cls-13 {
        clip-path: url(#clippath-5);
      }

      .cls-14 {
        fill: #1e1a14;
      }

      .cls-15 {
        clip-path: url(#clippath);
      }
    </style>
    <clipPath id="clippath">
      <rect class="cls-1" width="2043.22" height="512"/>
    </clipPath>
    <clipPath id="clippath-1">
      <rect class="cls-1" x="525.8" y="364.48" width="1516.78" height="91.01"/>
    </clipPath>
    <clipPath id="clippath-2">
      <rect class="cls-1" x="525.8" y="56.52" width="1516.78" height="309.74"/>
    </clipPath>
    <clipPath id="clippath-3">
      <path class="cls-1" d="M181.32,256c0,41.75,34.04,75.71,75.88,75.71s75.88-33.96,75.88-75.71-34.04-75.71-75.88-75.71-75.88,33.97-75.88,75.71"/>
    </clipPath>
    <linearGradient id="linear-gradient" x1="-3783.93" y1="-3885.97" x2="-3782.93" y2="-3885.97" gradientTransform="translate(589497.98 573949.42) rotate(90) scale(151.63 -151.63)" gradientUnits="userSpaceOnUse">
      <stop offset="0" stop-color="#f9d174"/>
      <stop offset=".34" stop-color="#f9d174"/>
      <stop offset=".95" stop-color="#ea9e39"/>
      <stop offset=".99" stop-color="#e99b35"/>
      <stop offset="1" stop-color="#e99b35"/>
    </linearGradient>
    <clipPath id="clippath-4">
      <path class="cls-1" d="M.61,256h0c0,141.4,114.87,256,256.56,256h.04v-83.59h-.04c-95.27,0-172.79-77.34-172.79-172.41H.61Z"/>
    </clipPath>
    <linearGradient id="linear-gradient-2" x1="-3804.52" y1="-3895.59" x2="-3803.52" y2="-3895.59" gradientTransform="translate(1310936.43 1280350.8) rotate(90) scale(336.49 -336.49)" gradientUnits="userSpaceOnUse">
      <stop offset="0" stop-color="#d4c3ad"/>
      <stop offset=".28" stop-color="#d1bfa8"/>
      <stop offset=".57" stop-color="#cab59c"/>
      <stop offset=".86" stop-color="#bea488"/>
      <stop offset="1" stop-color="#b79a7c"/>
    </linearGradient>
    <clipPath id="clippath-5">
      <path class="cls-1" d="M428.21,280.9h0,0ZM512,280.9h-83.78c-12.13,83.31-84.19,147.51-170.99,147.51h-.03v83.59h.03c131.39,0,239.71-98.56,254.77-225.62v-5.48h0Z"/>
    </clipPath>
    <linearGradient id="linear-gradient-3" x1="-3827.5" y1="-3910.07" x2="-3826.5" y2="-3910.07" gradientTransform="translate(1255926.28 -1282397.72) scale(328.07 -328.07)" gradientUnits="userSpaceOnUse">
      <stop offset="0" stop-color="#4d4658"/>
      <stop offset=".25" stop-color="#50495a"/>
      <stop offset=".45" stop-color="#5a5363"/>
      <stop offset=".64" stop-color="#6b6472"/>
      <stop offset=".81" stop-color="#827b87"/>
      <stop offset=".9" stop-color="#918a94"/>
      <stop offset="1" stop-color="#918a94"/>
    </linearGradient>
    <clipPath id="clippath-6">
      <path class="cls-1" d="M257.2,0h0v27.87s0,55.73,0,55.73h.03c86.8,0,158.86,64.2,170.99,147.51h83.78v-5.57C496.9,98.51,388.6,0,257.23,0h-.03Z"/>
    </clipPath>
    <linearGradient id="linear-gradient-4" x1="-3804.24" y1="-3896.64" x2="-3803.24" y2="-3896.64" gradientTransform="translate(-1278004.29 1248027.62) rotate(90) scale(328.07)" xlink:href="#linear-gradient"/>
    <clipPath id="clippath-7">
      <path class="cls-1" d="M257.16,0C115.47,0,.6,114.61.6,256h83.78c0-95.07,77.51-172.41,172.79-172.41h.03V0h-.03Z"/>
    </clipPath>
    <linearGradient id="linear-gradient-5" x1="-3822.83" y1="-3909.3" x2="-3821.83" y2="-3909.3" gradientTransform="translate(1387145.3 -1418519.83) scale(362.89 -362.89)" gradientUnits="userSpaceOnUse">
      <stop offset="0" stop-color="#4e485b"/>
      <stop offset=".02" stop-color="#544e60"/>
      <stop offset=".11" stop-color="#6a6372"/>
      <stop offset=".21" stop-color="#7b7480"/>
      <stop offset=".34" stop-color="#877f8a"/>
      <stop offset=".51" stop-color="#8e8690"/>
      <stop offset="1" stop-color="#908892"/>
    </linearGradient>
  </defs>
  <g id="SkillSpoke_Assets" data-name="SkillSpoke Assets">
    <g id="combomark_tagline_2_clear_onlight">
      <g class="cls-15">
        <polygon points="525.8 365.18 525.8 434.94 537.22 434.94 537.22 403.24 591.63 403.24 591.63 397.34 537.22 397.34 537.22 371.08 597.34 371.08 597.34 365.18 525.8 365.18"/>
        <g class="cls-7">
          <path d="M615.87,373.33c-2.18,0-4.05-.44-5.63-1.31-1.58-.87-2.37-1.92-2.37-3.14s.79-2.26,2.37-3.11c1.58-.86,3.45-1.29,5.63-1.29s4.05.43,5.63,1.29c1.58.86,2.37,1.9,2.37,3.11s-.79,2.26-2.37,3.14c-1.58.87-3.45,1.31-5.63,1.31M610.4,383.25h10.93v51.68h-10.93v-51.68Z"/>
          <path d="M648.67,402.91v32.02h-10.93v-51.68h10.52l.08,12.08h-1.96c2.5-4.49,6.42-7.75,11.75-9.78,5.33-2.03,11.45-3.04,18.36-3.04,6.14,0,11.57.74,16.27,2.22,4.7,1.48,8.39,3.64,11.05,6.46,2.66,2.83,4,6.31,4,10.46v33.28h-10.93v-32.82c0-4.31-2.09-7.69-6.28-10.16-4.19-2.47-9.79-3.7-16.8-3.7-4.73,0-9,.58-12.81,1.73-3.81,1.15-6.81,2.82-9.02,5.01-2.2,2.19-3.3,4.82-3.3,7.91"/>
          <path d="M756.85,436.01c-7.4,0-13.91-1.12-19.54-3.37-5.63-2.25-10.02-5.38-13.17-9.39-3.16-4.01-4.73-8.7-4.73-14.07s1.58-9.96,4.73-13.97c3.15-4.01,7.56-7.13,13.21-9.36,5.66-2.23,12.18-3.34,19.58-3.34,5.27,0,9.78.53,13.5,1.59,3.72,1.06,6.78,2.4,9.18,4.03,2.39,1.62,4.21,3.29,5.47,5.01h.73v-27.95h10.93v69.75h-10.61v-9.69h-.98c-1.31,1.75-3.18,3.44-5.63,5.08-2.45,1.64-5.52,3-9.22,4.07-3.7,1.07-8.19,1.61-13.46,1.61M758.32,430.3c5.82,0,10.81-.9,14.97-2.69,4.16-1.8,7.34-4.29,9.54-7.47,2.2-3.18,3.3-6.85,3.3-11s-1.1-7.75-3.3-10.91c-2.2-3.15-5.37-5.61-9.5-7.37-4.13-1.76-9.14-2.64-15.01-2.64s-10.88.9-15.01,2.69c-4.13,1.79-7.3,4.27-9.5,7.42-2.2,3.15-3.3,6.76-3.3,10.81s1.1,7.69,3.3,10.88c2.2,3.2,5.38,5.71,9.54,7.54,4.16,1.83,9.15,2.74,14.97,2.74"/>
          <path d="M867.81,434.93l-27.08-51.68h11.5l13.87,27.81c1.41,2.81,2.84,5.84,4.28,9.08,1.44,3.25,2.9,6.76,4.36,10.53h-1.88c1.47-3.68,2.94-7.15,4.4-10.39,1.47-3.24,2.94-6.32,4.41-9.22l14.6-27.81h11.75l14.44,27.81c1.47,2.84,2.94,5.88,4.4,9.13,1.47,3.25,2.94,6.74,4.41,10.49h-2.04c1.52-3.71,3-7.18,4.44-10.42,1.44-3.23,2.87-6.3,4.28-9.2l13.87-27.81h11.5l-27,51.68h-11.5l-15.5-29.07c-1.03-2-2.03-4-2.98-6.02-.95-2.01-1.89-4.06-2.82-6.13-.92-2.07-1.88-4.19-2.85-6.34h2.77c-.92,2.12-1.86,4.23-2.81,6.32-.95,2.09-1.92,4.15-2.9,6.18-.98,2.03-1.96,4.03-2.94,5.99l-15.58,29.07h-11.42Z"/>
          <path d="M982.93,402.91v32.02h-10.93v-69.75h10.93v30.15h-2.29c2.5-4.49,6.42-7.75,11.75-9.78,5.33-2.03,11.45-3.04,18.36-3.04,6.14,0,11.57.74,16.28,2.22,4.7,1.48,8.39,3.64,11.05,6.46,2.66,2.83,4,6.31,4,10.46v33.28h-10.93v-32.82c0-4.31-2.1-7.69-6.28-10.16-4.19-2.47-9.79-3.7-16.8-3.7-4.73,0-9,.58-12.81,1.73-3.81,1.15-6.81,2.82-9.02,5.01-2.2,2.19-3.3,4.82-3.3,7.91"/>
          <path d="M1094.86,436.01c-8.43,0-15.73-1.13-21.9-3.39-6.18-2.26-10.93-5.4-14.28-9.41-3.34-4.01-5.02-8.62-5.02-13.83s1.67-9.89,5.02-13.93c3.34-4.04,8.01-7.21,13.99-9.5,5.98-2.29,12.86-3.44,20.64-3.44,5.22,0,10.15.54,14.8,1.61,4.65,1.08,8.78,2.7,12.4,4.87,3.61,2.17,6.46,4.87,8.52,8.1,2.07,3.23,3.1,7,3.1,11.3v2.53h-71.54v-5.43h65.59l-4.98,2.01c0-3.75-1.13-7.08-3.39-10-2.26-2.92-5.47-5.21-9.63-6.88-4.16-1.67-9.12-2.5-14.89-2.5s-10.72.86-15.01,2.58c-4.3,1.72-7.64,4-10.04,6.86-2.39,2.85-3.59,6.03-3.59,9.53v3.04c0,4.06,1.22,7.6,3.67,10.63,2.45,3.03,5.94,5.38,10.48,7.07,4.54,1.68,9.88,2.53,16.03,2.53,4.3,0,8.09-.39,11.38-1.17,3.29-.78,6.06-1.85,8.32-3.21,2.26-1.36,3.93-2.86,5.02-4.52l10.52,1.5c-1.36,2.37-3.64,4.56-6.85,6.55-3.21,2-7.22,3.58-12.03,4.75-4.81,1.17-10.27,1.76-16.35,1.76"/>
          <path d="M1143.33,434.93v-51.68h10.52v8.14h.73c1.8-2.65,4.9-4.79,9.3-6.41,4.41-1.62,9.46-2.43,15.17-2.43.87,0,1.81.01,2.81.04,1.01.03,1.84.05,2.49.05v6.32c-.38-.06-1.18-.13-2.41-.21-1.22-.08-2.57-.12-4.04-.12-4.52,0-8.57.56-12.16,1.69-3.59,1.12-6.4,2.68-8.44,4.68-2.04,2-3.06,4.32-3.06,6.97v32.96h-10.93Z"/>
          <path d="M1224.99,436.01c-8.43,0-15.73-1.13-21.9-3.39-6.18-2.26-10.93-5.4-14.28-9.41-3.34-4.01-5.02-8.62-5.02-13.83s1.67-9.89,5.02-13.93c3.34-4.04,8.01-7.21,13.99-9.5,5.98-2.29,12.86-3.44,20.64-3.44,5.22,0,10.15.54,14.8,1.61,4.65,1.08,8.78,2.7,12.4,4.87,3.61,2.17,6.46,4.87,8.52,8.1,2.07,3.23,3.1,7,3.1,11.3v2.53h-71.54v-5.43h65.59l-4.98,2.01c0-3.75-1.13-7.08-3.39-10-2.26-2.92-5.47-5.21-9.63-6.88-4.16-1.67-9.12-2.5-14.89-2.5s-10.72.86-15.01,2.58c-4.3,1.72-7.64,4-10.04,6.86-2.39,2.85-3.59,6.03-3.59,9.53v3.04c0,4.06,1.22,7.6,3.67,10.63,2.45,3.03,5.94,5.38,10.48,7.07,4.54,1.68,9.88,2.53,16.03,2.53,4.3,0,8.09-.39,11.38-1.17,3.29-.78,6.06-1.85,8.32-3.21,2.26-1.36,3.93-2.86,5.02-4.52l10.52,1.5c-1.36,2.37-3.64,4.56-6.85,6.55-3.21,2-7.22,3.58-12.03,4.75-4.81,1.17-10.27,1.76-16.35,1.76"/>
          <path d="M1306.75,453.94l2.28-5.48,2.86.19c2.99.44,5.68.51,8.08.24,2.39-.28,4.54-1.03,6.44-2.25,1.9-1.22,3.59-2.98,5.06-5.29l4-6.13-34.83-51.96h11.91l20.88,32.3c1.9,2.84,3.59,5.67,5.06,8.5,1.47,2.83,2.96,5.61,4.49,8.36h-3.67c1.52-2.75,3.03-5.53,4.53-8.36,1.49-2.82,3.17-5.66,5.02-8.5l20.96-32.3h11.83l-40.54,60.39c-1.69,2.53-3.7,4.62-6.04,6.28-2.34,1.65-5.03,2.88-8.08,3.67-3.05.8-6.47,1.19-10.28,1.19-2.07,0-3.96-.09-5.67-.26-1.71-.17-3.14-.37-4.28-.58"/>
          <path d="M1421.78,436.01c-7.83,0-14.77-1.13-20.8-3.39-6.04-2.26-10.76-5.41-14.15-9.43-3.4-4.03-5.1-8.65-5.1-13.86s1.7-9.97,5.1-14c3.4-4.02,8.11-7.17,14.15-9.43,6.04-2.26,12.97-3.39,20.8-3.39s14.92,1.13,20.92,3.39c6.01,2.26,10.72,5.42,14.11,9.46,3.4,4.04,5.1,8.7,5.1,13.97s-1.7,9.83-5.1,13.86c-3.4,4.03-8.1,7.17-14.11,9.43-6.01,2.26-12.98,3.39-20.92,3.39M1421.78,430.35c6.2,0,11.46-.94,15.78-2.83,4.32-1.89,7.63-4.42,9.91-7.61,2.29-3.18,3.43-6.71,3.43-10.58s-1.14-7.5-3.43-10.7c-2.28-3.2-5.6-5.74-9.95-7.63-4.35-1.89-9.6-2.83-15.74-2.83s-11.3.95-15.62,2.86c-4.32,1.9-7.63,4.45-9.91,7.63-2.28,3.18-3.43,6.74-3.43,10.68s1.14,7.44,3.43,10.6c2.28,3.17,5.59,5.7,9.91,7.59,4.32,1.89,9.53,2.83,15.62,2.83"/>
          <path d="M1504.84,435.68c-6.09,0-11.5-.74-16.23-2.22-4.73-1.48-8.43-3.65-11.09-6.51-2.67-2.85-4-6.33-4-10.42v-33.28h10.93v32.82c0,4.31,2.09,7.69,6.28,10.16,4.19,2.47,9.79,3.7,16.8,3.7,4.73,0,9-.58,12.81-1.73,3.81-1.16,6.81-2.83,9.01-5.03,2.2-2.2,3.3-4.83,3.3-7.89v-32.02h10.93v51.68h-10.61v-12.08h1.96c-2.56,4.53-6.51,7.8-11.87,9.81-5.36,2.01-11.44,3.02-18.23,3.02"/>
          <path d="M1635.3,436.01c-5.22,0-9.7-.54-13.42-1.61-3.73-1.08-6.8-2.44-9.22-4.07-2.42-1.64-4.31-3.33-5.67-5.08h-.98v9.69h-10.61v-69.75h10.93v27.95h.73c1.31-1.71,3.16-3.38,5.55-5.01,2.39-1.62,5.44-2.97,9.14-4.03,3.7-1.06,8.18-1.59,13.46-1.59,7.45,0,13.99,1.12,19.62,3.34,5.63,2.23,10.02,5.36,13.17,9.36,3.15,4.01,4.73,8.67,4.73,13.97s-1.56,10.06-4.69,14.07c-3.13,4.01-7.5,7.14-13.13,9.39-5.63,2.25-12.17,3.37-19.62,3.37M1633.83,430.3c5.87,0,10.88-.91,15.01-2.74,4.13-1.82,7.3-4.34,9.5-7.54,2.2-3.2,3.3-6.83,3.3-10.88s-1.09-7.66-3.26-10.81c-2.17-3.15-5.34-5.62-9.5-7.42-4.16-1.79-9.18-2.69-15.05-2.69s-10.81.88-14.97,2.64c-4.16,1.76-7.33,4.22-9.5,7.37-2.18,3.15-3.26,6.79-3.26,10.91s1.09,7.82,3.26,11c2.17,3.18,5.34,5.67,9.5,7.47,4.16,1.79,9.15,2.69,14.97,2.69"/>
          <path d="M1720.72,436.01c-8.43,0-15.73-1.13-21.91-3.39-6.17-2.26-10.93-5.4-14.27-9.41-3.34-4.01-5.02-8.62-5.02-13.83s1.67-9.89,5.02-13.93c3.34-4.04,8.01-7.21,13.99-9.5,5.98-2.29,12.86-3.44,20.64-3.44,5.22,0,10.16.54,14.81,1.61,4.65,1.08,8.78,2.7,12.4,4.87,3.61,2.17,6.46,4.87,8.52,8.1,2.07,3.23,3.1,7,3.1,11.3v2.53h-71.54v-5.43h65.59l-4.98,2.01c0-3.75-1.13-7.08-3.39-10-2.26-2.92-5.47-5.21-9.63-6.88-4.16-1.67-9.12-2.5-14.89-2.5s-10.71.86-15.01,2.58c-4.3,1.72-7.64,4-10.04,6.86-2.39,2.85-3.59,6.03-3.59,9.53v3.04c0,4.06,1.22,7.6,3.67,10.63,2.45,3.03,5.94,5.38,10.48,7.07,4.54,1.68,9.88,2.53,16.03,2.53,4.3,0,8.09-.39,11.38-1.17,3.29-.78,6.06-1.85,8.32-3.21,2.26-1.36,3.93-2.86,5.02-4.52l10.52,1.5c-1.36,2.37-3.64,4.56-6.85,6.55-3.21,2-7.22,3.58-12.03,4.75-4.81,1.17-10.27,1.76-16.35,1.76"/>
          <rect x="1769.18" y="365.18" width="10.93" height="69.75"/>
          <path d="M1831.76,436.01c-7.83,0-14.77-1.13-20.8-3.39-6.04-2.26-10.76-5.41-14.16-9.43-3.4-4.03-5.1-8.65-5.1-13.86s1.7-9.97,5.1-14c3.4-4.02,8.12-7.17,14.16-9.43,6.04-2.26,12.97-3.39,20.8-3.39s14.92,1.13,20.92,3.39c6.01,2.26,10.71,5.42,14.11,9.46,3.4,4.04,5.1,8.7,5.1,13.97s-1.7,9.83-5.1,13.86c-3.4,4.03-8.1,7.17-14.11,9.43-6.01,2.26-12.98,3.39-20.92,3.39M1831.76,430.35c6.2,0,11.46-.94,15.78-2.83,4.32-1.89,7.63-4.42,9.91-7.61,2.28-3.18,3.43-6.71,3.43-10.58s-1.14-7.5-3.43-10.7c-2.28-3.2-5.6-5.74-9.95-7.63-4.35-1.89-9.6-2.83-15.74-2.83s-11.3.95-15.62,2.86c-4.32,1.9-7.63,4.45-9.91,7.63-2.28,3.18-3.43,6.74-3.43,10.68s1.14,7.44,3.43,10.6c2.28,3.17,5.59,5.7,9.91,7.59,4.32,1.89,9.53,2.83,15.62,2.83"/>
          <path d="M1894.42,402.91v32.02h-10.93v-51.68h10.52l.08,12.08h-1.96c2.5-4.49,6.42-7.75,11.75-9.78,5.33-2.03,11.45-3.04,18.35-3.04,6.15,0,11.57.74,16.28,2.22,4.7,1.48,8.39,3.64,11.05,6.46,2.67,2.83,4,6.31,4,10.46v33.28h-10.93v-32.82c0-4.31-2.09-7.69-6.28-10.16-4.19-2.47-9.79-3.7-16.8-3.7-4.73,0-9,.58-12.81,1.73-3.81,1.15-6.81,2.82-9.01,5.01-2.21,2.19-3.31,4.82-3.31,7.91"/>
          <path d="M2004.88,455.48c-6.25,0-11.79-.48-16.6-1.45-4.81-.97-8.81-2.32-11.99-4.05-3.18-1.73-5.56-3.75-7.14-6.06l9.55-2.48c1.2,1.5,2.89,2.89,5.1,4.19,2.2,1.3,5.03,2.33,8.49,3.11,3.45.78,7.65,1.17,12.6,1.17,8.16,0,14.67-1.18,19.54-3.53,4.87-2.36,7.3-5.92,7.3-10.7v-11.19h-.9c-1.36,1.75-3.25,3.39-5.67,4.94-2.42,1.54-5.48,2.81-9.18,3.79-3.7.98-8.16,1.47-13.38,1.47-7.23,0-13.68-1.04-19.33-3.11-5.66-2.08-10.09-5.03-13.3-8.87-3.21-3.84-4.81-8.41-4.81-13.72s1.59-9.9,4.77-13.88c3.18-3.98,7.6-7.08,13.26-9.29,5.66-2.21,12.18-3.32,19.58-3.32,5.27,0,9.77.53,13.5,1.59,3.72,1.06,6.8,2.41,9.22,4.05,2.42,1.64,4.28,3.32,5.59,5.03h.9v-9.93h10.6v52.67c0,4.46-1.63,8.14-4.89,11.05-3.26,2.9-7.74,5.05-13.42,6.44-5.68,1.39-12.14,2.08-19.38,2.08M2004.23,429.04c5.76,0,10.71-.81,14.85-2.43,4.13-1.62,7.32-3.94,9.55-6.95,2.23-3.01,3.34-6.6,3.34-10.75s-1.09-7.64-3.26-10.74c-2.18-3.11-5.34-5.54-9.5-7.3-4.16-1.76-9.15-2.65-14.97-2.65s-10.91.9-15.09,2.69c-4.19,1.79-7.38,4.24-9.58,7.35-2.2,3.11-3.31,6.66-3.31,10.65s1.12,7.55,3.35,10.58c2.23,3.03,5.42,5.38,9.59,7.05,4.16,1.67,9.18,2.51,15.05,2.51"/>
        </g>
        <g class="cls-10">
          <path class="cls-14" d="M2031.93,171.63c-7.1-12.2-16.75-21.74-28.94-28.61-12.2-6.87-26.4-10.32-42.59-10.32s-31.16,3.66-44.25,10.98c-13.09,7.32-23.41,17.36-30.94,30.11-7.54,12.76-11.31,27.12-11.31,43.09s3.88,31.06,11.65,43.92c7.76,12.87,18.41,22.9,31.94,30.11,13.53,7.21,29.06,10.82,46.58,10.82,13.75,0,26.29-2.28,37.59-6.82,11.31-4.54,20.96-11.59,28.95-21.12l-28.28-27.95c-4.88,5.55-10.54,9.7-16.97,12.47-6.44,2.78-13.53,4.16-21.3,4.16-8.65,0-16.14-1.83-22.46-5.49-6.32-3.66-11.21-8.93-14.64-15.8-1.07-2.14-1.97-4.39-2.71-6.76l115.67-.56c1.11-3.99,1.83-7.59,2.16-10.81.33-3.21.5-6.38.5-9.48,0-15.75-3.55-29.72-10.65-41.92M1940.27,177.29c5.87-3.77,12.81-5.66,20.79-5.66,7.32,0,13.58,1.66,18.8,4.99,5.21,3.33,9.15,8.04,11.81,14.14,1.05,2.41,1.91,5.07,2.58,7.96l-70.03.4c.67-2.18,1.46-4.24,2.41-6.19,3.21-6.65,7.76-11.86,13.64-15.64"/>
          <polygon class="cls-14" points="1880.62 298.06 1818.22 212.38 1876.96 136.37 1820.07 136.37 1767.83 209.12 1767.83 56.51 1716.59 56.51 1716.59 298.06 1767.83 298.06 1767.83 219.68 1820.4 298.06 1880.62 298.06"/>
          <path class="cls-14" d="M1608.4,301.72c-16.86,0-31.94-3.77-45.25-11.31-13.31-7.54-23.85-17.74-31.6-30.61-7.77-12.86-11.65-27.28-11.65-43.25s3.83-29.94,11.48-42.58c7.65-12.64,18.13-22.68,31.44-30.11,13.31-7.43,28.5-11.14,45.58-11.14s31.66,3.66,45.08,10.98c13.42,7.32,24.01,17.36,31.77,30.11,7.76,12.76,11.64,27.01,11.64,42.75s-3.88,30.67-11.64,43.42c-7.77,12.76-18.3,22.9-31.61,30.44-13.31,7.54-28.39,11.31-45.25,11.31M1608.4,255.14c7.1,0,13.42-1.55,18.97-4.66,5.54-3.1,9.81-7.59,12.81-13.47,2.99-5.88,4.49-12.58,4.49-20.13s-1.56-13.81-4.66-19.46c-3.11-5.66-7.37-10.09-12.81-13.31-5.44-3.21-11.7-4.83-18.8-4.83s-13.42,1.61-18.97,4.83c-5.55,3.22-9.87,7.71-12.98,13.47-3.11,5.77-4.66,12.2-4.66,19.3,0,7.54,1.55,14.25,4.66,20.13,3.1,5.88,7.43,10.37,12.98,13.47,5.54,3.11,11.86,4.66,18.97,4.66"/>
          <path class="cls-14" d="M1498.78,173.96c-6.88-12.64-16.25-22.63-28.11-29.95-11.87-7.32-25.34-10.98-40.43-10.98-10.87,0-20.85,2.22-29.94,6.65-4.65,2.27-8.86,4.96-12.64,8.07v-11.4h-51.23v229.9h50.57v-79.23c3.85,3.13,8.17,5.81,12.98,8.03,9.09,4.21,19.18,6.32,30.27,6.32,15.08,0,28.61-3.71,40.59-11.14,11.98-7.43,21.34-17.41,28.11-29.95,6.76-12.53,10.14-26.89,10.14-43.09s-3.44-30.61-10.31-43.25M1452.37,236.84c-3.22,5.77-7.54,10.26-12.98,13.47-5.44,3.22-11.7,4.83-18.8,4.83s-13.03-1.6-18.46-4.83c-5.44-3.21-9.7-7.7-12.81-13.47-3.11-5.77-4.66-12.31-4.66-19.63s1.55-13.86,4.66-19.63c3.1-5.76,7.37-10.26,12.81-13.47,5.43-3.21,11.7-4.83,18.8-4.83s13.31,1.61,18.63,4.83c5.32,3.22,9.59,7.71,12.81,13.47,3.21,5.77,4.82,12.31,4.82,19.63s-1.61,13.87-4.82,19.63"/>
          <path class="cls-14" d="M1221.74,301.72c-19.52,0-36.21-3.11-50.07-9.32-13.87-6.21-26.45-15.75-37.76-28.61l33.93-33.93c7.54,8.65,15.91,15.36,25.12,20.13,9.2,4.77,19.9,7.15,32.11,7.15,10.87,0,19.35-2.05,25.45-6.15,6.1-4.1,9.15-9.7,9.15-16.8,0-6.21-1.94-11.31-5.82-15.31-3.88-3.99-9.15-7.43-15.8-10.31-6.66-2.88-13.87-5.6-21.63-8.16-7.77-2.55-15.58-5.6-23.46-9.15-7.88-3.54-15.09-7.87-21.63-12.98-6.55-5.1-11.81-11.65-15.8-19.63-3.99-7.99-5.99-17.85-5.99-29.61,0-14.64,3.49-27.17,10.48-37.59,6.99-10.42,16.8-18.35,29.44-23.79,12.64-5.43,26.95-8.15,42.92-8.15s31.72,2.89,45.25,8.65c13.53,5.77,24.73,13.53,33.6,23.29l-34.27,34.27c-7.1-7.32-14.25-12.75-21.46-16.3-7.21-3.54-15.25-5.32-24.12-5.32s-16.3,1.72-21.63,5.15c-5.32,3.44-7.99,8.38-7.99,14.81,0,5.77,2,10.48,5.99,14.14,3.99,3.66,9.26,6.82,15.8,9.48,6.54,2.66,13.75,5.32,21.63,7.99,7.87,2.66,15.75,5.71,23.63,9.15,7.87,3.44,15.02,7.93,21.46,13.47,6.43,5.55,11.69,12.43,15.8,20.63,4.1,8.21,6.16,18.52,6.16,30.94,0,22.4-7.99,39.98-23.96,52.74-15.97,12.76-38.15,19.13-66.54,19.13"/>
          <rect class="cls-14" x="1065.6" y="56.51" width="51.23" height="241.54"/>
          <rect class="cls-14" x="984.49" y="56.51" width="51.24" height="241.54"/>
          <path class="cls-14" d="M929.23,114.4c-7.77,0-14.31-2.77-19.63-8.32-5.32-5.54-7.98-12.2-7.98-19.96s2.66-14.64,7.98-19.96c5.32-5.32,11.86-7.99,19.63-7.99,8.2,0,14.8,2.66,19.79,7.99,4.99,5.32,7.48,11.98,7.48,19.96s-2.5,14.42-7.48,19.96c-4.99,5.55-11.59,8.32-19.79,8.32M903.62,136.36h51.24v161.7h-51.24v-161.7Z"/>
          <polygon class="cls-14" points="829.94 212.38 888.68 136.37 831.79 136.37 779.55 209.12 779.55 56.51 728.31 56.51 728.31 298.06 779.55 298.06 779.55 219.68 832.12 298.06 892.34 298.06 829.94 212.38"/>
          <path class="cls-14" d="M613.63,301.72c-19.52,0-36.21-3.11-50.07-9.32-13.87-6.21-26.45-15.75-37.76-28.61l33.93-33.93c7.54,8.65,15.91,15.36,25.12,20.13,9.2,4.77,19.9,7.15,32.1,7.15,10.87,0,19.35-2.05,25.45-6.15,6.1-4.1,9.15-9.7,9.15-16.8,0-6.21-1.94-11.31-5.82-15.31-3.88-3.99-9.15-7.43-15.8-10.31-6.65-2.88-13.87-5.6-21.63-8.16-7.77-2.55-15.58-5.6-23.45-9.15-7.88-3.54-15.09-7.87-21.63-12.98-6.55-5.1-11.81-11.65-15.8-19.63-3.99-7.99-5.99-17.85-5.99-29.61,0-14.64,3.49-27.17,10.48-37.59,6.99-10.42,16.8-18.35,29.44-23.79,12.64-5.43,26.95-8.15,42.92-8.15s31.72,2.89,45.25,8.65c13.53,5.77,24.73,13.53,33.6,23.29l-34.27,34.27c-7.1-7.32-14.25-12.75-21.46-16.3-7.21-3.54-15.25-5.32-24.12-5.32s-16.3,1.72-21.63,5.15c-5.32,3.44-7.99,8.38-7.99,14.81,0,5.77,2,10.48,5.99,14.14,3.99,3.66,9.26,6.82,15.8,9.48,6.54,2.66,13.75,5.32,21.63,7.99,7.87,2.66,15.75,5.71,23.62,9.15,7.87,3.44,15.03,7.93,21.46,13.47,6.43,5.55,11.69,12.43,15.8,20.63,4.1,8.21,6.15,18.52,6.15,30.94,0,22.4-7.99,39.98-23.96,52.74-15.97,12.76-38.15,19.13-66.54,19.13"/>
        </g>
        <g class="cls-8">
          <rect class="cls-6" x="153.63" y="152.49" width="207.13" height="207.01" transform="translate(-93.54 162.9) rotate(-30)"/>
        </g>
        <g class="cls-9">
          <rect class="cls-5" x="-51.95" y="203.12" width="361.71" height="361.76" transform="translate(-244.47 226.94) rotate(-48.63)"/>
        </g>
        <g class="cls-13">
          <rect class="cls-4" x="220.83" y="228.34" width="327.54" height="336.21" transform="translate(-151.04 531.3) rotate(-60)"/>
        </g>
        <g class="cls-12">
          <rect class="cls-3" x="216.48" y="-48.22" width="336.23" height="327.55" transform="translate(-6.25 207.78) rotate(-30)"/>
        </g>
        <g class="cls-11">
          <rect class="cls-2" x="-52.33" y="-53.23" width="362.46" height="362.46" transform="translate(-52.76 128.63) rotate(-45)"/>
        </g>
      </g>
    </g>
  </g>
</svg>