<?xml version="1.0" encoding="UTF-8"?>
<svg id="Layer_2" data-name="Layer 2" xmlns="http://www.w3.org/2000/svg" xmlns:xlink="http://www.w3.org/1999/xlink" viewBox="0 0 2500 510.53">
  <defs>
    <style>
      .cls-1 {
        fill: none;
      }

      .cls-2 {
        fill: #f5f0e8;
      }

      .cls-3 {
        clip-path: url(#clippath-1);
      }

      .cls-4 {
        clip-path: url(#clippath);
      }
    </style>
    <clipPath id="clippath">
      <rect class="cls-1" width="2500" height="510.53"/>
    </clipPath>
    <clipPath id="clippath-1">
      <rect class="cls-1" width="2500" height="510.53"/>
    </clipPath>
  </defs>
  <g id="SkillSpoke_Assets" data-name="SkillSpoke Assets">
    <g id="lettermark_clear_ondatk">
      <g class="cls-4">
        <g class="cls-3">
          <path class="cls-2" d="M2482.46,189.74c-11.71-20.1-27.61-35.83-47.7-47.17-20.11-11.33-43.52-17-70.2-17s-51.36,6.03-72.93,18.1c-21.58,12.07-38.58,28.61-50.99,49.63-12.43,21.03-18.65,44.69-18.65,71.02s6.39,51.18,19.2,72.38c12.79,21.21,30.34,37.75,52.64,49.63,22.3,11.88,47.89,17.83,76.77,17.83,22.67,0,43.33-3.75,61.96-11.25,18.65-7.49,34.55-19.1,47.71-34.82l-46.62-46.07c-8.05,9.14-17.37,16-27.97,20.56-10.61,4.58-22.31,6.86-35.1,6.86-14.26,0-26.59-3.02-37.01-9.04-10.42-6.03-18.47-14.72-24.13-26.05-1.76-3.52-3.25-7.24-4.47-11.15l190.64-.92c1.82-6.58,3.01-12.51,3.56-17.82.55-5.29.83-10.51.83-15.62,0-25.96-5.85-48.99-17.55-69.09M2331.38,199.06c9.68-6.21,21.11-9.32,34.27-9.32,12.07,0,22.39,2.74,30.98,8.23,8.59,5.48,15.08,13.25,19.47,23.3,1.73,3.98,3.15,8.36,4.26,13.11l-115.43.66c1.1-3.59,2.41-6.99,3.97-10.2,5.3-10.97,12.79-19.55,22.49-25.78"/>
          <polygon class="cls-2" points="2233.06 398.12 2130.22 256.89 2227.03 131.61 2133.26 131.61 2047.16 251.53 2047.16 0 1962.71 0 1962.71 398.12 2047.16 398.12 2047.16 268.93 2133.81 398.12 2233.06 398.12"/>
          <path class="cls-2" d="M1784.38,404.15c-27.79,0-52.65-6.21-74.58-18.65-21.94-12.42-39.31-29.25-52.09-50.45-12.8-21.2-19.2-44.97-19.2-71.29s6.31-49.35,18.92-70.19c12.61-20.84,29.89-37.37,51.82-49.63,21.94-12.24,46.97-18.37,75.12-18.37s52.18,6.03,74.31,18.1c22.12,12.07,39.57,28.61,52.37,49.63,12.79,21.03,19.19,44.51,19.19,70.47s-6.4,50.55-19.19,71.57c-12.8,21.03-30.16,37.75-52.1,50.18-21.94,12.43-46.8,18.65-74.58,18.65M1784.38,327.38c11.7,0,22.12-2.55,31.26-7.68,9.13-5.12,16.17-12.51,21.11-22.21,4.94-9.68,7.4-20.74,7.4-33.18s-2.56-22.76-7.68-32.08c-5.12-9.32-12.15-16.63-21.11-21.94-8.96-5.29-19.28-7.96-30.98-7.96s-22.13,2.65-31.26,7.96c-9.14,5.3-16.27,12.7-21.39,22.21-5.12,9.51-7.68,20.11-7.68,31.81,0,12.43,2.55,23.49,7.68,33.18,5.11,9.69,12.24,17.09,21.39,22.21,9.13,5.12,19.55,7.68,31.26,7.68"/>
          <path class="cls-2" d="M1603.7,193.58c-11.34-20.84-26.78-37.29-46.34-49.36-19.56-12.07-41.77-18.1-66.63-18.1-17.92,0-34.36,3.66-49.35,10.97-7.67,3.74-14.61,8.18-20.84,13.3v-18.79h-84.45v378.92h83.35v-130.59c6.34,5.15,13.46,9.57,21.39,13.24,14.99,6.94,31.62,10.42,49.9,10.42,24.86,0,47.16-6.12,66.9-18.37,19.74-12.25,35.18-28.7,46.34-49.36,11.15-20.65,16.72-44.32,16.72-71.02s-5.67-50.46-17-71.29M1527.21,297.22c-5.31,9.51-12.43,16.91-21.39,22.21-8.96,5.31-19.28,7.96-30.98,7.96s-21.48-2.64-30.43-7.96c-8.96-5.29-15.99-12.69-21.11-22.21-5.13-9.5-7.68-20.29-7.68-32.36s2.55-22.85,7.68-32.36c5.11-9.5,12.15-16.91,21.11-22.21,8.95-5.3,19.28-7.96,30.98-7.96s21.94,2.65,30.71,7.96c8.77,5.31,15.8,12.7,21.11,22.21,5.3,9.51,7.95,20.29,7.95,32.36s-2.65,22.85-7.95,32.36"/>
          <path class="cls-2" d="M1147.07,404.15c-32.18,0-59.69-5.12-82.53-15.36-22.85-10.23-43.6-25.96-62.24-47.15l55.93-55.93c12.42,14.26,26.22,25.32,41.4,33.18,15.17,7.87,32.81,11.79,52.92,11.79,17.91,0,31.89-3.38,41.95-10.14,10.05-6.76,15.08-15.99,15.08-27.69,0-10.23-3.2-18.65-9.59-25.23-6.4-6.58-15.08-12.24-26.04-17-10.97-4.75-22.85-9.22-35.65-13.44-12.8-4.2-25.69-9.22-38.66-15.08-12.98-5.84-24.87-12.97-35.65-21.39-10.79-8.41-19.46-19.2-26.05-32.36-6.58-13.16-9.87-29.43-9.87-48.81,0-24.13,5.75-44.78,17.27-61.96,11.52-17.18,27.69-30.24,48.53-39.21,20.84-8.95,44.42-13.43,70.74-13.43s52.28,4.76,74.58,14.26c22.3,9.51,40.76,22.31,55.38,38.39l-56.49,56.48c-11.71-12.07-23.49-21.02-35.37-26.87-11.89-5.84-25.14-8.77-39.76-8.77s-26.87,2.83-35.65,8.5c-8.78,5.67-13.16,13.81-13.16,24.41,0,9.51,3.29,17.27,9.87,23.3,6.58,6.03,15.26,11.24,26.04,15.63,10.78,4.39,22.67,8.77,35.65,13.16,12.97,4.39,25.96,9.41,38.94,15.08,12.97,5.67,24.76,13.07,35.37,22.21,10.6,9.14,19.27,20.48,26.04,34,6.76,13.53,10.15,30.53,10.15,51,0,36.92-13.16,65.9-39.49,86.92-26.32,21.03-62.88,31.53-109.68,31.53"/>
          <rect class="cls-2" x="889.72" width="84.45" height="398.12"/>
          <rect class="cls-2" x="756.03" width="84.45" height="398.12"/>
          <path class="cls-2" d="M664.96,95.42c-12.8,0-23.58-4.57-32.36-13.71-8.78-9.13-13.16-20.1-13.16-32.91s4.39-24.13,13.16-32.9c8.77-8.77,19.55-13.16,32.36-13.16,13.52,0,24.4,4.39,32.63,13.16,8.23,8.77,12.34,19.74,12.34,32.9s-4.12,23.77-12.34,32.91c-8.23,9.14-19.1,13.71-32.63,13.71M622.74,131.61h84.45v266.52h-84.45V131.61Z"/>
          <polygon class="cls-2" points="501.3 256.89 598.12 131.61 504.35 131.61 418.25 251.53 418.25 0 333.79 0 333.79 398.12 418.25 398.12 418.25 268.93 504.89 398.12 604.15 398.12 501.3 256.89"/>
          <path class="cls-2" d="M144.78,404.15c-32.18,0-59.69-5.12-82.53-15.36C39.39,378.57,18.65,362.84,0,341.64l55.93-55.93c12.43,14.26,26.22,25.32,41.4,33.18,15.17,7.87,32.81,11.79,52.92,11.79,17.91,0,31.89-3.38,41.95-10.14,10.05-6.76,15.08-15.99,15.08-27.69,0-10.23-3.2-18.65-9.59-25.23-6.4-6.58-15.08-12.24-26.04-17-10.97-4.75-22.85-9.22-35.65-13.44-12.8-4.2-25.69-9.22-38.66-15.08-12.98-5.84-24.87-12.97-35.65-21.39-10.79-8.41-19.46-19.2-26.04-32.36-6.58-13.16-9.87-29.43-9.87-48.81,0-24.13,5.75-44.78,17.27-61.96,11.52-17.18,27.69-30.24,48.53-39.21,20.84-8.95,44.42-13.43,70.74-13.43s52.28,4.76,74.58,14.26c22.3,9.51,40.76,22.31,55.38,38.39l-56.48,56.48c-11.71-12.07-23.49-21.02-35.37-26.87-11.89-5.84-25.14-8.77-39.76-8.77s-26.87,2.83-35.65,8.5c-8.78,5.67-13.16,13.81-13.16,24.41,0,9.51,3.29,17.27,9.87,23.3,6.58,6.03,15.26,11.24,26.04,15.63,10.78,4.39,22.67,8.77,35.65,13.16,12.97,4.39,25.96,9.41,38.94,15.08,12.97,5.67,24.77,13.07,35.37,22.21,10.6,9.14,19.27,20.48,26.05,34,6.76,13.53,10.14,30.53,10.14,51,0,36.92-13.16,65.9-39.49,86.92-26.32,21.03-62.88,31.53-109.68,31.53"/>
        </g>
      </g>
    </g>
  </g>
</svg>