<?xml version="1.0" encoding="UTF-8"?>
<svg id="Layer_2" data-name="Layer 2" xmlns="http://www.w3.org/2000/svg" xmlns:xlink="http://www.w3.org/1999/xlink" viewBox="0 0 1947.31 512">
  <defs>
    <style>
      .cls-1 {
        fill: none;
      }

      .cls-2 {
        fill: #f5f0e8;
      }

      .cls-3 {
        clip-path: url(#clippath-1);
      }

      .cls-4 {
        clip-path: url(#clippath-2);
      }

      .cls-5 {
        clip-path: url(#clippath);
      }
    </style>
    <clipPath id="clippath">
      <rect class="cls-1" width="1947.31" height="512"/>
    </clipPath>
    <clipPath id="clippath-1">
      <rect class="cls-1" y="395.21" width="1946.48" height="116.79"/>
    </clipPath>
    <clipPath id="clippath-2">
      <rect class="cls-1" y="0" width="1946.48" height="397.49"/>
    </clipPath>
  </defs>
  <g id="SkillSpoke_Assets" data-name="SkillSpoke Assets">
    <g id="lettermark_tagline_clear_ondark">
      <g class="cls-5">
        <polygon class="cls-2" points="0 396.11 0 485.63 14.66 485.63 14.66 444.95 84.48 444.95 84.48 437.39 14.66 437.39 14.66 403.68 91.81 403.68 91.81 396.11 0 396.11"/>
        <g class="cls-3">
          <path class="cls-2" d="M115.59,406.57c-2.79,0-5.2-.56-7.22-1.68-2.03-1.12-3.04-2.46-3.04-4.03s1.01-2.89,3.04-4c2.02-1.1,4.43-1.65,7.22-1.65s5.2.55,7.22,1.65c2.02,1.1,3.04,2.43,3.04,4s-1.01,2.91-3.04,4.03c-2.02,1.12-4.43,1.68-7.22,1.68M108.57,419.3h14.03v66.32h-14.03v-66.32Z"/>
          <path class="cls-2" d="M157.68,444.53v41.09h-14.03v-66.32h13.5l.11,15.5h-2.51c3.21-5.77,8.24-9.95,15.08-12.56,6.84-2.6,14.69-3.9,23.55-3.9,7.88,0,14.85.95,20.88,2.85,6.04,1.9,10.77,4.67,14.19,8.29,3.42,3.63,5.13,8.1,5.13,13.43v42.71h-14.03v-42.11c0-5.53-2.69-9.87-8.06-13.04-5.37-3.17-12.56-4.75-21.56-4.75-6.07,0-11.55.74-16.44,2.22-4.89,1.48-8.74,3.62-11.57,6.43-2.83,2.8-4.24,6.19-4.24,10.15"/>
          <path class="cls-2" d="M296.51,487.01c-9.49,0-17.85-1.44-25.07-4.33-7.22-2.88-12.86-6.9-16.91-12.05-4.05-5.15-6.07-11.16-6.07-18.05s2.02-12.79,6.07-17.93c4.05-5.14,9.7-9.15,16.96-12.02,7.26-2.86,15.64-4.29,25.13-4.29,6.77,0,12.55.68,17.33,2.04,4.78,1.36,8.71,3.09,11.78,5.17,3.07,2.08,5.41,4.23,7.02,6.43h.94v-35.86h14.03v89.51h-13.61v-12.43h-1.26c-1.68,2.24-4.08,4.42-7.22,6.52-3.14,2.1-7.09,3.85-11.83,5.23-4.75,1.38-10.51,2.07-17.27,2.07M298.39,479.68c7.47,0,13.87-1.15,19.21-3.45,5.34-2.31,9.42-5.5,12.25-9.58,2.83-4.08,4.24-8.79,4.24-14.12s-1.41-9.95-4.24-14c-2.83-4.04-6.89-7.2-12.2-9.46-5.3-2.26-11.73-3.39-19.26-3.39s-13.96,1.15-19.26,3.45c-5.3,2.3-9.37,5.48-12.2,9.52-2.83,4.05-4.24,8.67-4.24,13.88s1.41,9.86,4.24,13.97c2.83,4.11,6.91,7.33,12.25,9.67,5.34,2.35,11.74,3.52,19.21,3.52"/>
          <path class="cls-2" d="M438.91,485.63l-34.76-66.32h14.76l17.8,35.68c1.81,3.6,3.65,7.49,5.5,11.65,1.85,4.17,3.72,8.67,5.6,13.52h-2.41c1.88-4.72,3.77-9.17,5.65-13.34,1.88-4.16,3.77-8.11,5.65-11.83l18.74-35.68h15.08l18.53,35.68c1.88,3.65,3.77,7.55,5.65,11.72,1.88,4.17,3.77,8.65,5.65,13.46h-2.62c1.95-4.76,3.85-9.22,5.7-13.37,1.85-4.15,3.68-8.08,5.5-11.81l17.8-35.68h14.76l-34.65,66.32h-14.76l-19.89-37.31c-1.33-2.56-2.6-5.14-3.82-7.72-1.22-2.58-2.43-5.21-3.61-7.87-1.19-2.66-2.41-5.37-3.66-8.14h3.56c-1.19,2.73-2.39,5.43-3.61,8.11-1.22,2.68-2.46,5.33-3.72,7.93-1.26,2.6-2.51,5.17-3.77,7.69l-19.99,37.31h-14.66Z"/>
          <path class="cls-2" d="M586.63,444.53v41.09h-14.03v-89.51h14.03v38.69h-2.93c3.21-5.77,8.23-9.95,15.08-12.56,6.84-2.6,14.69-3.9,23.55-3.9,7.89,0,14.85.95,20.89,2.85,6.04,1.9,10.77,4.67,14.19,8.29,3.42,3.63,5.13,8.1,5.13,13.43v42.71h-14.03v-42.11c0-5.53-2.69-9.87-8.06-13.04-5.37-3.17-12.56-4.75-21.56-4.75-6.07,0-11.55.74-16.44,2.22-4.89,1.48-8.74,3.62-11.57,6.43-2.83,2.8-4.24,6.19-4.24,10.15"/>
          <path class="cls-2" d="M730.28,487.01c-10.82,0-20.19-1.45-28.11-4.35-7.92-2.9-14.03-6.93-18.32-12.08-4.29-5.15-6.44-11.06-6.44-17.75s2.15-12.69,6.44-17.87c4.29-5.18,10.27-9.25,17.95-12.19,7.68-2.94,16.51-4.42,26.49-4.42,6.7,0,13.03.69,19,2.07,5.97,1.38,11.27,3.47,15.91,6.25,4.64,2.78,8.29,6.25,10.94,10.39,2.65,4.14,3.98,8.98,3.98,14.51v3.25h-91.81v-6.97h84.17l-6.38,2.59c0-4.81-1.45-9.08-4.34-12.83-2.9-3.74-7.01-6.69-12.35-8.83-5.34-2.14-11.71-3.21-19.1-3.21s-13.75,1.1-19.26,3.31c-5.52,2.2-9.81,5.14-12.88,8.8-3.07,3.66-4.61,7.74-4.61,12.23v3.9c0,5.21,1.57,9.75,4.71,13.64,3.14,3.89,7.62,6.91,13.45,9.07,5.83,2.16,12.68,3.24,20.57,3.24,5.51,0,10.38-.5,14.6-1.5,4.22-1,7.78-2.37,10.68-4.11,2.9-1.74,5.04-3.68,6.44-5.8l13.5,1.93c-1.74,3.04-4.67,5.85-8.79,8.41-4.12,2.56-9.27,4.6-15.44,6.1-6.17,1.5-13.17,2.25-20.99,2.25"/>
          <path class="cls-2" d="M792.47,485.63v-66.32h13.51v10.45h.94c2.3-3.4,6.28-6.15,11.94-8.23,5.65-2.08,12.14-3.12,19.47-3.12,1.11,0,2.32.02,3.61.06,1.29.04,2.36.06,3.19.06v8.11c-.49-.08-1.52-.17-3.09-.27-1.57-.1-3.3-.15-5.18-.15-5.8,0-10.99.72-15.6,2.16-4.61,1.44-8.22,3.44-10.84,6.01-2.62,2.56-3.93,5.55-3.93,8.95v42.29h-14.03Z"/>
          <path class="cls-2" d="M897.28,487.01c-10.82,0-20.19-1.45-28.11-4.35-7.92-2.9-14.03-6.93-18.32-12.08-4.29-5.15-6.44-11.06-6.44-17.75s2.15-12.69,6.44-17.87c4.29-5.18,10.27-9.25,17.95-12.19,7.68-2.94,16.51-4.42,26.49-4.42,6.7,0,13.03.69,19,2.07,5.97,1.38,11.27,3.47,15.91,6.25,4.64,2.78,8.29,6.25,10.94,10.39,2.65,4.14,3.98,8.98,3.98,14.51v3.25h-91.81v-6.97h84.17l-6.38,2.59c0-4.81-1.45-9.08-4.34-12.83-2.9-3.74-7.01-6.69-12.35-8.83-5.34-2.14-11.71-3.21-19.1-3.21s-13.75,1.1-19.26,3.31c-5.52,2.2-9.81,5.14-12.88,8.8-3.07,3.66-4.61,7.74-4.61,12.23v3.9c0,5.21,1.57,9.75,4.71,13.64,3.14,3.89,7.62,6.91,13.45,9.07,5.83,2.16,12.68,3.24,20.57,3.24,5.51,0,10.38-.5,14.6-1.5,4.22-1,7.78-2.37,10.68-4.11,2.9-1.74,5.04-3.68,6.44-5.8l13.5,1.93c-1.74,3.04-4.67,5.85-8.79,8.41-4.12,2.56-9.27,4.6-15.44,6.1-6.18,1.5-13.17,2.25-20.99,2.25"/>
          <path class="cls-2" d="M1002.2,510.02l2.93-7.03,3.66.24c3.84.56,7.29.66,10.37.3,3.07-.36,5.82-1.32,8.27-2.89,2.44-1.56,4.61-3.82,6.49-6.79l5.13-7.87-44.7-66.68h15.28l26.8,41.45c2.44,3.64,4.61,7.28,6.49,10.9,1.88,3.63,3.8,7.2,5.76,10.72h-4.71c1.95-3.52,3.89-7.1,5.81-10.72,1.92-3.62,4.06-7.26,6.44-10.9l26.9-41.45h15.18l-52.03,77.5c-2.16,3.25-4.75,5.93-7.75,8.05-3,2.12-6.46,3.69-10.36,4.71-3.91,1.02-8.31,1.53-13.19,1.53-2.65,0-5.08-.11-7.27-.33-2.2-.22-4.03-.47-5.5-.75"/>
          <path class="cls-2" d="M1149.82,487.01c-10.05,0-18.95-1.45-26.69-4.35-7.75-2.91-13.8-6.94-18.16-12.1-4.36-5.17-6.54-11.1-6.54-17.78s2.18-12.8,6.54-17.97c4.36-5.16,10.42-9.2,18.16-12.1,7.75-2.9,16.65-4.36,26.69-4.36s19.14,1.45,26.85,4.36c7.71,2.9,13.75,6.95,18.11,12.13,4.36,5.19,6.54,11.17,6.54,17.93s-2.18,12.62-6.54,17.78c-4.36,5.16-10.4,9.2-18.11,12.1-7.71,2.9-16.66,4.35-26.85,4.35M1149.82,479.74c7.96,0,14.71-1.21,20.26-3.63,5.55-2.42,9.79-5.68,12.72-9.76,2.93-4.08,4.4-8.61,4.4-13.58s-1.46-9.62-4.4-13.73c-2.93-4.11-7.19-7.37-12.77-9.79-5.58-2.42-12.32-3.64-20.2-3.64s-14.5,1.22-20.05,3.67c-5.55,2.44-9.79,5.71-12.72,9.79-2.93,4.08-4.4,8.65-4.4,13.7s1.46,9.54,4.4,13.6c2.93,4.07,7.17,7.31,12.72,9.74,5.55,2.42,12.23,3.63,20.05,3.63"/>
          <path class="cls-2" d="M1256.4,486.59c-7.82,0-14.76-.95-20.83-2.85-6.07-1.9-10.82-4.68-14.24-8.35-3.42-3.66-5.13-8.12-5.13-13.36v-42.71h14.03v42.11c0,5.53,2.69,9.87,8.06,13.04,5.37,3.16,12.56,4.75,21.56,4.75,6.07,0,11.55-.74,16.44-2.22,4.89-1.48,8.74-3.63,11.57-6.46,2.83-2.82,4.24-6.2,4.24-10.12v-41.09h14.03v66.32h-13.61v-15.5h2.51c-3.28,5.81-8.36,10-15.23,12.58-6.88,2.59-14.67,3.88-23.4,3.88"/>
          <path class="cls-2" d="M1423.82,487.01c-6.7,0-12.44-.69-17.22-2.07-4.78-1.38-8.72-3.13-11.83-5.23-3.1-2.1-5.53-4.27-7.27-6.52h-1.26v12.43h-13.61v-89.51h14.03v35.86h.94c1.68-2.2,4.05-4.34,7.12-6.43,3.07-2.08,6.98-3.81,11.72-5.17,4.75-1.36,10.5-2.04,17.27-2.04,9.56,0,17.95,1.43,25.18,4.29,7.22,2.87,12.86,6.87,16.91,12.02,4.05,5.15,6.07,11.13,6.07,17.93s-2.01,12.91-6.02,18.05c-4.01,5.15-9.63,9.16-16.85,12.05-7.22,2.88-15.62,4.33-25.18,4.33M1421.94,479.68c7.54,0,13.96-1.17,19.26-3.52,5.3-2.34,9.37-5.56,12.2-9.67,2.83-4.11,4.24-8.76,4.24-13.97s-1.4-9.83-4.19-13.88c-2.79-4.04-6.86-7.22-12.2-9.52-5.34-2.3-11.78-3.45-19.31-3.45s-13.87,1.13-19.21,3.39c-5.34,2.26-9.41,5.42-12.2,9.46-2.79,4.05-4.19,8.71-4.19,14s1.4,10.03,4.19,14.12c2.79,4.08,6.86,7.28,12.2,9.58,5.34,2.3,11.74,3.45,19.21,3.45"/>
          <path class="cls-2" d="M1533.44,487.01c-10.82,0-20.19-1.45-28.11-4.35s-14.03-6.93-18.32-12.08c-4.29-5.15-6.44-11.06-6.44-17.75s2.15-12.69,6.44-17.87c4.29-5.18,10.27-9.25,17.95-12.19,7.68-2.94,16.5-4.42,26.48-4.42,6.7,0,13.03.69,19,2.07,5.97,1.38,11.27,3.47,15.91,6.25,4.64,2.78,8.29,6.25,10.94,10.39,2.65,4.14,3.98,8.98,3.98,14.51v3.25h-91.81v-6.97h84.17l-6.39,2.59c0-4.81-1.45-9.08-4.34-12.83-2.9-3.74-7.02-6.69-12.35-8.83-5.34-2.14-11.71-3.21-19.11-3.21s-13.75,1.1-19.26,3.31c-5.52,2.2-9.81,5.14-12.88,8.8-3.07,3.66-4.61,7.74-4.61,12.23v3.9c0,5.21,1.57,9.75,4.71,13.64,3.14,3.89,7.62,6.91,13.45,9.07,5.83,2.16,12.68,3.24,20.57,3.24,5.51,0,10.38-.5,14.6-1.5,4.22-1,7.78-2.37,10.68-4.11,2.9-1.74,5.04-3.68,6.44-5.8l13.5,1.93c-1.74,3.04-4.67,5.85-8.79,8.41-4.12,2.56-9.27,4.6-15.44,6.1-6.18,1.5-13.17,2.25-20.99,2.25"/>
          <rect class="cls-2" x="1595.64" y="396.11" width="14.03" height="89.52"/>
          <path class="cls-2" d="M1675.94,487.01c-10.05,0-18.95-1.45-26.69-4.35-7.75-2.91-13.8-6.94-18.17-12.1-4.36-5.17-6.54-11.1-6.54-17.78s2.18-12.8,6.54-17.97c4.36-5.16,10.42-9.2,18.17-12.1,7.75-2.9,16.65-4.36,26.69-4.36s19.14,1.45,26.85,4.36c7.71,2.9,13.75,6.95,18.11,12.13,4.36,5.19,6.54,11.17,6.54,17.93s-2.18,12.62-6.54,17.78c-4.36,5.16-10.4,9.2-18.11,12.1-7.71,2.9-16.66,4.35-26.85,4.35M1675.94,479.74c7.95,0,14.71-1.21,20.26-3.63,5.55-2.42,9.79-5.68,12.72-9.76,2.93-4.08,4.4-8.61,4.4-13.58s-1.47-9.62-4.4-13.73c-2.93-4.11-7.19-7.37-12.77-9.79-5.58-2.42-12.32-3.64-20.2-3.64s-14.5,1.22-20.05,3.67c-5.55,2.44-9.79,5.71-12.72,9.79-2.93,4.08-4.4,8.65-4.4,13.7s1.47,9.54,4.4,13.6c2.93,4.07,7.17,7.31,12.72,9.74,5.55,2.42,12.23,3.63,20.05,3.63"/>
          <path class="cls-2" d="M1756.36,444.53v41.09h-14.03v-66.32h13.5l.1,15.5h-2.51c3.21-5.77,8.23-9.95,15.08-12.56,6.84-2.6,14.69-3.9,23.56-3.9,7.89,0,14.85.95,20.89,2.85,6.03,1.9,10.77,4.67,14.18,8.29,3.42,3.63,5.13,8.1,5.13,13.43v42.71h-14.03v-42.11c0-5.53-2.69-9.87-8.06-13.04-5.37-3.17-12.56-4.75-21.56-4.75-6.07,0-11.55.74-16.44,2.22-4.89,1.48-8.74,3.62-11.57,6.43-2.83,2.8-4.24,6.19-4.24,10.15"/>
          <path class="cls-2" d="M1898.11,512c-8.03,0-15.13-.62-21.3-1.86-6.18-1.24-11.3-2.97-15.39-5.2-4.08-2.22-7.14-4.82-9.16-7.78l12.25-3.18c1.53,1.92,3.71,3.71,6.54,5.37,2.83,1.66,6.46,2.99,10.89,4,4.43,1,9.82,1.5,16.17,1.5,10.47,0,18.83-1.51,25.07-4.54,6.25-3.02,9.37-7.6,9.37-13.73v-14.36h-1.15c-1.75,2.24-4.17,4.35-7.28,6.34-3.1,1.98-7.03,3.61-11.78,4.87-4.75,1.26-10.47,1.89-17.17,1.89-9.28,0-17.55-1.33-24.81-4-7.26-2.66-12.94-6.46-17.06-11.38-4.12-4.93-6.18-10.79-6.18-17.6s2.04-12.7,6.12-17.81c4.08-5.11,9.75-9.08,17.01-11.93,7.26-2.84,15.63-4.27,25.12-4.27,6.77,0,12.54.68,17.33,2.04,4.78,1.36,8.72,3.1,11.83,5.2,3.1,2.1,5.49,4.26,7.17,6.46h1.15v-12.74h13.61v67.59c0,5.72-2.09,10.45-6.28,14.17-4.19,3.73-9.93,6.48-17.22,8.26-7.3,1.78-15.58,2.67-24.86,2.67M1897.28,478.06c7.4,0,13.75-1.04,19.05-3.12,5.3-2.08,9.39-5.06,12.25-8.92,2.86-3.86,4.29-8.46,4.29-13.79s-1.4-9.8-4.19-13.79c-2.79-3.99-6.86-7.11-12.2-9.37-5.34-2.26-11.74-3.4-19.21-3.4s-13.99,1.15-19.37,3.46-9.47,5.45-12.3,9.43c-2.83,3.99-4.24,8.54-4.24,13.67s1.43,9.69,4.29,13.58c2.86,3.89,6.96,6.9,12.3,9.04,5.34,2.14,11.78,3.22,19.31,3.22"/>
        </g>
        <g class="cls-4">
          <path class="cls-2" d="M1932.82,147.73c-9.11-15.65-21.5-27.89-37.14-36.72-15.66-8.82-33.88-13.24-54.66-13.24s-39.99,4.7-56.78,14.09c-16.8,9.39-30.04,22.27-39.7,38.64-9.68,16.37-14.52,34.8-14.52,55.29s4.98,39.85,14.95,56.36c9.96,16.51,23.62,29.39,40.98,38.64,17.36,9.25,37.29,13.88,59.77,13.88,17.65,0,33.73-2.92,48.24-8.76,14.52-5.83,26.9-14.87,37.15-27.11l-36.3-35.87c-6.27,7.12-13.52,12.45-21.78,16.01-8.26,3.56-17.37,5.34-27.33,5.34-11.1,0-20.71-2.35-28.82-7.04-8.11-4.7-14.38-11.46-18.79-20.28-1.37-2.74-2.53-5.64-3.48-8.68l148.43-.71c1.42-5.12,2.34-9.74,2.77-13.87.43-4.12.64-8.18.64-12.17,0-20.21-4.56-38.14-13.66-53.79M1815.19,154.99c7.54-4.84,16.44-7.26,26.68-7.26,9.39,0,17.43,2.14,24.12,6.4,6.68,4.27,11.74,10.32,15.16,18.14,1.35,3.1,2.45,6.51,3.31,10.21l-89.87.51c.85-2.79,1.88-5.44,3.09-7.94,4.12-8.54,9.96-15.23,17.51-20.07"/>
          <polygon class="cls-2" points="1738.65 309.97 1658.57 200.02 1733.95 102.47 1660.94 102.47 1593.9 195.84 1593.9 0 1528.15 0 1528.15 309.97 1593.9 309.97 1593.9 209.39 1661.36 309.97 1738.65 309.97"/>
          <path class="cls-2" d="M1389.3,314.67c-21.64,0-40.99-4.84-58.06-14.52-17.08-9.67-30.6-22.77-40.56-39.28-9.97-16.51-14.95-35.01-14.95-55.5s4.92-38.42,14.73-54.65c9.82-16.23,23.27-29.1,40.35-38.64,17.08-9.53,36.57-14.3,58.49-14.3s40.63,4.7,57.85,14.09c17.22,9.4,30.81,22.27,40.78,38.64,9.96,16.37,14.94,34.66,14.94,54.87s-4.98,39.35-14.94,55.72c-9.97,16.37-23.49,29.39-40.57,39.07-17.08,9.68-36.43,14.52-58.06,14.52M1389.3,254.9c9.11,0,17.22-1.99,24.34-5.98,7.11-3.98,12.59-9.74,16.44-17.29,3.84-7.54,5.76-16.15,5.76-25.83s-2-17.72-5.98-24.98c-3.99-7.26-9.46-12.95-16.44-17.08-6.98-4.12-15.01-6.2-24.12-6.2s-17.23,2.07-24.34,6.2c-7.12,4.13-12.67,9.89-16.65,17.29-3.99,7.41-5.98,15.66-5.98,24.77,0,9.68,1.99,18.29,5.98,25.83,3.98,7.55,9.53,13.31,16.65,17.29,7.11,3.99,15.22,5.98,24.34,5.98"/>
          <path class="cls-2" d="M1248.62,150.72c-8.83-16.23-20.85-29.04-36.08-38.43-15.23-9.39-32.52-14.09-51.88-14.09-13.95,0-26.75,2.85-38.42,8.54-5.97,2.91-11.37,6.37-16.23,10.36v-14.63h-65.75v295.03h64.9v-101.67c4.94,4.01,10.48,7.45,16.65,10.31,11.67,5.4,24.62,8.11,38.85,8.11,19.35,0,36.72-4.77,52.09-14.3,15.37-9.53,27.39-22.34,36.08-38.43,8.68-16.08,13.02-34.51,13.02-55.29s-4.42-39.29-13.24-55.5M1189.07,231.41c-4.13,7.41-9.68,13.17-16.65,17.29-6.98,4.13-15.02,6.2-24.12,6.2s-16.72-2.06-23.69-6.2c-6.98-4.12-12.45-9.88-16.44-17.29-3.99-7.4-5.98-15.8-5.98-25.19s1.99-17.79,5.98-25.19c3.98-7.4,9.46-13.17,16.44-17.29,6.97-4.12,15.01-6.2,24.12-6.2s17.08,2.07,23.91,6.2c6.83,4.13,12.31,9.89,16.44,17.29,4.12,7.41,6.19,15.8,6.19,25.19s-2.06,17.79-6.19,25.19"/>
          <path class="cls-2" d="M893.1,314.67c-25.05,0-46.47-3.99-64.26-11.96-17.79-7.97-33.94-20.21-48.46-36.72l43.55-43.55c9.67,11.1,20.42,19.71,32.23,25.83,11.81,6.13,25.54,9.18,41.2,9.18,13.94,0,24.83-2.63,32.66-7.9,7.83-5.26,11.74-12.45,11.74-21.56,0-7.97-2.49-14.52-7.47-19.64-4.98-5.12-11.74-9.53-20.28-13.24-8.54-3.7-17.79-7.18-27.76-10.47-9.97-3.27-20-7.18-30.1-11.74-10.11-4.55-19.36-10.1-27.76-16.65-8.4-6.55-15.15-14.95-20.28-25.19-5.12-10.25-7.68-22.91-7.68-38,0-18.79,4.48-34.87,13.45-48.24,8.97-13.38,21.56-23.55,37.79-30.53,16.23-6.97,34.59-10.46,55.08-10.46s40.71,3.7,58.06,11.1c17.36,7.41,31.74,17.37,43.12,29.89l-43.98,43.97c-9.11-9.39-18.29-16.37-27.54-20.92-9.25-4.55-19.57-6.83-30.95-6.83s-20.92,2.2-27.75,6.61c-6.83,4.42-10.25,10.75-10.25,19.01,0,7.41,2.56,13.45,7.69,18.14,5.12,4.7,11.88,8.75,20.28,12.17,8.39,3.42,17.65,6.83,27.76,10.25,10.1,3.42,20.21,7.33,30.32,11.74,10.1,4.42,19.28,10.18,27.54,17.29,8.25,7.12,15.01,15.95,20.28,26.47,5.26,10.54,7.9,23.77,7.9,39.71,0,28.75-10.25,51.31-30.74,67.68-20.5,16.37-48.96,24.55-85.39,24.55"/>
          <rect class="cls-2" x="692.73" width="65.75" height="309.97"/>
          <rect class="cls-2" x="588.64" width="65.75" height="309.97"/>
          <path class="cls-2" d="M517.73,74.29c-9.97,0-18.36-3.56-25.19-10.67-6.83-7.11-10.25-15.65-10.25-25.62s3.42-18.79,10.25-25.62c6.83-6.83,15.23-10.25,25.19-10.25,10.53,0,19,3.42,25.4,10.25,6.41,6.83,9.6,15.37,9.6,25.62s-3.21,18.51-9.6,25.62c-6.4,7.12-14.88,10.67-25.4,10.67M484.86,102.47h65.75v207.51h-65.75V102.47Z"/>
          <polygon class="cls-2" points="390.31 200.02 465.69 102.47 392.68 102.47 325.65 195.84 325.65 0 259.89 0 259.89 309.97 325.65 309.97 325.65 209.39 393.11 309.97 470.39 309.97 390.31 200.02"/>
          <path class="cls-2" d="M112.72,314.67c-25.05,0-46.47-3.99-64.26-11.96C30.67,294.75,14.52,282.51,0,266l43.55-43.55c9.67,11.1,20.42,19.71,32.24,25.83,11.81,6.13,25.54,9.18,41.2,9.18,13.94,0,24.83-2.63,32.66-7.9,7.83-5.26,11.74-12.45,11.74-21.56,0-7.97-2.49-14.52-7.47-19.64-4.98-5.12-11.74-9.53-20.28-13.24-8.54-3.7-17.79-7.18-27.76-10.47-9.97-3.27-20-7.18-30.1-11.74-10.11-4.55-19.36-10.1-27.76-16.65-8.4-6.55-15.15-14.95-20.28-25.19-5.12-10.25-7.69-22.91-7.69-38,0-18.79,4.48-34.87,13.45-48.24,8.97-13.38,21.56-23.55,37.79-30.53,16.23-6.97,34.59-10.46,55.08-10.46s40.7,3.7,58.06,11.1c17.36,7.41,31.74,17.37,43.12,29.89l-43.97,43.97c-9.11-9.39-18.29-16.37-27.54-20.92-9.25-4.55-19.57-6.83-30.95-6.83s-20.92,2.2-27.76,6.61c-6.83,4.42-10.25,10.75-10.25,19.01,0,7.41,2.56,13.45,7.69,18.14,5.12,4.7,11.88,8.75,20.28,12.17,8.39,3.42,17.65,6.83,27.76,10.25,10.1,3.42,20.21,7.33,30.32,11.74,10.1,4.42,19.29,10.18,27.54,17.29,8.25,7.12,15.01,15.95,20.28,26.47,5.26,10.54,7.9,23.77,7.9,39.71,0,28.75-10.25,51.31-30.74,67.68-20.5,16.37-48.96,24.55-85.39,24.55"/>
        </g>
      </g>
    </g>
  </g>
</svg>