<?xml version="1.0" encoding="UTF-8"?>
<svg id="Layer_2" data-name="Layer 2" xmlns="http://www.w3.org/2000/svg" xmlns:xlink="http://www.w3.org/1999/xlink" viewBox="0 0 512 512">
  <defs>
    <style>
      .cls-1 {
        fill: none;
      }

      .cls-2 {
        fill: url(#linear-gradient-5);
      }

      .cls-3 {
        fill: url(#linear-gradient-4);
      }

      .cls-4 {
        fill: url(#linear-gradient-3);
      }

      .cls-5 {
        fill: url(#linear-gradient-2);
      }

      .cls-6 {
        fill: url(#linear-gradient);
      }

      .cls-7 {
        clip-path: url(#clippath-1);
      }

      .cls-8 {
        clip-path: url(#clippath-3);
      }

      .cls-9 {
        clip-path: url(#clippath-4);
      }

      .cls-10 {
        clip-path: url(#clippath-2);
      }

      .cls-11 {
        clip-path: url(#clippath-5);
      }

      .cls-12 {
        clip-path: url(#clippath);
      }
    </style>
    <clipPath id="clippath">
      <rect class="cls-1" x="0" width="512" height="512"/>
    </clipPath>
    <clipPath id="clippath-1">
      <path class="cls-1" d="M181.32,256c0,41.75,34.04,75.71,75.88,75.71s75.88-33.96,75.88-75.71-34.04-75.71-75.88-75.71-75.88,33.97-75.88,75.71"/>
    </clipPath>
    <linearGradient id="linear-gradient" x1="3705.48" y1="-2988.87" x2="3706.48" y2="-2988.87" gradientTransform="translate(453468.24 -561692.52) rotate(90) scale(151.63 -151.63)" gradientUnits="userSpaceOnUse">
      <stop offset="0" stop-color="#f9d174"/>
      <stop offset=".34" stop-color="#f9d174"/>
      <stop offset=".95" stop-color="#ea9e39"/>
      <stop offset=".99" stop-color="#e99b35"/>
      <stop offset="1" stop-color="#e99b35"/>
    </linearGradient>
    <clipPath id="clippath-2">
      <path class="cls-1" d="M.61,256h0c0,141.4,114.87,256,256.56,256h.04v-83.59h-.04c-95.27,0-172.79-77.34-172.79-172.41H.61Z"/>
    </clipPath>
    <linearGradient id="linear-gradient-2" x1="3696.43" y1="-2971.31" x2="3697.43" y2="-2971.31" gradientTransform="translate(999931.35 -1243607.99) rotate(90) scale(336.49 -336.49)" gradientUnits="userSpaceOnUse">
      <stop offset="0" stop-color="#d4c3ad"/>
      <stop offset=".28" stop-color="#d1bfa8"/>
      <stop offset=".57" stop-color="#cab59c"/>
      <stop offset=".86" stop-color="#bea488"/>
      <stop offset="1" stop-color="#b79a7c"/>
    </linearGradient>
    <clipPath id="clippath-3">
      <path class="cls-1" d="M428.21,280.9h0,0ZM428.22,280.9c-12.13,83.31-84.19,147.51-170.99,147.51h-.03v83.59h.03c131.39,0,239.71-98.56,254.77-225.62v-5.48h-83.78Z"/>
    </clipPath>
    <linearGradient id="linear-gradient-3" x1="3683.08" y1="-2951.84" x2="3684.08" y2="-2951.84" gradientTransform="translate(-1208101.47 -968025.91) scale(328.07 -328.07)" gradientUnits="userSpaceOnUse">
      <stop offset="0" stop-color="#4d4658"/>
      <stop offset=".25" stop-color="#50495a"/>
      <stop offset=".45" stop-color="#5a5363"/>
      <stop offset=".64" stop-color="#6b6472"/>
      <stop offset=".81" stop-color="#827b87"/>
      <stop offset=".9" stop-color="#918a94"/>
      <stop offset="1" stop-color="#918a94"/>
    </linearGradient>
    <clipPath id="clippath-4">
      <path class="cls-1" d="M257.2,0h0v27.87s0,55.73,0,55.73h.03c86.8,0,158.86,64.2,170.99,147.51h83.78v-5.57C496.9,98.51,388.6,0,257.23,0h-.03Z"/>
    </clipPath>
    <linearGradient id="linear-gradient-4" x1="3701.39" y1="-2941.27" x2="3702.39" y2="-2941.27" gradientTransform="translate(-964569.47 -1214377.27) rotate(90) scale(328.07)" xlink:href="#linear-gradient"/>
    <clipPath id="clippath-5">
      <path class="cls-1" d="M257.16,0C115.47,0,.6,114.61.6,256h83.78c0-95.07,77.51-172.41,172.79-172.41h.03V0h-.03Z"/>
    </clipPath>
    <linearGradient id="linear-gradient-5" x1="3683.9" y1="-2955.87" x2="3684.9" y2="-2955.87" gradientTransform="translate(-1336978.03 -1072527.95) scale(362.89 -362.89)" gradientUnits="userSpaceOnUse">
      <stop offset="0" stop-color="#4e485b"/>
      <stop offset=".02" stop-color="#544e60"/>
      <stop offset=".11" stop-color="#6a6372"/>
      <stop offset=".21" stop-color="#7b7480"/>
      <stop offset=".34" stop-color="#877f8a"/>
      <stop offset=".51" stop-color="#8e8690"/>
      <stop offset="1" stop-color="#908892"/>
    </linearGradient>
  </defs>
  <g id="SkillSpoke_Assets" data-name="SkillSpoke Assets">
    <g id="mark_clear_ondark">
      <g class="cls-12">
        <g class="cls-7">
          <rect class="cls-6" x="153.63" y="152.49" width="207.13" height="207.01" transform="translate(-93.54 162.9) rotate(-30)"/>
        </g>
        <g class="cls-10">
          <rect class="cls-5" x="-51.95" y="203.12" width="361.71" height="361.76" transform="translate(-244.47 226.94) rotate(-48.63)"/>
        </g>
        <g class="cls-8">
          <rect class="cls-4" x="220.83" y="228.34" width="327.54" height="336.21" transform="translate(-151.04 531.3) rotate(-60)"/>
        </g>
        <g class="cls-9">
          <rect class="cls-3" x="216.48" y="-48.22" width="336.23" height="327.55" transform="translate(-6.25 207.78) rotate(-30)"/>
        </g>
        <g class="cls-11">
          <rect class="cls-2" x="-52.33" y="-53.23" width="362.46" height="362.46" transform="translate(-52.76 128.63) rotate(-45)"/>
        </g>
      </g>
    </g>
  </g>
</svg>
