<?xml version="1.0" encoding="UTF-8"?>
<svg id="Layer_2" data-name="Layer 2" xmlns="http://www.w3.org/2000/svg" xmlns:xlink="http://www.w3.org/1999/xlink" viewBox="0 0 512 512">
  <defs>
    <style>
      .cls-1 {
        fill: none;
      }

      .cls-2 {
        fill: url(#linear-gradient-5);
      }

      .cls-3 {
        fill: url(#linear-gradient-4);
      }

      .cls-4 {
        fill: url(#linear-gradient-3);
      }

      .cls-5 {
        fill: url(#linear-gradient-2);
      }

      .cls-6 {
        fill: url(#linear-gradient);
      }

      .cls-7 {
        fill: #f5f0e8;
      }

      .cls-8 {
        clip-path: url(#clippath-1);
      }

      .cls-9 {
        clip-path: url(#clippath-3);
      }

      .cls-10 {
        clip-path: url(#clippath-4);
      }

      .cls-11 {
        clip-path: url(#clippath-2);
      }

      .cls-12 {
        clip-path: url(#clippath-6);
      }

      .cls-13 {
        clip-path: url(#clippath-5);
      }

      .cls-14 {
        clip-path: url(#clippath);
      }
    </style>
    <clipPath id="clippath">
      <rect class="cls-1" width="512" height="512"/>
    </clipPath>
    <clipPath id="clippath-1">
      <rect class="cls-1" y="406.29" width="512" height="104.65"/>
    </clipPath>
    <clipPath id="clippath-2">
      <path class="cls-1" d="M212.24,203.05c0,24.46,19.95,44.36,44.46,44.36s44.46-19.9,44.46-44.36-19.94-44.36-44.46-44.36-44.46,19.9-44.46,44.36"/>
    </clipPath>
    <linearGradient id="linear-gradient" x1="-174.35" y1="-3095.64" x2="-173.35" y2="-3095.64" gradientTransform="translate(275296.02 15649.75) rotate(90) scale(88.85 -88.85)" gradientUnits="userSpaceOnUse">
      <stop offset="0" stop-color="#f9d174"/>
      <stop offset=".34" stop-color="#f9d174"/>
      <stop offset=".95" stop-color="#ea9e39"/>
      <stop offset=".99" stop-color="#e99b35"/>
      <stop offset="1" stop-color="#e99b35"/>
    </linearGradient>
    <clipPath id="clippath-3">
      <path class="cls-1" d="M106.36,203.05h0c0,82.85,67.31,150,150.33,150h.02v-48.98h-.02c-55.82,0-101.24-45.32-101.24-101.02h-49.08Z"/>
    </clipPath>
    <linearGradient id="linear-gradient-2" x1="-197.69" y1="-3090.45" x2="-196.69" y2="-3090.45" gradientTransform="translate(609491.57 39139.37) rotate(90) scale(197.16 -197.16)" gradientUnits="userSpaceOnUse">
      <stop offset="0" stop-color="#d4c3ad"/>
      <stop offset=".28" stop-color="#d1bfa8"/>
      <stop offset=".57" stop-color="#cab59c"/>
      <stop offset=".86" stop-color="#bea488"/>
      <stop offset="1" stop-color="#b79a7c"/>
    </linearGradient>
    <clipPath id="clippath-4">
      <path class="cls-1" d="M356.91,217.64h0,0ZM356.91,217.64c-7.11,48.81-49.33,86.43-100.19,86.43h-.02v48.98h.02c76.99,0,140.46-57.75,149.28-132.2v-3.21h-49.09Z"/>
    </clipPath>
    <linearGradient id="linear-gradient-3" x1="-226.15" y1="-3087.77" x2="-225.15" y2="-3087.77" gradientTransform="translate(43708.94 -593280.6) scale(192.23 -192.23)" gradientUnits="userSpaceOnUse">
      <stop offset="0" stop-color="#4d4658"/>
      <stop offset=".25" stop-color="#50495a"/>
      <stop offset=".45" stop-color="#5a5363"/>
      <stop offset=".64" stop-color="#6b6472"/>
      <stop offset=".81" stop-color="#827b87"/>
      <stop offset=".9" stop-color="#918a94"/>
      <stop offset="1" stop-color="#918a94"/>
    </linearGradient>
    <clipPath id="clippath-5">
      <path class="cls-1" d="M256.7,53.05h0v16.33s0,32.65,0,32.65h.02c50.86,0,93.08,37.62,100.19,86.43h49.09v-3.26c-8.85-74.43-72.3-132.15-149.28-132.15h-.02Z"/>
    </clipPath>
    <linearGradient id="linear-gradient-4" x1="-193.81" y1="-3069.1" x2="-192.81" y2="-3069.1" gradientTransform="translate(-589645.11 37281.51) rotate(90) scale(192.23)" xlink:href="#linear-gradient"/>
    <clipPath id="clippath-6">
      <path class="cls-1" d="M256.68,53.05c-83.02,0-150.32,67.16-150.33,150h0s49.09,0,49.09,0c0-55.71,45.42-101.02,101.24-101.02h.02v-48.98h-.02Z"/>
    </clipPath>
    <linearGradient id="linear-gradient-5" x1="-221.76" y1="-3090.13" x2="-220.76" y2="-3090.13" gradientTransform="translate(47187.01 -656928.92) scale(212.63 -212.63)" gradientUnits="userSpaceOnUse">
      <stop offset="0" stop-color="#4e485b"/>
      <stop offset=".02" stop-color="#544e60"/>
      <stop offset=".11" stop-color="#6a6372"/>
      <stop offset=".21" stop-color="#7b7480"/>
      <stop offset=".34" stop-color="#877f8a"/>
      <stop offset=".51" stop-color="#8e8690"/>
      <stop offset="1" stop-color="#908892"/>
    </linearGradient>
  </defs>
  <g id="SkillSpoke_Assets" data-name="SkillSpoke Assets">
    <g id="squarelogo_clear_ondark">
      <g class="cls-14">
        <g class="cls-8">
          <path class="cls-7" d="M508.62,445.19c-2.4-4.12-5.66-7.34-9.78-9.67-4.12-2.32-8.92-3.49-14.39-3.49s-10.53,1.24-14.95,3.71c-4.42,2.47-7.91,5.86-10.45,10.17-2.55,4.31-3.82,9.16-3.82,14.56s1.31,10.49,3.93,14.84c2.62,4.35,6.22,7.74,10.79,10.17,4.57,2.44,9.82,3.66,15.74,3.66,4.65,0,8.88-.77,12.7-2.31,3.82-1.53,7.08-3.91,9.78-7.14l-9.55-9.44c-1.65,1.87-3.56,3.28-5.73,4.22-2.18.94-4.57,1.41-7.19,1.41-2.92,0-5.45-.62-7.59-1.85-2.14-1.24-3.79-3.02-4.95-5.34-.36-.72-.67-1.48-.92-2.29l39.08-.19c.37-1.35.62-2.57.73-3.65.11-1.08.17-2.15.17-3.2,0-5.32-1.2-10.04-3.6-14.16M477.66,447.1c1.98-1.27,4.33-1.91,7.02-1.91,2.47,0,4.59.56,6.35,1.69,1.76,1.12,3.09,2.72,3.99,4.78.36.81.65,1.71.87,2.69l-23.66.13c.22-.74.49-1.43.81-2.09,1.09-2.25,2.62-4.01,4.61-5.28"/>
          <polygon class="cls-7" points="457.5 487.9 436.42 458.95 456.27 433.27 437.05 433.27 419.4 457.85 419.4 406.29 402.09 406.29 402.09 487.9 419.4 487.9 419.4 461.42 437.16 487.9 457.5 487.9"/>
          <path class="cls-7" d="M365.53,489.14c-5.7,0-10.79-1.27-15.29-3.82-4.5-2.55-8.06-6-10.68-10.34-2.62-4.35-3.93-9.22-3.93-14.61s1.29-10.12,3.88-14.39c2.59-4.27,6.13-7.66,10.62-10.17,4.5-2.51,9.63-3.76,15.4-3.76s10.7,1.24,15.23,3.71c4.53,2.47,8.11,5.86,10.74,10.17,2.62,4.31,3.93,9.12,3.93,14.44s-1.31,10.36-3.93,14.67c-2.62,4.31-6.18,7.74-10.68,10.28-4.5,2.55-9.59,3.82-15.29,3.82M365.53,473.4c2.4,0,4.53-.52,6.41-1.57,1.87-1.05,3.32-2.56,4.33-4.55,1.01-1.99,1.52-4.25,1.52-6.8s-.52-4.66-1.57-6.58c-1.05-1.91-2.49-3.41-4.33-4.5-1.84-1.09-3.95-1.63-6.35-1.63s-4.54.54-6.41,1.63c-1.87,1.09-3.34,2.6-4.38,4.55-1.05,1.95-1.57,4.12-1.57,6.52,0,2.55.52,4.82,1.57,6.8,1.05,1.99,2.51,3.5,4.38,4.55,1.87,1.05,4.01,1.57,6.41,1.57"/>
          <path class="cls-7" d="M328.5,445.97c-2.32-4.27-5.49-7.64-9.5-10.12-4.01-2.47-8.56-3.71-13.66-3.71-3.67,0-7.04.75-10.12,2.25-1.57.77-2.99,1.68-4.27,2.73v-3.85h-17.31v77.67h17.08v-26.77c1.3,1.06,2.76,1.96,4.38,2.71,3.07,1.42,6.48,2.14,10.23,2.14,5.1,0,9.67-1.25,13.71-3.76,4.05-2.51,7.21-5.88,9.5-10.12,2.29-4.23,3.43-9.08,3.43-14.56s-1.16-10.34-3.48-14.61M312.82,467.22c-1.09,1.95-2.55,3.47-4.38,4.55-1.84,1.09-3.95,1.63-6.35,1.63s-4.4-.54-6.24-1.63c-1.84-1.08-3.28-2.6-4.33-4.55-1.05-1.95-1.57-4.16-1.57-6.63s.52-4.68,1.57-6.63c1.05-1.95,2.49-3.47,4.33-4.55,1.84-1.09,3.95-1.63,6.35-1.63s4.5.54,6.3,1.63c1.8,1.09,3.24,2.6,4.33,4.55,1.08,1.95,1.63,4.16,1.63,6.63s-.54,4.68-1.63,6.63"/>
          <path class="cls-7" d="M234.9,489.14c-6.6,0-12.24-1.05-16.92-3.15-4.69-2.1-8.94-5.32-12.76-9.66l11.46-11.46c2.55,2.92,5.38,5.19,8.49,6.8,3.11,1.61,6.73,2.42,10.85,2.42,3.67,0,6.54-.69,8.6-2.08,2.06-1.39,3.09-3.28,3.09-5.68,0-2.1-.66-3.82-1.97-5.17-1.31-1.35-3.09-2.51-5.34-3.49-2.25-.97-4.68-1.89-7.31-2.75-2.62-.86-5.26-1.89-7.92-3.09-2.66-1.2-5.1-2.66-7.31-4.38-2.21-1.72-3.99-3.93-5.34-6.63-1.35-2.7-2.02-6.03-2.02-10,0-4.95,1.18-9.18,3.54-12.7,2.36-3.52,5.68-6.2,9.95-8.04,4.27-1.84,9.11-2.75,14.5-2.75s10.72.98,15.29,2.92c4.57,1.95,8.36,4.57,11.35,7.87l-11.58,11.58c-2.4-2.47-4.82-4.31-7.25-5.51-2.44-1.2-5.15-1.8-8.15-1.8s-5.51.58-7.31,1.74c-1.8,1.16-2.7,2.83-2.7,5,0,1.95.68,3.54,2.02,4.78,1.35,1.24,3.13,2.3,5.34,3.2,2.21.9,4.65,1.8,7.31,2.7,2.66.9,5.32,1.93,7.98,3.09,2.66,1.16,5.07,2.68,7.25,4.55,2.17,1.88,3.95,4.2,5.34,6.97,1.39,2.77,2.08,6.26,2.08,10.46,0,7.57-2.7,13.51-8.09,17.82-5.4,4.31-12.89,6.46-22.48,6.46"/>
          <rect class="cls-7" x="182.15" y="406.29" width="17.31" height="81.61"/>
          <rect class="cls-7" x="154.75" y="406.29" width="17.31" height="81.61"/>
          <path class="cls-7" d="M136.08,425.85c-2.62,0-4.83-.94-6.63-2.81-1.8-1.87-2.7-4.12-2.7-6.75s.9-4.95,2.7-6.74c1.8-1.8,4.01-2.7,6.63-2.7,2.77,0,5,.9,6.69,2.7,1.69,1.8,2.53,4.05,2.53,6.74s-.85,4.87-2.53,6.75c-1.69,1.87-3.92,2.81-6.69,2.81M127.43,433.27h17.31v54.63h-17.31v-54.63Z"/>
          <polygon class="cls-7" points="102.54 458.95 122.38 433.27 103.16 433.27 85.51 457.85 85.51 406.3 68.2 406.3 68.2 487.9 85.51 487.9 85.51 461.42 103.27 487.9 123.62 487.9 102.54 458.95"/>
          <path class="cls-7" d="M29.46,489.14c-6.6,0-12.24-1.05-16.92-3.15-4.68-2.1-8.94-5.32-12.76-9.66l11.46-11.46c2.55,2.92,5.38,5.19,8.49,6.8,3.11,1.61,6.73,2.42,10.85,2.42,3.67,0,6.54-.69,8.6-2.08,2.06-1.39,3.09-3.28,3.09-5.68,0-2.1-.66-3.82-1.97-5.17-1.31-1.35-3.09-2.51-5.34-3.49-2.25-.97-4.68-1.89-7.31-2.75-2.62-.86-5.26-1.89-7.92-3.09-2.66-1.2-5.1-2.66-7.31-4.38-2.21-1.72-3.99-3.93-5.34-6.63-1.35-2.7-2.02-6.03-2.02-10,0-4.95,1.18-9.18,3.54-12.7,2.36-3.52,5.68-6.2,9.95-8.04,4.27-1.84,9.1-2.75,14.5-2.75s10.72.98,15.29,2.92c4.57,1.95,8.36,4.57,11.35,7.87l-11.58,11.58c-2.4-2.47-4.82-4.31-7.25-5.51-2.44-1.2-5.15-1.8-8.15-1.8s-5.51.58-7.31,1.74c-1.8,1.16-2.7,2.83-2.7,5,0,1.95.68,3.54,2.02,4.78,1.35,1.24,3.13,2.3,5.34,3.2,2.21.9,4.65,1.8,7.31,2.7,2.66.9,5.32,1.93,7.98,3.09,2.66,1.16,5.08,2.68,7.25,4.55,2.17,1.88,3.95,4.2,5.34,6.97,1.39,2.77,2.08,6.26,2.08,10.46,0,7.57-2.7,13.51-8.09,17.82-5.4,4.31-12.89,6.46-22.48,6.46"/>
        </g>
        <g class="cls-11">
          <rect class="cls-6" x="196.02" y="142.4" width="121.37" height="121.3" transform="translate(-67.13 155.56) rotate(-30)"/>
        </g>
        <g class="cls-9">
          <rect class="cls-5" x="75.56" y="172.07" width="211.94" height="211.97" transform="translate(-147.11 230.51) rotate(-48.63)"/>
        </g>
        <g class="cls-10">
          <rect class="cls-4" x="235.39" y="186.85" width="191.92" height="197" transform="translate(-81.44 429.63) rotate(-60)"/>
        </g>
        <g class="cls-13">
          <rect class="cls-3" x="232.85" y="24.8" width="197.01" height="191.92" transform="translate(-15.99 181.85) rotate(-30)"/>
        </g>
        <g class="cls-12">
          <rect class="cls-2" x="75.34" y="21.86" width="212.38" height="212.38" transform="translate(-37.38 165.86) rotate(-45)"/>
        </g>
      </g>
    </g>
  </g>
</svg>