<?xml version="1.0" encoding="UTF-8"?>
<svg id="Layer_2" data-name="Layer 2" xmlns="http://www.w3.org/2000/svg" xmlns:xlink="http://www.w3.org/1999/xlink" viewBox="0 0 750 45">
  <defs>
    <style>
      .cls-1 {
        fill: none;
      }

      .cls-2 {
        fill: #e8b031;
      }

      .cls-3 {
        clip-path: url(#clippath-1);
      }

      .cls-4 {
        clip-path: url(#clippath);
      }
    </style>
    <clipPath id="clippath">
      <rect class="cls-1" width="750" height="45"/>
    </clipPath>
    <clipPath id="clippath-1">
      <rect class="cls-1" width="750" height="45"/>
    </clipPath>
  </defs>
  <g id="SkillSpoke_Assets" data-name="SkillSpoke Assets">
    <g id="tagline_gold_clear_ondark">
      <g class="cls-4">
        <polygon class="cls-2" points="0 .35 0 34.84 5.65 34.84 5.65 19.17 32.55 19.17 32.55 16.25 5.65 16.25 5.65 3.26 35.38 3.26 35.38 .35 0 .35"/>
        <g class="cls-3">
          <path class="cls-2" d="M44.54,4.38c-1.08,0-2-.22-2.78-.65-.78-.43-1.17-.95-1.17-1.55s.39-1.11,1.17-1.54c.78-.42,1.71-.64,2.78-.64s2,.21,2.78.64,1.17.94,1.17,1.54-.39,1.12-1.17,1.55c-.78.43-1.71.65-2.78.65M41.83,9.28h5.4v25.56h-5.4V9.28Z"/>
          <path class="cls-2" d="M60.76,19v15.83h-5.4V9.28h5.2l.04,5.97h-.97c1.24-2.22,3.17-3.83,5.81-4.84,2.64-1,5.66-1.5,9.08-1.5,3.04,0,5.72.37,8.05,1.1,2.33.73,4.15,1.8,5.47,3.19,1.32,1.4,1.98,3.12,1.98,5.17v16.46h-5.4v-16.23c0-2.13-1.04-3.8-3.11-5.02-2.07-1.22-4.84-1.83-8.31-1.83-2.34,0-4.45.29-6.33.86-1.88.57-3.37,1.4-4.46,2.48-1.09,1.08-1.63,2.39-1.63,3.91"/>
          <path class="cls-2" d="M114.25,35.37c-3.66,0-6.88-.56-9.66-1.67s-4.96-2.66-6.51-4.64c-1.56-1.98-2.34-4.3-2.34-6.96s.78-4.93,2.34-6.91c1.56-1.98,3.74-3.53,6.53-4.63,2.8-1.1,6.02-1.65,9.68-1.65,2.61,0,4.83.26,6.68.79,1.84.53,3.35,1.19,4.54,1.99,1.18.8,2.08,1.63,2.7,2.48h.36V.35h5.41v34.49h-5.24v-4.79h-.48c-.65.86-1.57,1.7-2.78,2.51-1.21.81-2.73,1.48-4.56,2.02-1.83.53-4.05.8-6.66.8M114.97,32.55c2.88,0,5.35-.44,7.4-1.33,2.06-.89,3.63-2.12,4.72-3.69,1.09-1.57,1.63-3.39,1.63-5.44s-.54-3.83-1.63-5.39c-1.09-1.56-2.66-2.77-4.7-3.65-2.04-.87-4.52-1.31-7.42-1.31s-5.38.44-7.42,1.33c-2.04.89-3.61,2.11-4.7,3.67-1.09,1.56-1.63,3.34-1.63,5.35s.54,3.8,1.63,5.38c1.09,1.58,2.66,2.82,4.72,3.73,2.06.9,4.52,1.35,7.4,1.35"/>
          <path class="cls-2" d="M169.12,34.84l-13.39-25.55h5.69l6.86,13.75c.7,1.39,1.4,2.89,2.12,4.49.71,1.6,1.43,3.34,2.16,5.21h-.93c.73-1.82,1.45-3.53,2.18-5.14.73-1.6,1.45-3.12,2.18-4.56l7.22-13.75h5.81l7.14,13.75c.73,1.4,1.45,2.91,2.18,4.51.73,1.61,1.45,3.33,2.18,5.18h-1.01c.75-1.84,1.48-3.55,2.2-5.15.71-1.6,1.42-3.11,2.12-4.55l6.86-13.75h5.69l-13.35,25.55h-5.69l-7.66-14.37c-.51-.99-1-1.98-1.47-2.98-.47-.99-.93-2.01-1.39-3.03-.46-1.03-.93-2.07-1.41-3.14h1.37c-.46,1.05-.92,2.09-1.39,3.12-.47,1.03-.95,2.05-1.43,3.06-.48,1-.97,1.99-1.45,2.96l-7.7,14.37h-5.65Z"/>
          <path class="cls-2" d="M226.04,19v15.83h-5.4V.35h5.4v14.91h-1.13c1.24-2.22,3.17-3.83,5.81-4.84,2.63-1,5.66-1.5,9.08-1.5,3.04,0,5.72.37,8.05,1.1s4.15,1.8,5.47,3.19c1.32,1.4,1.98,3.12,1.98,5.17v16.46h-5.4v-16.23c0-2.13-1.04-3.8-3.11-5.02-2.07-1.22-4.84-1.83-8.31-1.83-2.34,0-4.45.29-6.33.86-1.88.57-3.37,1.4-4.46,2.48-1.09,1.08-1.63,2.39-1.63,3.91"/>
          <path class="cls-2" d="M281.38,35.37c-4.17,0-7.78-.56-10.83-1.68-3.05-1.12-5.41-2.67-7.06-4.65-1.65-1.98-2.48-4.26-2.48-6.84s.83-4.89,2.48-6.89c1.65-2,3.96-3.56,6.92-4.7,2.96-1.13,6.36-1.7,10.21-1.7,2.58,0,5.02.27,7.32.8,2.3.53,4.34,1.33,6.13,2.41,1.79,1.07,3.19,2.41,4.21,4.01s1.53,3.46,1.53,5.59v1.25h-35.38v-2.69h32.43l-2.46,1c0-1.85-.56-3.5-1.67-4.94-1.12-1.44-2.7-2.58-4.76-3.4-2.06-.82-4.51-1.24-7.36-1.24s-5.3.43-7.42,1.27c-2.12.85-3.78,1.98-4.96,3.39-1.18,1.41-1.77,2.98-1.77,4.71v1.5c0,2.01.6,3.76,1.82,5.25,1.21,1.5,2.94,2.66,5.18,3.5,2.24.83,4.89,1.25,7.93,1.25,2.12,0,4-.19,5.63-.58,1.63-.39,3-.91,4.11-1.59,1.12-.67,1.94-1.42,2.48-2.23l5.2.74c-.67,1.17-1.8,2.25-3.39,3.24-1.59.99-3.57,1.77-5.95,2.35-2.38.58-5.08.87-8.09.87"/>
          <path class="cls-2" d="M305.35,34.84V9.28h5.2v4.03h.36c.89-1.31,2.42-2.37,4.6-3.17,2.18-.8,4.68-1.2,7.5-1.2.43,0,.89,0,1.39.02.5.02.91.02,1.23.02v3.12c-.19-.03-.58-.07-1.19-.1-.6-.04-1.27-.06-2-.06-2.23,0-4.24.28-6.01.83-1.77.56-3.17,1.33-4.17,2.31-1.01.99-1.51,2.14-1.51,3.45v16.3h-5.4Z"/>
          <path class="cls-2" d="M345.73,35.37c-4.17,0-7.78-.56-10.83-1.68-3.05-1.12-5.41-2.67-7.06-4.65-1.65-1.98-2.48-4.26-2.48-6.84s.83-4.89,2.48-6.89c1.65-2,3.96-3.56,6.92-4.7,2.96-1.13,6.36-1.7,10.21-1.7,2.58,0,5.02.27,7.32.8,2.3.53,4.34,1.33,6.13,2.41,1.79,1.07,3.19,2.41,4.21,4.01s1.53,3.46,1.53,5.59v1.25h-35.38v-2.69h32.43l-2.46,1c0-1.85-.56-3.5-1.67-4.94-1.12-1.44-2.7-2.58-4.76-3.4-2.06-.82-4.51-1.24-7.36-1.24s-5.3.43-7.42,1.27c-2.12.85-3.78,1.98-4.96,3.39-1.18,1.41-1.77,2.98-1.77,4.71v1.5c0,2.01.6,3.76,1.82,5.25,1.21,1.5,2.94,2.66,5.18,3.5,2.24.83,4.89,1.25,7.93,1.25,2.12,0,4-.19,5.63-.58,1.63-.39,3-.91,4.11-1.59,1.12-.67,1.94-1.42,2.48-2.23l5.2.74c-.67,1.17-1.8,2.25-3.39,3.24-1.59.99-3.57,1.77-5.95,2.35s-5.08.87-8.09.87"/>
          <path class="cls-2" d="M386.16,44.24l1.13-2.71,1.41.09c1.48.22,2.81.25,3.99.12,1.18-.14,2.24-.51,3.19-1.11.94-.6,1.77-1.47,2.5-2.62l1.98-3.03-17.22-25.69h5.89l10.33,15.97c.94,1.4,1.77,2.81,2.5,4.2.73,1.4,1.46,2.77,2.22,4.13h-1.82c.75-1.36,1.5-2.74,2.24-4.13.74-1.4,1.57-2.8,2.48-4.2l10.37-15.97h5.85l-20.05,29.86c-.83,1.25-1.83,2.28-2.98,3.1-1.16.82-2.49,1.42-3.99,1.82-1.51.39-3.2.59-5.08.59-1.02,0-1.96-.04-2.8-.13-.85-.08-1.55-.18-2.12-.29"/>
          <path class="cls-2" d="M443.04,35.37c-3.87,0-7.3-.56-10.29-1.68-2.98-1.12-5.32-2.67-7-4.66-1.68-1.99-2.52-4.27-2.52-6.85s.84-4.93,2.52-6.92c1.68-1.99,4.01-3.55,7-4.66,2.99-1.12,6.41-1.68,10.29-1.68s7.38.56,10.35,1.68c2.97,1.12,5.3,2.68,6.98,4.68,1.68,2,2.52,4.3,2.52,6.91s-.84,4.86-2.52,6.85c-1.68,1.99-4.01,3.55-6.98,4.66-2.97,1.12-6.42,1.68-10.35,1.68M443.04,32.57c3.07,0,5.67-.47,7.8-1.4s3.77-2.19,4.9-3.76c1.13-1.57,1.69-3.32,1.69-5.23s-.56-3.71-1.69-5.29c-1.13-1.58-2.77-2.84-4.92-3.77-2.15-.93-4.75-1.4-7.79-1.4s-5.59.47-7.72,1.41c-2.14.94-3.77,2.2-4.9,3.77-1.13,1.57-1.69,3.33-1.69,5.28s.56,3.68,1.69,5.24c1.13,1.57,2.76,2.82,4.9,3.75,2.14.93,4.71,1.4,7.72,1.4"/>
          <path class="cls-2" d="M484.11,35.21c-3.01,0-5.69-.37-8.03-1.1-2.34-.73-4.17-1.8-5.49-3.22-1.32-1.41-1.98-3.13-1.98-5.15V9.28h5.4v16.23c0,2.13,1.04,3.8,3.11,5.02,2.07,1.22,4.84,1.83,8.31,1.83,2.34,0,4.45-.29,6.33-.86,1.88-.57,3.37-1.4,4.46-2.49,1.09-1.09,1.63-2.39,1.63-3.9v-15.83h5.4v25.56h-5.24v-5.97h.97c-1.26,2.24-3.22,3.86-5.87,4.85-2.65,1-5.65,1.49-9.02,1.49"/>
          <path class="cls-2" d="M548.61,35.37c-2.58,0-4.79-.27-6.64-.8-1.84-.53-3.36-1.2-4.56-2.02-1.2-.81-2.13-1.65-2.8-2.51h-.48v4.79h-5.24V.35h5.41v13.82h.36c.65-.85,1.56-1.67,2.74-2.48,1.18-.8,2.69-1.47,4.52-1.99,1.83-.52,4.05-.79,6.66-.79,3.68,0,6.92.55,9.7,1.65,2.78,1.1,4.95,2.65,6.51,4.63,1.56,1.98,2.34,4.29,2.34,6.91s-.77,4.97-2.32,6.96c-1.55,1.98-3.71,3.53-6.49,4.64s-6.02,1.67-9.7,1.67M547.89,32.55c2.9,0,5.38-.45,7.42-1.35,2.04-.9,3.61-2.14,4.7-3.73,1.09-1.58,1.63-3.38,1.63-5.38s-.54-3.79-1.61-5.35c-1.08-1.56-2.64-2.78-4.7-3.67-2.06-.89-4.54-1.33-7.44-1.33s-5.34.44-7.4,1.31c-2.06.87-3.62,2.09-4.7,3.65-1.08,1.56-1.61,3.36-1.61,5.39s.54,3.87,1.61,5.44c1.08,1.57,2.64,2.8,4.7,3.69,2.06.89,4.52,1.33,7.4,1.33"/>
          <path class="cls-2" d="M590.85,35.37c-4.17,0-7.78-.56-10.83-1.68-3.05-1.12-5.41-2.67-7.06-4.65-1.65-1.98-2.48-4.26-2.48-6.84s.83-4.89,2.48-6.89c1.65-2,3.96-3.56,6.92-4.7,2.96-1.13,6.36-1.7,10.2-1.7,2.58,0,5.02.27,7.32.8,2.3.53,4.34,1.33,6.13,2.41,1.79,1.07,3.19,2.41,4.22,4.01s1.53,3.46,1.53,5.59v1.25h-35.38v-2.69h32.43l-2.46,1c0-1.85-.56-3.5-1.67-4.94-1.12-1.44-2.7-2.58-4.76-3.4-2.06-.82-4.51-1.24-7.36-1.24s-5.3.43-7.42,1.27c-2.12.85-3.78,1.98-4.96,3.39-1.18,1.41-1.77,2.98-1.77,4.71v1.5c0,2.01.6,3.76,1.82,5.25,1.21,1.5,2.94,2.66,5.18,3.5,2.24.83,4.89,1.25,7.93,1.25,2.12,0,4-.19,5.63-.58,1.63-.39,3-.91,4.11-1.59,1.12-.67,1.94-1.42,2.48-2.23l5.2.74c-.67,1.17-1.8,2.25-3.39,3.24-1.59.99-3.57,1.77-5.95,2.35s-5.08.87-8.09.87"/>
          <rect class="cls-2" x="614.82" y=".35" width="5.41" height="34.49"/>
          <path class="cls-2" d="M645.76,35.37c-3.87,0-7.3-.56-10.29-1.68s-5.32-2.67-7-4.66c-1.68-1.99-2.52-4.27-2.52-6.85s.84-4.93,2.52-6.92c1.68-1.99,4.01-3.55,7-4.66,2.98-1.12,6.41-1.68,10.29-1.68s7.38.56,10.35,1.68c2.97,1.12,5.3,2.68,6.98,4.68,1.68,2,2.52,4.3,2.52,6.91s-.84,4.86-2.52,6.85c-1.68,1.99-4.01,3.55-6.98,4.66s-6.42,1.68-10.35,1.68M645.76,32.57c3.07,0,5.67-.47,7.8-1.4s3.77-2.19,4.9-3.76c1.13-1.57,1.69-3.32,1.69-5.23s-.57-3.71-1.69-5.29c-1.13-1.58-2.77-2.84-4.92-3.77-2.15-.93-4.75-1.4-7.78-1.4s-5.59.47-7.72,1.41c-2.14.94-3.77,2.2-4.9,3.77-1.13,1.57-1.7,3.33-1.7,5.28s.57,3.68,1.7,5.24c1.13,1.57,2.76,2.82,4.9,3.75,2.14.93,4.71,1.4,7.72,1.4"/>
          <path class="cls-2" d="M676.74,19v15.83h-5.41V9.28h5.2l.04,5.97h-.97c1.24-2.22,3.17-3.83,5.81-4.84,2.64-1,5.66-1.5,9.08-1.5,3.04,0,5.72.37,8.05,1.1,2.33.73,4.15,1.8,5.47,3.19,1.32,1.4,1.98,3.12,1.98,5.17v16.46h-5.41v-16.23c0-2.13-1.03-3.8-3.11-5.02-2.07-1.22-4.84-1.83-8.31-1.83-2.34,0-4.45.29-6.33.86-1.88.57-3.37,1.4-4.46,2.48-1.09,1.08-1.63,2.39-1.63,3.91"/>
          <path class="cls-2" d="M731.36,45c-3.09,0-5.83-.24-8.21-.72-2.38-.48-4.36-1.14-5.93-2-1.57-.86-2.75-1.86-3.53-3l4.72-1.23c.59.74,1.43,1.43,2.52,2.07,1.09.64,2.49,1.15,4.2,1.54,1.71.39,3.78.58,6.23.58,4.03,0,7.25-.58,9.66-1.75,2.41-1.17,3.61-2.93,3.61-5.29v-5.53h-.44c-.67.87-1.61,1.68-2.8,2.44s-2.71,1.39-4.54,1.88c-1.83.49-4.03.73-6.61.73-3.58,0-6.76-.51-9.56-1.54-2.8-1.03-4.99-2.49-6.57-4.39-1.59-1.9-2.38-4.16-2.38-6.78s.79-4.9,2.36-6.86c1.57-1.97,3.76-3.5,6.55-4.59,2.8-1.1,6.02-1.64,9.68-1.64,2.61,0,4.83.26,6.68.79,1.84.53,3.36,1.19,4.56,2,1.2.81,2.12,1.64,2.76,2.49h.44v-4.91h5.24v26.04c0,2.21-.81,4.03-2.42,5.46-1.61,1.44-3.83,2.5-6.64,3.18-2.81.69-6,1.03-9.58,1.03M731.04,31.92c2.85,0,5.3-.4,7.34-1.2,2.04-.8,3.62-1.95,4.72-3.44,1.1-1.49,1.65-3.26,1.65-5.31s-.54-3.78-1.61-5.31c-1.08-1.54-2.64-2.74-4.7-3.61-2.06-.87-4.52-1.31-7.4-1.31s-5.39.45-7.46,1.33c-2.07.89-3.65,2.1-4.74,3.63-1.09,1.54-1.63,3.29-1.63,5.27s.55,3.74,1.65,5.23c1.1,1.5,2.68,2.66,4.74,3.48,2.06.83,4.54,1.24,7.44,1.24"/>
        </g>
      </g>
    </g>
  </g>
</svg>