<?xml version="1.0" encoding="UTF-8"?>
<svg id="Layer_2" data-name="Layer 2" xmlns="http://www.w3.org/2000/svg" viewBox="0 0 3044 553.55">
  <defs>
    <style>
      .cls-1 {
        stroke: #278c43;
        stroke-miterlimit: 10;
        stroke-width: 2px;
      }

      .cls-1, .cls-2 {
        fill: #fff;
      }
    </style>
  </defs>
  <g id="Layer_1-2" data-name="Layer 1">
    <g>
      <g id="lettermark_clear">
        <path id="e-fill" class="cls-2" d="M3026.46,232.76c-11.71-20.1-27.61-35.83-47.7-47.16-20.11-11.33-43.52-17-70.2-17s-51.36,6.03-72.93,18.1c-21.58,12.07-38.58,28.61-50.99,49.63-12.43,21.03-18.65,44.69-18.65,71.02s6.39,51.18,19.2,72.38c12.79,21.21,30.34,37.75,52.64,49.63,22.3,11.88,47.89,17.83,76.77,17.83,22.67,0,43.33-3.75,61.96-11.25,18.65-7.49,34.55-19.1,47.71-34.82l-46.62-46.07c-8.05,9.14-17.37,15.99-27.97,20.56-10.61,4.58-22.31,6.86-35.1,6.86-14.26,0-26.59-3.02-37.01-9.04-10.42-6.03-18.47-14.72-24.13-26.05-1.76-3.52-3.25-7.24-4.47-11.15l190.64-.92c1.82-6.58,3.01-12.51,3.56-17.82.55-5.29.83-10.51.83-15.63,0-25.96-5.85-48.99-17.55-69.09M2875.38,242.08c9.68-6.21,21.11-9.32,34.27-9.32,12.07,0,22.39,2.74,30.98,8.23,8.59,5.48,15.08,13.25,19.46,23.3,1.74,3.98,3.15,8.36,4.26,13.11l-115.43.66c1.1-3.59,2.41-6.99,3.97-10.2,5.29-10.97,12.79-19.55,22.49-25.78"/>
        <g id="k2-fill">
          <polygon class="cls-2" points="2777.06 441.14 2674.22 299.92 2771.03 174.64 2677.26 174.64 2591.15 294.55 2591.15 43.02 2506.71 43.02 2506.71 441.14 2591.15 441.14 2591.15 311.95 2677.81 441.14 2777.06 441.14"/>
        </g>
        <path id="o-fill" class="cls-2" d="M2328.38,447.18c-27.79,0-52.65-6.21-74.58-18.65-21.94-12.42-39.31-29.25-52.09-50.45-12.8-21.2-19.2-44.97-19.2-71.29s6.31-49.35,18.92-70.19c12.61-20.84,29.88-37.37,51.82-49.63,21.94-12.24,46.98-18.37,75.12-18.37s52.18,6.03,74.31,18.1c22.12,12.07,39.57,28.61,52.37,49.63,12.79,21.03,19.2,44.51,19.2,70.47s-6.4,50.55-19.2,71.57c-12.8,21.03-30.16,37.75-52.1,50.18-21.94,12.43-46.8,18.65-74.58,18.65M2328.38,370.41c11.7,0,22.12-2.55,31.26-7.68,9.13-5.12,16.17-12.51,21.11-22.21,4.94-9.68,7.4-20.74,7.4-33.17s-2.56-22.75-7.68-32.08c-5.13-9.32-12.16-16.63-21.11-21.94-8.96-5.29-19.28-7.96-30.98-7.96s-22.13,2.65-31.26,7.96c-9.14,5.3-16.27,12.7-21.39,22.21-5.13,9.51-7.68,20.11-7.68,31.81,0,12.43,2.55,23.49,7.68,33.17,5.12,9.69,12.24,17.09,21.39,22.21,9.13,5.13,19.55,7.68,31.26,7.68"/>
        <path id="p-fill" class="cls-2" d="M2147.69,236.6c-11.34-20.84-26.78-37.29-46.34-49.36-19.56-12.07-41.77-18.1-66.63-18.1-17.92,0-34.36,3.66-49.35,10.97-7.67,3.74-14.61,8.18-20.84,13.3v-18.79h-84.45v378.92h83.35v-130.59c6.34,5.16,13.46,9.57,21.39,13.24,14.99,6.94,31.62,10.42,49.9,10.42,24.86,0,47.16-6.12,66.9-18.37,19.74-12.24,35.18-28.7,46.34-49.36,11.15-20.65,16.72-44.32,16.72-71.02s-5.67-50.46-17-71.29M2071.2,340.24c-5.3,9.51-12.43,16.91-21.39,22.21-8.96,5.3-19.28,7.96-30.98,7.96s-21.48-2.64-30.43-7.96c-8.96-5.29-15.99-12.69-21.11-22.21-5.13-9.5-7.68-20.29-7.68-32.36s2.55-22.84,7.68-32.36c5.12-9.5,12.15-16.91,21.11-22.21,8.95-5.29,19.27-7.96,30.98-7.96s21.94,2.65,30.71,7.96c8.77,5.3,15.8,12.7,21.11,22.21,5.29,9.51,7.95,20.29,7.95,32.36s-2.65,22.85-7.95,32.36"/>
        <path id="s2-fill" class="cls-2" d="M1691.07,447.18c-32.18,0-59.69-5.13-82.53-15.36-22.85-10.23-43.6-25.96-62.24-47.15l55.93-55.93c12.42,14.26,26.22,25.32,41.4,33.17,15.17,7.87,32.81,11.79,52.92,11.79,17.91,0,31.89-3.38,41.95-10.14,10.05-6.76,15.08-15.99,15.08-27.69,0-10.23-3.2-18.65-9.59-25.23-6.4-6.58-15.08-12.24-26.05-17-10.97-4.75-22.85-9.22-35.65-13.44-12.8-4.2-25.69-9.22-38.66-15.08-12.98-5.84-24.87-12.97-35.65-21.39-10.79-8.41-19.46-19.2-26.05-32.36-6.58-13.16-9.87-29.43-9.87-48.81,0-24.13,5.75-44.78,17.27-61.96,11.52-17.18,27.69-30.24,48.53-39.21,20.84-8.95,44.42-13.43,70.74-13.43s52.28,4.76,74.58,14.26c22.3,9.51,40.76,22.31,55.38,38.39l-56.49,56.48c-11.71-12.07-23.49-21.02-35.37-26.87-11.89-5.84-25.14-8.77-39.76-8.77s-26.87,2.83-35.65,8.5c-8.77,5.67-13.16,13.81-13.16,24.41,0,9.51,3.29,17.27,9.87,23.3,6.58,6.03,15.26,11.24,26.05,15.63,10.78,4.39,22.67,8.77,35.65,13.16,12.97,4.39,25.96,9.41,38.94,15.08,12.97,5.67,24.76,13.07,35.37,22.21,10.6,9.14,19.27,20.48,26.05,34,6.76,13.53,10.15,30.53,10.15,51,0,36.92-13.16,65.9-39.49,86.92-26.32,21.03-62.88,31.53-109.68,31.53"/>
        <g id="l2-fill">
          <rect class="cls-2" x="1433.72" y="43.02" width="84.45" height="398.12"/>
        </g>
        <g id="l1-fill">
          <rect class="cls-2" x="1300.03" y="43.02" width="84.45" height="398.12"/>
        </g>
        <path id="I-fill" class="cls-2" d="M1208.95,138.44c-12.8,0-23.58-4.57-32.36-13.71-8.77-9.13-13.16-20.1-13.16-32.91s4.39-24.13,13.16-32.91c8.77-8.77,19.55-13.16,32.36-13.16,13.52,0,24.4,4.39,32.63,13.16,8.23,8.77,12.33,19.74,12.33,32.91s-4.12,23.77-12.33,32.91c-8.23,9.14-19.11,13.71-32.63,13.71M1166.73,174.64h84.45v266.52h-84.45V174.64Z"/>
        <g id="k1-fill">
          <polygon class="cls-2" points="1045.3 299.92 1142.11 174.64 1048.34 174.64 962.25 294.55 962.25 43.02 877.79 43.02 877.79 441.14 962.25 441.14 962.25 311.95 1048.89 441.14 1148.15 441.14 1045.3 299.92"/>
        </g>
        <path id="s1-fill" class="cls-2" d="M688.77,447.18c-32.18,0-59.69-5.13-82.53-15.36-22.85-10.23-43.6-25.96-62.24-47.15l55.93-55.93c12.42,14.26,26.22,25.32,41.4,33.17,15.17,7.87,32.81,11.79,52.92,11.79,17.91,0,31.89-3.38,41.95-10.14,10.05-6.76,15.08-15.99,15.08-27.69,0-10.23-3.2-18.65-9.59-25.23-6.4-6.58-15.08-12.24-26.05-17-10.97-4.75-22.85-9.22-35.65-13.44-12.8-4.2-25.69-9.22-38.66-15.08-12.98-5.84-24.87-12.97-35.65-21.39-10.79-8.41-19.46-19.2-26.05-32.36-6.58-13.16-9.87-29.43-9.87-48.81,0-24.13,5.75-44.78,17.27-61.96,11.52-17.18,27.69-30.24,48.53-39.21,20.84-8.95,44.42-13.43,70.74-13.43s52.28,4.76,74.58,14.26c22.3,9.51,40.76,22.31,55.38,38.39l-56.48,56.48c-11.71-12.07-23.49-21.02-35.37-26.87-11.89-5.84-25.14-8.77-39.76-8.77s-26.87,2.83-35.65,8.5c-8.77,5.67-13.16,13.81-13.16,24.41,0,9.51,3.29,17.27,9.87,23.3,6.58,6.03,15.26,11.24,26.05,15.63,10.78,4.39,22.67,8.77,35.65,13.16,12.97,4.39,25.96,9.41,38.94,15.08,12.97,5.67,24.77,13.07,35.37,22.21,10.6,9.14,19.27,20.48,26.05,34,6.76,13.53,10.14,30.53,10.14,51,0,36.92-13.16,65.9-39.49,86.92-26.32,21.03-62.88,31.53-109.68,31.53"/>
      </g>
      <g id="mark">
        <g>
          <path class="cls-1" d="M199.1,42.17l-22.67-1.58,1.1-.75-5.03,507.31c-.01,1.43,1.49,2.59,3.36,2.59h4.14s24.03.32,24.03.32h1.7c1.87,0,3.38-1.17,3.36-2.61l-10.29-509.06"/>
          <polygon class="cls-2" points="290.13 66.07 185.49 135.61 198.7 147.25 303.35 77.7 290.13 66.07"/>
          <polygon class="cls-2" points="292.59 179.54 182.23 243.71 192.92 254.47 303.28 190.3 292.59 179.54"/>
          <polygon class="cls-2" points="302.35 170.17 192 234.34 199.16 241.55 309.52 177.38 302.35 170.17"/>
          <polygon class="cls-2" points="344.54 268.23 188.32 346.13 201.08 361.11 357.3 283.21 344.54 268.23"/>
          <path class="cls-2" d="M339.36,381.1l-144.91,72.26c-3.12,1.56-4.01,4.76-1.97,7.15l.3.36c2.04,2.39,6.22,3.06,9.34,1.51l144.91-72.26c3.12-1.56,4.01-4.76,1.97-7.15l-.3-.36c-2.04-2.39-6.22-3.06-9.34-1.51Z"/>
          <polygon class="cls-2" points="352.75 369.1 196.53 447 204.2 456.01 360.43 378.11 352.75 369.1"/>
          <polygon class="cls-2" points="112.46 127.71 176.41 169.46 185.06 161.71 121.11 119.96 112.46 127.71"/>
          <polygon class="cls-2" points="111.83 134.95 175.77 176.7 184.42 168.94 120.47 127.19 111.83 134.95"/>
          <polygon class="cls-2" points="71.48 229.22 183.98 287.03 191.41 278.57 78.9 220.76 71.48 229.22"/>
          <polygon class="cls-2" points="68.52 232.63 177.77 293.98 185.65 285.77 76.41 224.41 68.52 232.63"/>
          <polygon class="cls-2" points="70.9 344.28 176.48 409.28 184.83 401.34 79.25 336.34 70.9 344.28"/>
          <polygon class="cls-2" points="47.82 336.34 173.72 416.79 182.07 408.85 76.49 343.85 47.82 336.34"/>
          <path class="cls-2" d="M233.49,31.13c-1.91,15.34-22.92,26.35-46.93,24.59-24-1.75-41.91-15.61-40-30.94S169.49-1.57,193.49.18s41.91,15.61,40,30.94Z"/>
          <path class="cls-2" d="M338.11,70.88c2.22,15.14-15.31,29.07-39.14,31.11-23.84,2.04-44.96-8.57-47.18-23.71s15.31-29.07,39.14-31.11c23.84-2.04,44.96,8.57,47.18,23.71Z"/>
          <path class="cls-2" d="M364.11,170.25c1.05,14.66-16.44,27.3-39.06,28.25s-41.8-10.17-42.85-24.82c-1.05-14.66,16.44-27.3,39.06-28.25s41.8,10.17,42.85,24.82Z"/>
          <ellipse class="cls-2" cx="365.96" cy="269.23" rx="26.58" ry="41" transform="translate(91.08 630.96) rotate(-89.11)"/>
          <ellipse class="cls-2" cx="344.69" cy="385.62" rx="26.17" ry="40.93" transform="translate(-46.5 723.99) rotate(-89.07)"/>
          <ellipse class="cls-2" cx="88.67" cy="113.01" rx="43.68" ry="28.29"/>
          <path class="cls-2" d="M87.28,211.06c1.11,15.6-17.51,29.06-41.6,30.07C21.59,242.13,1.16,230.31.05,214.71s17.51-29.06,41.6-30.07c24.09-1.01,44.52,10.82,45.63,26.42Z"/>
          <ellipse class="cls-2" cx="45.56" cy="326.68" rx="43.68" ry="28.29"/>
        </g>
      </g>
    </g>
  </g>
</svg>