<?xml version="1.0" encoding="UTF-8"?>
<svg id="Layer_2" data-name="Layer 2" xmlns="http://www.w3.org/2000/svg" viewBox="0 0 119.92 112.59">
  <defs>
    <style>
      .cls-1 {
        fill: #e97438;
      }

      .cls-2 {
        fill: #1c1b18;
      }

      .cls-3 {
        fill: #eb7639;
      }
    </style>
  </defs>
  <g id="Layer_1-2" data-name="Layer 1">
    <g>
      <path class="cls-3" d="M38.19,54.67l.43.43-.16.92.81.89c.3.33.47.55.5,1.1l.82.5c.51-.35.85-.24,1.28.11.28.23.43.53.6.86l.78,1.55.79.31.84,1.22c.22.32.89-.27,1.21-.33l3.17-.56h.93c4.86,1.8,9.84,3.19,14.95,4.5,5.47,1.41,10.79,2.57,16.49,3.61-.51.73-1.11,1.31-1.74,1.82l-1.37,1.1c-2.88,2.3-6.02,4.04-9.37,5.6l-4.45,1.76c-5.98,1.99-12.14,3.04-18.45,2.81-5.29-.19-10.35-1.19-15.18-3.06l.36-.42c-.21-.46-.63-1.23-.94-1.59-.18-.15-.88-.1-.98-.03,0,.28,0,.47.09.5l.4.13.24,1.1-3.8-1.67.78-.07-.12-1.49,1.29.43c.2.57.7.94,1.22.82.18-.04.29-.63.12-.67l-.89-.2.24-1.12.32-1.02,1.15.43.79-1.23-.81.13c-.12-.07-.36-.49-.27-.63l.39-.65c.09-.14-.16-.43-.31-.52-.2-.11-.65-.13-.84-.02.36.51.54,1.17-.04,1.46-.35.18-1.1-.3-1.47-.4-.33.14-.87.5-1.08.07l-.07-.73c-.02-.2-.48-.39-.71-.54-.28-.19-.55-.98-.41-1.3.19-.44,1.07-.92,1.42-.72l1.18.69c.29.17.93-.41,1.24-.48.14-.03.5.1.64.14.16.04.52-.23.48-.39l-.13-.55c-.03-.13.23-.29.43-.45.14-.12-.15-.54-.39-.58-.18-.03-.45.16-.71.37-.41-.33-1.07-.27-1.5.06-.52.05-.55-.87-1.21-.79s0,1.08-.36,1.58c-.82.03-1.33.17-1.93.87l-.74-.77c-.17-.18-.31-.79-.08-.84l.52-.1c.12-.02,0-.46.07-.59l1.16-2.09.72-1.4-.21-1.16c-.53-.06-.73-.32-.69-.73.04-.46.4-.59.92-.51.37.06.53.36.55.78.01.25.61.46.87.34s.53-.62.57-.99c-.5-.41-.83-.92-.98-1.59-.57.32-1.03.47-1.68.29l-.19.68-1.14,1.11c-.11.17.14.69.17.9l.22,1.59h-.85c.24.75-.27,1.83-.82,2.12-.09-.77-.15-1.5.23-2.04.21-.31.51-.7.03-1.03-.29.08-.58.55-.74.91-.45,1.03.27,1.1-.08,1.56-.14.2-.52.22-.72.09-.16-.1-.42-.24-.39-.35l.15-.57c-.2-.55-.59-1.54-.36-2.12.43-.51.47-1.5.18-1.85l-.3-.36c-.06-.07.22-.15.3-.14.52.03-.1.66.74.65h1.32c.15-.04.29-.41.34-.69l.88-.63c.19-.13.39-.22.47-.34.1-.14-.02-.64-.19-.68-.13-.03-.51-.06-.5-.17s.05-.48.05-.43c.89.08.83-.85,1.04-.81.69.13.94.76,1.64.28.26-.18.31-.93-.04-.99l-1.18-.21c.39-1.46,1.49-.23,2.88.28l.14,1.55-1.24-.24.09,1.18.73-.4h.67s-.06-.71-.06-.71l1.01.13.77-.79c0-.27.05-.56.18-.61.17-.06.48.13.64.39l1.44-.12c.62-.05,1.05-.09,1.57.11l1.36-.31c.11.61-.67.69-.72,1.15-.01.16.3.53.45.47s.43-.22.54-.34l.26-.28c.07-.07.28.03.39.08l.39.16c.11.05.04-.43-.02-.54l-.58-1.03c-.12-.22,0-.63.14-1.16l-1.38.04h-.8s.18-1.88.18-1.88l.81-.17c.18-.33.72-.6.93-.34.18.23.36.53.52.6s.49.02.71-.04ZM29,72.66l-.43-.25-.04.35c0,.08.21,0,.47-.1Z"/>
      <path class="cls-1" d="M22.9,25.58l.36,1.21c.04.14.33.52.44.43l.41-.33c.12-.1.4-.22.53-.25l-.24,1.36c-.05.28-.85.3-1.14.28l-.38-.03c-.08,0-.14-.27-.13-.36.05-.54-.05-.84-.61-1.06-.28-.11-.63.06-.95.36l-1.19,1.13c-.31.29-1.28.34-1.49.73-.55,1.05.94,1.36,1.63,2.65l.85-.53c-.14-.2-.45-.42-.63-.46l-.32-.06c-.59-.11.81-.31.91-.92.04-.24-.17-.57-.4-.88.05-.29.97-.38.97,0,0,.12-.09.55.01.51l.38-.16c.1-.04.39-.23.42-.12l.11.47c.07.31,1.45,1.16,2.24,1.21.11-.5.25-1.2.58-1.46.48-.39,1.15.02,1.41.44l-.52.4.5,1.63c.15.49.16.77.7,1.06l.67.35.56-.89.12-.52,1.46.58c.27.11.48.58.43.95-.04.28-.3.58-.54.88l-.53.64c.57.45.72.73,1.04,1.26l.5.85c.26-.4.37-.62.57-.68.22-.06.77.01.79.21.13.9.87.27.9.84.04.6-.78.04-1.1.9-.4-.29-1.09-.36-1.35.09-.08.14-.41.29-.55.26-.11-.03-.15-.24-.15-.51l-.3-.27c-.28.13-.65.23-.72.08l-.32-.64c-.64.19-.56,1.1-.99,1.16-.32.05-.52-.77-.85-.68-.61.18-.92.78-1.79.81-.45-.49-.87-.54-1.55-.32-.22.07-.64.35-.64.57,0,.19.23.51.4.71l-.04,1c.49.27,1.07.66,1.35.98.25.28-.58,1.15-.05,1.17l.47.02c.17,0,.37-.04.42.05l.21.35c.26.44.4,1.14-.04,1.48-.09.07-.5.17-.42.25l.31.3c.96.93-.89,1.12-.38,2.43.17.43.51.81.88,1.3l-.85.85.73.46.22,1.37c-.3.2-.76.78-.61,1.05l.62,1.06-.67.66c-.81-.21-1.2-.7-1.65-1.62-.38.39-.44.79-.59,1.23-.14.39-.3.76-.21,1.18l.26,1.27c-.55.22-.67.42-.9.85l-.99.55c.06.51-.07,1.08-.48,1.21-.29.09-.54.24-.58.44-.12.6,1.1.46,1.25.94.06.19-.02.61-.09.94l1.29-.14-.15-.83.47-1.15c.1-.25.4-.8.19-.93l-.5-.3c-.1-.06.02-.49.14-.49.19,0,.61,0,.64-.15l.12-.63,2.59-.3c-.34-.71-.49-1.68.1-2.24.94-.9-.15-1.57.22-1.85l.49-.39.38.67,3.01-.78-.2-.55c.06.18.94-.42.66-2.15.94-.12,1.32-1.17,1.54-.53l.16.48,1.61-.25c.93,2.2,2.17,4.22,3.84,5.92-.22.06-.55.11-.71.04s-.34-.37-.52-.6c-.21-.26-.74,0-.93.34l-.81.17-.18,1.87h.8s1.38-.04,1.38-.04c-.14.53-.27.94-.14,1.16l.58,1.03c.06.11.13.59.02.54l-.39-.16c-.11-.05-.32-.16-.39-.08l-.26.28c-.11.11-.39.29-.54.34s-.46-.32-.45-.47c.04-.46.83-.54.72-1.15l-1.36.31c-.52-.19-.95-.16-1.57-.11l-1.44.12c-.16-.26-.48-.45-.64-.39-.13.05-.17.34-.18.61l-.77.79-1.01-.13.06.71h-.67s-.73.4-.73.4l-.09-1.18,1.24.24-.14-1.55c-1.39-.5-2.49-1.73-2.88-.28l1.18.21c.35.06.3.81.04.99-.7.48-.95-.16-1.64-.28-.21-.04-.15.9-1.04.81,0-.04-.04.32-.05.43s.37.15.5.17c.17.04.29.54.19.68-.08.12-.29.21-.47.34l-.88.63c-.05.28-.19.65-.34.68h-1.32c-.83.01-.22-.61-.74-.64-.09,0-.36.07-.3.14l.3.36c.29.35.26,1.34-.18,1.85-.23.58.15,1.58.36,2.12l-.15.57c-.03.11.23.25.39.35.2.12.57.1.72-.09.34-.46-.37-.53.08-1.56.16-.37.45-.84.74-.91.48.33.18.72-.03,1.03-.38.55-.32,1.27-.23,2.04.56-.29,1.06-1.38.82-2.13h.85s-.22-1.58-.22-1.58c-.03-.2-.28-.73-.17-.9l1.14-1.11.19-.68c.65.18,1.11.03,1.68-.29.15.67.48,1.18.98,1.59-.04.36-.32.88-.57.99s-.86-.09-.87-.34c-.02-.42-.18-.72-.55-.78-.52-.08-.88.05-.92.51-.03.41.16.67.69.73l.21,1.16-.72,1.4-1.16,2.09c-.07.12.06.56-.07.59l-.52.1c-.23.04-.09.66.08.84l.74.77c.59-.7,1.11-.83,1.93-.87.37-.5-.29-1.5.36-1.58s.69.84,1.21.79c.43-.33,1.09-.39,1.5-.06.27-.21.53-.4.71-.37.24.04.53.46.39.58-.2.16-.46.32-.43.45l.13.55c.04.16-.32.43-.48.39-.14-.03-.5-.17-.64-.14-.31.08-.95.65-1.24.48l-1.18-.69c-.35-.2-1.24.27-1.42.72-.14.33.13,1.11.41,1.3.23.15.69.33.71.54l.07.73c.21.43.75.06,1.08-.07.38.1,1.13.57,1.47.4.57-.29.39-.95.04-1.46.19-.11.64-.09.84.02.15.08.4.37.31.52l-.39.65c-.09.14.15.56.27.63l.81-.13-.79,1.23-1.15-.43-.32,1.02-.24,1.12.89.2c.17.04.06.63-.12.67-.52.11-1.02-.26-1.22-.82l-1.29-.43.12,1.49-.78.07-.65-.32-.48-.62c-.18-.19.03-.81-.01-1.07-.01-.1-.2-.37-.24-.46-.03-.07.25-.21.33-.23l.84.69,1.06-.04c.1-.06.17-.73-.02-.85l-.71-.45.09-.7c.02-.13-.4-.3-.49-.21l-.42.36-.45.34c-.09.07-.37-.12-.44-.21l-.3-.34c-.05-.06-.29.07-.37.12-.38.23-.79,0-1.03-.4l-.85.04-1.43-.1.17.78c.03.12-.41.15-.48.18l-2.08-1.55-3.3-2.78c-4.93-4.65-8.94-10.25-11.41-16.61-1.41-3.63-1.89-7.41-2.22-11.24l.13-1.93c.22-2.42.61-4.86,1.69-6.94l1.24.22c.28-.15.76-.36.98-.23.29.19.43.47.61.88.25.08.93.13,1.29,0,.31-.11.14-.79-.12-1.13l1.74-.93h.12s.83-1.12.83-1.12c.17-.23.61-.43.85-.32.11,1.9,1.2,1.33,1.16,2.01-.34.35-.7.73-.39,1.14.17.23.95.18,1.05-.08l.44-1.06-.62-.75-.28-.26c-.06-.05.5-.68.29-.82l-.41-.27-.31-.21c-.09-.06.14-.32.24-.36.45-.17.74-.11,1.11.19l.53-.78c-.28-.55-.32-1.06-.26-1.67l.06-.73c.02-.19.52-.34.66-.25l.2.7,1.38-.13-.04-1.05c0-.09.07-.34.15-.39.1-.07.4-.03.5.04l.57.36.08-.1c.21-.47.74-.78,1.29-.92l.52-.94c1.89,1,2.41,2.37,4.11,1.22ZM17.1,26.33l-.04.1c-.05.29-.17.56-.45.86-.15.16.11.63.36.7s1.47-.71,1.1-1.22c-.16-.22-.73-.43-.97-.45ZM15.57,30.24c.03-.07.13-.34.06-.33-.1.01-.24.01-.27.05l-.15.21c-.04.06-.06.28-.01.34s.2.14.23.08l.16-.34ZM19.45,38.53c.17-.84,1.26-.8,1.15-1.06l-.19-.46c-.05-.11-.16-.47-.05-.49l.56-.11c.18-.04.36-.44.52-.61.53-.57,1.48-.57,2.21-.64l.48-.05c.17-.02-.07,1.07.42,1.05.41-.01.21-.49.92-1.21s1.23-.57,1.42-1.16l-1.56.35.17-.78c-.51.03-1.35.08-1.59.39l-.49.67c-.11.15-.61.02-.81-.01l-.97.25.09-1.1-1.24-.1c-.11-.41.17-.8.47-1.3-.49.12-.9.35-1.29.59l-.97-.1c-.24-.03-.53-.53-.65-.8-.08-.19-.6-.21-.78-.11-.5.27-.18,1.37-.37,1.35l-.6-.08c-.25-.03-.65-.25-.78-.44-.15-.23-.16-.73-.02-.93.58.17,1.04.21,1.33-.29l.3-.5c.07-.12-.19-.53-.33-.53-.36,0-.84.37-1.11.59l-.88.71-.9-.63c-.52-.11-1.05.83-.64,1.21.25-.06.73-.11.84.08.13.22.1.59,0,.79l-.36.79c.47.41.51.68.51,1.28l1.4-.17c.15-.02.54.12.56.26.06.55-.23,1.52.27,1.39s1.12-.29,1.48-.12c.17.08.28.66.15.77l-.46.38c-.14.57-.31,1.07-.62,1.55-.02.66-.34,1.12-.99,1.56l.44,1,1.39-.13,1.27-.22c.16.71.11,1.24-.04,1.91l1.23-.24c-.18-.35-.4-.74-.35-.95s.38-.61.53-.72c.2.17.52.42.64.31l.44-.4.33-.21c.37-.23-.6-.45-.59-.69l.03-.62c.03-.61-.88-.63-1.22-.39-.15.11-.56.08-.78.03-.15-.03-.46-.41-.36-.52l.41-.42ZM22.73,31.63c-.1-.08-.18-.45-.1-.55s.31-.04.58.05c.17.23.45-.11.28-.25-.63-.31-1.03-.26-1.48.12-.27.22-.52.75-.54,1.2l.61.94.78-.82c.09-.09.29-.35.2-.43l-.33-.27ZM25.21,32.14c-.09.02.11.28.19.25l.23-.09c.05-.02-.03-.24-.08-.23l-.34.07ZM9.3,32.22l-.08.1-.03.43c0,.12.32.09.42.02s.29-.39.17-.42l-.48-.12ZM23.37,33.12c.1-.09-.14-.44-.26-.36l-.43.28c-.09.06-.2.31-.22.41-.01.08.22.19.28.2l.62-.52ZM26.09,32.97l.02.41c0,.06.23-.03.24-.08v-.28c0-.06-.26-.11-.26-.05ZM6.07,34.55l.02.42c0,.06.23-.03.24-.08v-.28c0-.06-.26-.11-.26-.05ZM3.79,35.65c.44-.13.04-1.03-.28-.94-.44.13-.18,1.08.28.94ZM7.4,41.45c-.39.67.05,2.12.02,2.11l.44.16c.19.07.49.07.84.02l.11.67c.44.43,1.32.72,1.78.27-.37-.5-.54-.92-.41-1.4l-1.15-.59.4-1.2.69.52.98-.35c-.02.61-.32.84-.68,1.15-.06.14.35.33.45.25l.47-.4c.39-.34.94-.6,1.5-.89.05.1.16.46.07.54s-.27.17-.42.24l-.75.32.59,1.01,1.25.09.23-1.67,1.07-1.28c.46-.55,1.07-1.89.71-2.18l-1.5.33c-.72.16-.47-.95-1.19-1.39.34-.07.84-.38.59-.87l-.89.63-.86.34.48.95-1.56-.06.61-.68c-.63-1.14-2.02.12-2.11-.15l-.16-.54c-.17-.58-.24-1.06-.27-1.73-.16-.14-.65-.3-.97-.32l.23.98-.34.6c-.08.14.14.43.34.7-1.01.97-1.99.42-2.38.83-.1.1-.16.42-.08.55l.44.76c.5.26,1.16-.19,1.18-.8l1.27.27c.34.07.82.48,1.21.79-.05.08-.38.2-.57.21-.85.04-.65.94-.98.99l-.5.08s-.14.09-.17.11ZM28.98,35.71c0-.09-.31-.24-.35-.17l-.16.29c-.06.12-.11.35,0,.37l.4.05c.08,0,.11-.38.11-.53ZM5.08,37.13c.35-.34.65-.88.7-1.43h-1.44c-.13.12-.19.65-.07.71l.81.73ZM22.66,36.62l.42.05c.15.02.54-.06.54-.21l-.03-.54c0-.19-1.89-.23-1.92.6l-.03,1.06c.01.23.68.51.94.38.41-.2-.18-1.37.09-1.33ZM25.95,36.28l.02.42c0,.06.23-.03.24-.08v-.28c0-.06-.26-.11-.26-.05ZM5.01,38.91c.27-.19.1-.89-.21-1.02-.2-.08-.4.36-.4.6s.37.6.61.42ZM7.55,41.17l-.03-.41c0-.08-.26-.14-.33-.15l-.79-.09-1.13.09c.06.18.27.59.39.76.07.11.54.23.61.12s.1-.23.21-.54l.38.46c.09.1.45-.1.53-.14.03-.01.16-.08.16-.11ZM24.85,44.58c.05-.96-.37-1.69-1-1.71-.19,0-.67.26-.63.44l.3,1.15,1.33.12ZM22.25,51.16c-.28-.22-.84.12-.78.41.08.09.55.33.59.2l.19-.61ZM31.08,55.7l1.28-.04-.67-.62c.22-.35.82-.75,1.18-.98.4-.86,1.25-1.18,2.1-.96.15.04.46-.34.39-.48l-.23-.5c-.32-.72-.77-1-1.56-.84l-1.57.32-1.14.26-.29,1.4c-.34.19-.57.5-.51.83l1.04.27-.03,1.34ZM21.66,53.47l-.41-1.66-1.02.02.26,1.15,1.17.49ZM19.03,53.27l.02.42c0,.06.23-.03.24-.08v-.28c0-.06-.26-.11-.26-.05ZM20.26,56.09l-.4-.6c-.04-.06.48-.93.21-.89l-.56.08-.35-.7-.48.69c-.09.12-.2.57-.06.61l.6.16.11.7.93-.04ZM24.97,71.5c-.12-.31-.4-.77-.61-.93-.07-.05-.47-.07-.48.02l-.07.34c.14.18.3.42.17.48l-.47.21c-.1.04-.19-.38-.2-.5l-.6-.62.33-.45c.06-.08-.27-.35-.28-.46l-.1-1.56-1.1.72c.19.22.37.41.4.53l.32,1.03c-.45.19-.64.62-.5,1.17.1.39.63.85,1.12.69l1.06-.35,1.01-.32ZM28.66,73.92l-.47.23.25.5.47-.23-.25-.5Z"/>
      <path class="cls-3" d="M25.77,77.52l-2.22-1.23c.24-.35.16-1.02-.09-1.23-.12-.1-.61-.06-.63.08l-.11.65-2.19-1.44c.07-.03.5-.06.48-.18l-.17-.78,1.43.1.85-.04c.24.4.65.63,1.03.4.08-.05.32-.17.37-.12l.3.34c.08.09.35.28.44.21l.45-.34.42-.36c.1-.09.51.08.49.21l-.09.7.71.45c.19.12.12.79.02.85l-1.06.04-.84-.69c-.08.01-.36.15-.33.23.05.1.23.36.24.46.04.26-.17.88.01,1.07l.48.62Z"/>
      <path class="cls-1" d="M42.09,18.65l.86.99,1.36,1.24.97.75-.53.15c-.12.02-.29-.32-.41-.34-.24-.04-.71-.07-.87-.19-.18-.14-.33-.53-.43-.92-.6-.11-1.25-.12-2.06-.04-.1-.29-.22-.94-.23-1.22l1.34-.43Z"/>
      <path class="cls-1" d="M41.29,17.76l-.76.64-1.34.06c-.56.03-.95.04-1.41-.27l.94-.99c.8.16,1.46-.21,1.85-.84l.73,1.41Z"/>
      <path class="cls-1" d="M40.28,15.61c-.37.1-.99.25-1.32.15-.82-.24-.04-1.66-.25-1.97-.11-.17-.37-.34-.71-.56l1.03-.83,1.26,3.21Z"/>
      <path class="cls-1" d="M31.06,79.83l-.83-.32-.24-1.1-.4-.13c-.09-.03-.09-.22-.09-.5.1-.07.8-.11.98.03.31.36.73,1.13.94,1.59l-.36.42Z"/>
      <path class="cls-1" d="M4.61,19.9l.52.04c.12,0,.15.25.13.39l-.98,1.45-.59-.53.92-1.36Z"/>
      <path class="cls-1" d="M23.55,76.3l-.83-.5.11-.65c.02-.14.5-.18.63-.08.25.21.34.89.09,1.23Z"/>
      <path class="cls-1" d="M2.48,28.39l-.16-.64c.05.06.13.08.18.05l.37-.18-.39.77Z"/>
      <path class="cls-1" d="M2.28,25.34l.14-.49-.14.49Z"/>
      <path class="cls-2" d="M24.61,24.63c-.07-.03-.29,0-.36.04l-1.35.91c-1.7,1.15-2.22-.22-4.11-1.22l-1.46-.77c-.26-.14-.78-.06-1.13.09l-.52-.88.17-.49c.1-.3.75-.4,1.13-.45,3.08-.42,4.05-3.32,5.71-2.09l2.07,1.53c1.59,1.18,3.15.62,3.13,1.78-.02,1.08-1.87.46-3.27,1.55Z"/>
      <path class="cls-1" d="M36.14,32.21l-.51-1.12-.3-.32c-.07-.07-.39,0-.4.09l-.03.49c-.02.33-.24.84-.15,1.08.09.21.29.54.21.68-.09.16-.38.41-.58.57-.14.11-.08.53.07.63s.59.12.76.05l.46-.21c.11-.05.3.19.42.33l1.34.06-.06,1.11c-.21.25-.61.82-.52,1.12l.36,1.16c-.38.11-.87.17-1.25.18.18-.56.31-.86.3-1.14-.01-.24-.43-.6-.56-.82l-.27-.47c-.07-.12-.38.15-.47.32-.08.15-.57.17-.67.04l-.45-.58c-.25-.32-.27-.82-.21-1.19l-.11-.68c-.03-.17.26-.39.45-.54-.6-1.03,1.03-1.88-.07-3.07.84-.08.62-.92,1.61-.59.43.15.84,0,1.11-.36.22-.3.14-.64-.09-1.16l.8-.65c.09-.08.5-.2.57-.1l.46.62.6-1,.55-1.78.63.47c.14.11.54-.26.7-.36.43-.04,1.05.33,1.32.84l-.9.5-.35.32c-.14.13-.68-.29-.8-.21l-.38.27c-.27.19-.53.6-.49.89l.14.86c.16.97,1.76.59,2.23,1.18l-.43,1.65c-.37,1.42-1.39.59-1.74,1.09-.28.4-.02.92-.25,1.43-.06.13-.47-.01-.62-.09-.36-.18-.62.04-.97.48-.38-.14-.81-.75-1.02-1.18l-.24-.52s1.47-1.05,2.27.1c-.06-.63-.08-.97-.02-1.5l-1.1-.83-.26-.24c-.24-.22-.16.84-.15.84l-.48.22c.06.35-.13,1.04-.47,1.05Z"/>
      <path class="cls-2" d="M13.87,19.8c-.53,1.15-1.58,1.73-2.7,1.68s-2.09-.78-2.5-1.92c-.43-1.22-.16-2.51.52-3.66.79-1.34,2.69-1.57,3.87-.44,1.1,1.06,1.47,2.9.8,4.34ZM12.47,17.21c0-.37-.3-.67-.67-.67s-.67.3-.67.67.3.67.67.67.67-.3.67-.67Z"/>
      <path class="cls-1" d="M31.49,46.66c-.75.12-.93.76-1.27,1.24l-.87,1.23c-.13.2-.75-.05-.75-.29.02-1.85-1.18-1.58-1.17-1.99.02-.59,1.12-.67,1.23-1.32.06-.39-.15-1.01-.36-1.23l-1.04.24c-.39-1.12.45-1.72-1-2.52-.08-.4.18-.95.44-1.49-.29.05-.55.18-.88.38l-.17-2c.56.22.99.66,1.14,1.21l.5.16c.11.04.04.48.08.59.2.5,1.22.54,1.41,0l.34-.96c.03-.07.32-.22.32-.14v.33s.02.49.02.49c0,.13.33.07.61,0l-.2,1.64-.89.12c-.17.49-.28.71-.65,1.18.08.21.49.78.73.83l1.2.07c.16.99.82,1.4,1.72,1.66.02.14-.28.54-.48.58ZM30.18,47.31c-.07-.59-.13-.85-.28-.97-.14-.11-.59-.19-.68-.03-.14.24-.07.77.14.86.26.1.7.19.82.15Z"/>
      <path class="cls-1" d="M24.61,24.63l1.18.52c.36.15.62.55.87.87.11.14.46.34.46.51s-.3.55-.4.53l-.19-.8-.75.39-1.08-.43-.46-1.55c.06-.04.28-.07.36-.04Z"/>
      <path class="cls-1" d="M28.59,50.57c-.78.19-1.24-.27-1.57-.79-.14-.22.11-.62.3-.87.15-.19.86-.1.96.12.18.4.25,1.01.31,1.53Z"/>
      <path class="cls-1" d="M4.49,24.85c-.31-.36-.54-.73-.84-1.34l1.81-.57-.42.91-.55.99Z"/>
      <path class="cls-1" d="M35.53,16.59l-.4-.51c.14-.25.32-.54.53-.6s.81.08.76.26l-.2.8c-.04.16-.54.13-.69.04Z"/>
      <path class="cls-1" d="M34.46,38.24c-.24-.21-.25-.73-.14-.96.37.14.65.29.68.48s-.41.61-.55.49Z"/>
      <path class="cls-1" d="M9.26,21.57c-.2.22-.79.37-1.01.22-.16-.12.13-.56.32-.54.22.02.52.15.69.33Z"/>
      <path class="cls-1" d="M15.85,22.32l-.17.49c-.14.07-.48.03-.64-.06s.01-.62.18-.58l.62.15Z"/>
      <path class="cls-1" d="M39.4,24.7l-.36-.21c-.1-.06.04-.44.15-.47.11-.03.36.12.42.22.08.12-.08.53-.21.46Z"/>
      <path class="cls-1" d="M32.72,35.87c.07-.06.42-.06.42.04-.01.17-.04.4-.09.51s-.49.04-.51-.08.09-.39.18-.47Z"/>
      <path class="cls-1" d="M7.23,32.94l-.52-.63c.22-.08.67-.13.65,0l-.13.63Z"/>
      <rect class="cls-1" x="5.9" y="19.84" width=".72" height=".29"/>
      <rect class="cls-1" x="40.07" y="20.48" width=".61" height=".31" transform="translate(3.51 47.04) rotate(-62.68)"/>
      <circle class="cls-1" cx="42.92" cy="28.77" r=".16"/>
      <path class="cls-1" d="M29,72.66c-.26.1-.48.18-.47.1l.04-.35.43.25Z"/>
      <path class="cls-3" d="M19.45,38.53l-.41.42c-.11.11.2.48.36.52.22.05.63.07.78-.03.33-.24,1.25-.22,1.22.39l-.03.62c-.01.24.96.45.59.69l-.33.21-.44.4c-.12.11-.44-.14-.64-.31-.15.1-.47.5-.53.72s.16.6.35.95l-1.23.24c.16-.67.2-1.2.04-1.91l-1.27.22-1.39.13-.44-1c.65-.43.96-.89.99-1.56.31-.48.49-.98.62-1.55l.46-.38c.14-.11.02-.69-.15-.77-.36-.17-1,0-1.48.12s-.21-.84-.27-1.39c-.02-.15-.41-.28-.56-.26l-1.4.17c0-.61-.04-.88-.51-1.28l.36-.79c.09-.2.12-.57,0-.79-.11-.19-.59-.13-.84-.08-.41-.38.12-1.32.64-1.21l.9.63.88-.71c.27-.22.75-.59,1.11-.59.14,0,.4.41.33.53l-.3.5c-.29.5-.75.46-1.33.29-.13.2-.13.7.02.93.12.19.53.41.78.44l.6.08c.19.02-.13-1.08.37-1.35.18-.1.7-.08.78.11.12.27.41.77.65.8l.97.1c.39-.24.8-.47,1.29-.59-.31.49-.59.89-.47,1.3l1.24.1-.09,1.1.97-.25c.19.03.7.16.81.01l.49-.67c.23-.32,1.07-.36,1.59-.39l-.17.78,1.56-.35c-.19.59-.74.47-1.42,1.16s-.51,1.2-.92,1.21c-.49.02-.25-1.07-.42-1.05l-.48.05c-.73.08-1.67.07-2.21.64-.16.17-.34.58-.52.61l-.56.11c-.11.02,0,.39.05.49l.19.46c.11.26-.98.23-1.15,1.06Z"/>
      <path class="cls-3" d="M7.58,41.34l.5-.08c.33-.05.13-.95.98-.99.2,0,.52-.13.57-.21-.39-.31-.87-.72-1.21-.79l-1.27-.27c-.02.61-.68,1.06-1.18.8l-.44-.76c-.07-.13-.02-.44.08-.55.39-.41,1.36.15,2.38-.83-.2-.27-.42-.56-.34-.7l.34-.6-.23-.98c.32.02.81.17.97.32.03.67.1,1.15.27,1.73l.16.54c.08.28,1.48-.98,2.11.15l-.61.68,1.56.06-.48-.95.86-.34.89-.63c.25.49-.25.8-.59.87.72.44.47,1.55,1.19,1.39l1.5-.33c.36.29-.25,1.63-.71,2.18l-1.07,1.28-.23,1.67-1.25-.09-.59-1.01.75-.32c.15-.07.33-.16.42-.24s-.02-.44-.07-.54c-.56.29-1.11.55-1.5.89l-.47.4c-.1.09-.51-.11-.45-.25.36-.31.67-.54.68-1.15l-.98.35-.69-.52-.4,1.2,1.15.59c-.13.48.04.9.41,1.4-.46.45-1.34.16-1.78-.27l-.11-.67c-.34.05-.64.05-.84-.02l-.44-.16s-.41-1.44-.02-2.11v-.17c-.09.05-.46.25-.54.14l-.38-.46c-.11.31-.13.43-.21.54s-.54-.01-.61-.12c-.12-.18-.33-.59-.39-.76l1.13-.09.79.09c.08,0,.33.07.33.15l.03.41.03.17Z"/>
      <path class="cls-3" d="M31.08,55.7l.03-1.34-1.04-.27c-.06-.33.17-.64.51-.83l.29-1.4,1.14-.26,1.57-.32c.79-.16,1.24.12,1.56.84l.23.5c.06.14-.24.52-.39.48-.85-.23-1.7.1-2.1.96-.37.23-.96.63-1.18.98l.67.62-1.28.04Z"/>
      <path class="cls-3" d="M24.97,71.5l-1.01.32-1.06.35c-.49.16-1.02-.3-1.12-.69-.14-.55.05-.97.5-1.17l-.32-1.03c-.03-.12-.21-.32-.4-.53l1.1-.72.1,1.56c0,.11.34.38.28.46l-.33.45.6.62c0,.13.09.55.2.5l.47-.21c.13-.06-.03-.3-.17-.48l.07-.34c.02-.08.42-.07.48-.02.21.16.49.62.61.93Z"/>
      <path class="cls-3" d="M22.66,36.62c-.27-.03.32,1.14-.09,1.33-.26.12-.93-.15-.94-.38l.03-1.06c.03-.82,1.91-.78,1.92-.6l.03.54c0,.15-.39.23-.54.21l-.42-.05Z"/>
      <path class="cls-3" d="M22.73,31.63l.33.27c.09.07-.12.33-.2.43l-.78.82-.61-.94c.02-.46.28-.98.54-1.2.45-.38.85-.43,1.48-.12.17.14-.11.47-.28.25-.27-.09-.49-.15-.58-.05s0,.47.1.55Z"/>
      <path class="cls-3" d="M24.85,44.58l-1.33-.12-.3-1.15c-.05-.18.43-.45.63-.44.63.02,1.05.75,1,1.71Z"/>
      <path class="cls-3" d="M20.26,56.09l-.93.04-.11-.7-.6-.16c-.14-.04-.03-.49.06-.61l.48-.69.35.7.56-.08c.27-.04-.24.84-.21.89l.4.6Z"/>
      <path class="cls-3" d="M5.08,37.13l-.81-.73c-.12-.06-.06-.58.07-.71h1.44c-.06.56-.36,1.1-.7,1.44Z"/>
      <polygon class="cls-3" points="21.66 53.47 20.5 52.98 20.23 51.83 21.25 51.81 21.66 53.47"/>
      <path class="cls-3" d="M5.01,38.91c-.25.18-.61-.17-.61-.42s.2-.69.4-.6c.31.13.48.82.21,1.02Z"/>
      <path class="cls-3" d="M3.79,35.65c-.46.14-.72-.81-.28-.94.32-.1.72.8.28.94Z"/>
      <path class="cls-3" d="M23.37,33.12l-.62.52c-.06-.01-.29-.12-.28-.2.02-.1.13-.35.22-.41l.43-.28c.11-.07.36.28.26.36Z"/>
      <path class="cls-3" d="M22.25,51.16l-.19.61c-.04.12-.51-.11-.59-.2-.07-.28.5-.63.78-.41Z"/>
      <path class="cls-3" d="M28.98,35.71c0,.15-.03.54-.11.53l-.4-.05c-.11-.01-.06-.24,0-.37l.16-.29c.04-.07.35.08.35.17Z"/>
      <rect class="cls-3" x="28.29" y="74.01" width=".52" height=".56" transform="translate(-30.21 20.61) rotate(-26.57)"/>
      <path class="cls-3" d="M15.57,30.24l-.16.34c-.03.07-.18-.02-.23-.08s-.03-.28.01-.34l.15-.21s.17-.04.27-.05c.07,0-.02.25-.06.33Z"/>
      <path class="cls-3" d="M25.95,36.28c0-.06.27,0,.27.05v.28c0,.06-.24.14-.24.08l-.02-.42Z"/>
      <path class="cls-3" d="M26.09,32.97c0-.06.27,0,.27.05v.28c0,.06-.24.14-.24.08l-.02-.41Z"/>
      <path class="cls-3" d="M19.03,53.27c0-.06.27,0,.27.05v.28c0,.06-.24.14-.24.08l-.02-.42Z"/>
      <path class="cls-3" d="M6.07,34.55c0-.06.27,0,.27.05v.28c0,.06-.24.14-.24.08l-.02-.42Z"/>
      <path class="cls-3" d="M25.21,32.14l.34-.07c.06-.01.14.21.08.23l-.23.09c-.08.03-.28-.23-.19-.25Z"/>
      <g>
        <path class="cls-2" d="M49.16,111.99c-.36.43-.56.72-1.13.55-.34-.1-.53-.77-.24-1.15.89-1.17,2.05-2.16,3.19-3.08.09-.07.3-.33.23-.38l-.39-.28c-1.93.12-3.75.38-5.61.84l-1.66.83c-.25.12-.78-.02-.91-.24-1.04-1.79,5.83-2.88,8.33-3.07,1.47-.11,2.84-.87,3.54-2.13l2.13-3.8,4.31-8.2,3.26-6.42c.06-.19.27-.77.18-.96l-.93-1.79c-.2-.39-.71-.26-1.07-.16-4,1.05-7.99,1.76-12.13,1.97-.47.02-1.15-.06-1.41.27l-1.23,1.58c-3.32,4.28-6.38,8.66-9.45,13.13l-2.13,3.09c-.09.13-.16.54-.09.68s.35.36.52.39l2.53.37c.85.13,1.66.46,2.47.81.28.12.44.61.44.9,0,.28-.48.71-.81.55-.99-.47-1.89-.81-3-.89l-2.83-.2c-3.18.3-6.91,1.95-9.11,4.34-.21.23-.88.17-1.07-.07s-.18-.91.13-1.16l3.79-2.93c-.49-.29-.98-.33-1.51-.29-1.89.14-3.71.32-5.56.79-1.17.29-2.16,1.45-2.7.61-.6-.92,1.01-1.59,2.44-1.99,2.8-.8,5.6-1.01,8.5-1.14,2.55-.11,3.77-1.25,5.16-3.25l10.05-14.54c.14-.2.27-.51.22-.67s-.35-.35-.54-.44c-18.18-.98-34.41-11.99-42.11-28.49-1.45-3.52-2.34-7.22-2.81-11.08-.54-4.49.17-8.89,1.84-13.07C-.22,27.45.43,23.18,3.02,19.24c.51-2.62,1-5.11,1.71-7.64.73-2.57,2.13-4.66,3.99-6.51.82-.82,1.69-1.57,2.73-2.16C16.73-.01,22.89-.75,28.75.77c2.55.66,4.94,1.72,6.86,3.47l1.13,1.03c1.97,2.25,3.2,4.92,4.23,7.7,1.21,3.26,2.11,5.06,5.06,7.2l1.28.93c4.01,1.51,7.83,3.2,11.68,5.14,4.66,2.35,9.12,4.81,13.46,7.7,3.1,2.07,5.92,4.28,8.81,6.61.29.23.74.16,1.01-.06l1.59-1.31,1.64-1.54,6.12-6.11,7.44-7.98,9.99-11.3c1.28-1.45,2.98-2.34,4.91-2.08.72.1,1.23.56,1.53,1.24.29.06.79.01,1.09-.07,1.61-.41,3.04.56,3.24,2.16.28,2.13-.1,4.19-1.22,6l-3.73,6.07c-2.78,4.53-5.87,8.71-9.08,12.94l-3.99,5.26c-2.35,3.1-4.64,6.12-6.69,9.42l-2.45,3.94c1.18,1.78,1.79,3.15.77,5.03l1.31,1.92c.53.78.59,1.69.44,2.56.85.9,1.52,1.96,1.02,3.26s-3.29,1.43-5.04,1.22l-7.09-.84c-.49-.06-.78.41-1.11.73-2.94,2.91-6.26,5.25-9.9,7.21l-6.45,2.95c-.26,1.55,1.35,2.14.17,4.19l-1.95,3.39-2.97,5.38-5.73,10.81c-.1.19-.13.57-.05.72s.46.36.65.34l2.74-.24c1.8-.16,3.51-.17,5.11.73.26.14.39.68.29.94-.12.32-.65.48-1,.31-1.3-.67-2.69-.77-4.13-.56l-3.04.43c-.62.09-1.36-.02-1.95.25-2.14.96-4.06,2.29-5.6,4.13ZM4.61,19.9l-.92,1.36c-.72,1.05-1.13,2.32-1.27,3.6l-.14.49.04,2.4.16.64c.17,1.53,1.44,2.83,1.13,3.94l-.27.98c-1.08,2.08-1.47,4.51-1.69,6.94l-.13,1.93c.33,3.83.81,7.62,2.22,11.24,2.47,6.36,6.48,11.96,11.41,16.61l3.3,2.78,2.08,1.55,2.19,1.44.83.5,2.22,1.23.65.32,3.8,1.67.83.32c4.84,1.87,9.9,2.86,15.18,3.06,6.31.23,12.47-.82,18.45-2.81l4.45-1.76c3.35-1.56,6.49-3.3,9.37-5.6l1.37-1.1c.63-.5,1.23-1.09,1.74-1.82-5.7-1.03-11.02-2.2-16.49-3.61-5.1-1.31-10.08-2.7-14.95-4.5-2.39-.89-4.73-1.95-7-3.21l-2.28-1.48c-.85-.55-1.6-1.2-2.29-1.89l-.43-.43c-1.68-1.7-2.91-3.72-3.84-5.92l-.71-2.15-.42-1.82-.04-1.22c0-.29.23-.69.49-.76,1.22-.35.71,1.68,1.45,3.69l.68,1.87.74,1.46.86,1.42,1.2,1.62.55.57,1.11,1.11c.06.06.26.14.34.16.39.47.91.87,1.44,1.22l.56.37,1.43.89,1.17.63,3.31,1.56,1.01.41,1.16.44.29.11.14.04.32.11,1,.4,2.13.69,2.44.77,2.61.77,2.72.75,1.93.54,4.25,1.09.92.22c5.09,1.23,10.19,2.24,15.43,3.03l8.04.88c.55.06,1.29-.14,1.78-.34.3-1.07-.57-1.65-1.5-1.79-5.29-.8-10.34-2.17-15.51-3.5l-2.99-.77-.36-.11-1.66-.47-1.48-.42c-.06.04-.08.05-.1.05l-.66-.3-.78-.25c-.45-.14-.93-.18-1.37-.19-.11-.35-.86-.47-1.24-.6l-1.86-.63-2.89-.99-3.38-1.21c-.1-.3-.23-.79-.13-1.14.56-.22.85-.16,1.33.02,5.87,2.24,11.9,4,17.94,5.62,4.89,1.3,9.76,2.61,14.85,3.39.22.03.66-.09.76-.23s.1-.54-.01-.69l-1.86-2.5-.73-.13-8.65-3.14-.82-.26-15.71-5.7-4.49-1.61-.49-.36c0-.16.04-.7.19-.85.17-.18.79-.14.97-.06l4.34,1.55,9.94,3.61,1.03.37,1.01.36,10.7,3.9,2.39.78c.2.07.66,0,.8-.11.5-.44-.06-1.95-.68-2.74l-1.68-2.17-4.69-2.29-6.99-3.12-.12.08-.31-.23-.59-.26-2.52-1.07c-.1-.04-.39-.05-.5-.04-.03,0-.07.03-.11.06-.13-.25-.49-.47-.81-.59l-2.86-1.06-.25-.13c-.04-.19-.1-.63-.01-.8s.36-.36.53-.48h.33s2.32,1,2.32,1l1.39.52c4.37,1.63,8.63,3.54,12.85,5.65.63.32,1.13.66,1.92.71-.4-1.58-1.18-2.76-2.04-4.05-2.07-3.13-4.6-5.84-7.51-8.21l-2.12-1.73-.16-.17-5.69-4.11-3.69-2.36-.26-.16-1.89-1.15-.25-.1-4.28-2.4-4.13-2.11-.67-.33-2.03-1-4.18-1.88-1.34-.55-1.14-.43-.87-.28-.28-.11-1.68-1.2-.97-.75-1.36-1.24-.86-.99-.8-.89-.73-1.41-.29-.74-1.26-3.21c-.83-2.13-1.83-4.21-3.49-5.92-1.81-1.86-4.03-3.12-6.51-3.88-4.36-1.34-8.87-1.24-13.21.18-4.97,1.63-8.47,4.9-9.71,10.06l-.83,3.48-.66,3.58ZM90.94,54.85l.72.69,2.45-3.67,3.01-4.48,5.32-7.07c3.91-5.2,7.79-10.3,11.24-15.8l2.07-3.3,1.11-1.9c.82-1.41,1.43-2.86,1.51-4.53.03-.54-.08-1.44-.52-1.72-.68-.44-1.52-.15-2.17.2-.38.21-1.14.27-1.22-.27-.09-.63-.28-1.22-1.09-1.3-1.21-.11-2.25.61-3.05,1.51l-1.84,2.09-8.7,9.83-1.87,2.05-5.1,5.42-6.04,6.04-3.38,3.11c-.13.12-.28.26-.33.36s.13.38.21.46l2.35,2.56c1.9,2.06,5.54,7,5.31,9.73Z"/>
        <path class="cls-3" d="M39.02,12.41l-1.03.83c.34.21.6.39.71.56.21.31-.57,1.73.25,1.97.34.1.95-.05,1.32-.15l.29.74c-.38.63-1.05.99-1.85.84l-.94.99c.46.32.85.3,1.41.27l1.34-.06.76-.64.8.89-1.34.43c0,.28.14.92.23,1.22.81-.08,1.46-.08,2.06.04.1.39.25.78.43.92.16.12.62.15.87.19.12.02.29.37.41.34l.53-.15,1.68,1.2-1.21.56-.53,1.36-1.44-.51c-.02.33.04.89.19,1.26l.34.84c.04.11-.11.38-.23.38h-.49c-.15-.02-.51.07-.63.17s.03.4.07.58l.27,1.1c.16.06.5-.29.6-.54l.52-.46c.13-.11.07-.57.07-.81.62.02,1.15.23,1.67.57l.74-.56.68.94c.13.18.14.67.34.75.17.06.75.09.88-.04.26-.25.36-.91.46-1.48.76.47.58,1.4.29,2.11l-.49,1.2,1.07.51c.73.35.55,1.21,1.77,1.39.16-.51.18-.89.13-1.47l1.13-.21c.27-.05.68-.26.72-.49.04-.28-.09-.84-.22-.91-.39.15-.75.3-.99.25-.22-.04-.41-.55-.41-.77,0-.67,1.21-.58,1.53-1.76.27.03.59.05.73-.04s.24-.44.26-.65l2.03,1-.37.6c-.08.15.2.57.37.6.36.06.73-.52.67-.87l4.13,2.11c-.28.08-.6.29-.82.52l-.55.56.5,1.41,1.51-.48.49.3.56-.89c.27.42.36.66.54.74.57.26,1.47-.18,1.39.16l-.12.53.77-.44.25.1c.04.19.06.44-.02.57-.07.11-.43.18-.57.2l-.46.07c-.06,0,.08.18.11.2.65.21,1.09.17,1.65-.14l1.17.24.26.16-1.4.7c-.36.17-1.01.13-1.38.09-.2.43-.66.61-.97.84l-.57.4c-.11.08-1.02-.18-1.25-.88l-.69.19-1.58-.74.19-1.2c-.43-.09-.77-.21-1.2-.37-.58.27.12,1.12-.3,1.46s-.94-.47-1.51-.26c-.22.08-.56.43-.57.65v1.18s1.07.04,1.07.04c-.01.09.04-.27.05-.38.01-.1-.14-.14-.36-.23-.06-.08-.2-.45-.2-.56,1.22-.18,1.52.91,2.46,1.15.13-.63.26-.88.62-.92.26-.03.68.32.67.57l-.76.92-.67-.1c.03.52,0,.72-.08,1.24.23.15.77-.36.83-.68.04-.1.43.03.39.14l-.14.49c-.06.2.21.54.41.73.16.14.61.15.87.09l1.06-.28.93-.34c.58.2,1.12.57,1.86.29l-.66-.58c0-.13.18-.66.41-.71l1.12-.24c-.46-.33-.94-.97-.72-1.39.08-.15.46.12.55.23l.85.25c.29.51.4.61.89,1.06l-1.16.26v.66c0,.24-.98.45-.82.64l.31.37.64.45c.45-.46.9-.84,1.34-1.03.83.28,1.58.58,2.39.48.49-.06,1.17-.41,1.56.11.22.3.3.98.32,1.36l.81.77-.04-.67c0-.1.3-.29.39-.28.27.17.63.66.81.96.86.45,1.87.08,2.62-.47l.16.17c-.45.94-.77,2.51-.69,2.58l.51.46c.14.13.37.31.51.32s.37-.13.58-.22c.8-.35.57-1.29,1.09-1.12.18.06.48.35.55.54.14.34-1.22.59-1.29,1.46-.02.27.25.78.43,1.1-.39.72-1.33.51-2.05.28l-.5-.16c-.16-.05.36-1.16-.06-1.21l-.7-.1c.57,1.04.19,1.53.47,2.04.24.42,1.09,0,1.2.86l-.93.32-.81-1.08-1.18.07-.24,1.5-1.39-.52.03-.22c.03-.12.64.04.8-.35s-.39-.84-.2-1.03l.43-.44c.18-.31-.25-1.22-.63-1.25l-1.23.04c-1.08,1.08.93,1.69.62,2.95l-.9-.37c-.39-.16-.9-.33-1.24-.32h-.33s.49-.33.49-.33l-.91-.61-.74,1.17c-.12.2-.19.63-.05.78.16.16.49.26.68.27l.25.13c-.15.65.47,1.28,1.2,1.35l.54.93,1.06-.03c.27,0,.69-.41.87-.6.04-.03.08-.06.11-.06l.21.6c.45.27,1.16.5,1.71.66.17.05.51.37.64.27l.46-.42.59.26c0,.11.02.15.07.16l.24.07.12-.08c.3.52.36,1.41.2,1.9-.03.1.2.41.26.33.41-.55.79-.66,1.46-.86.73.65,1.89.87,1.78,1.22l-.19.66.03.45-.27.33c-.19.23-.27.59-.45.7-.36.22-1.39-.15-1.52.12l-.22.46-.94.42-1.01-.36c.01-.18-.18-.57-.36-.56l-.67.19-9.94-3.61-1.19-.76.46-.46c.21-.34.49-.6.76-.83.57-.49-.08-1.17-.3-1.56l-.74-1.35-.94.04c-.16,0-.35.45-.29.59l.28.61c-.44.38-1.16.56-1.84.68l-.52,1.48c-.17-.08-.8-.12-.97.06-.15.15-.19.69-.19.85-.28-.02-.5.25-.41.53.05.17.37.4.54.41.19,0,.4-.32.36-.58l4.49,1.61,15.71,5.7c-.56.86-1.2.31-1.38,1.26-.07.35-.28.43-.72.5-.37.06-.72.78-.97,1.06l-.48.75c-6.04-1.61-12.07-3.37-17.94-5.62-.48-.18-.76-.24-1.33-.02s-1.15.9-1.15.97l-.04.55-.65.72c-.74.17-1.43.58-1.34,1.49l-1.03.87-2.13-.69c.18-.23.28-.72.09-.89-.24-.21-.35-.39-.32-.56.02-.12.29-.31.39-.24s.31.29.38.41l.24.43c.04.08.29-.25.3-.34l.08-1.02c-.27-.11-.76-.06-1.1.01-.12-.22-.38-.75-.59-.71l-.95.18-1.04.06c-.08.7-.14,1.09-.36,1.55l-1.01-.41-.34-.43.94-.7-.21-1.4-.77,1.15c-.2-.6-.36-1.17-.65-1.55-.22-.29-1.2-.24-1.38.07l-.89,1.3-1.17-.63-1.43-.89,1.21-1.41c.09-.1.06-.5.17-.53l.46-.09c.34-.07.56-.57.52-.97l-1.2-.23-.32,1.36c-.25-.15-1.19-.1-1.18.23.02.55.02.92-.21,1.28-.52-.35-1.05-.75-1.44-1.22.33.07,1.04-.07,1.27-.33.1-.11-.03-.52-.16-.58s-.44-.07-.54.01l-.91.73-1.11-1.11c.41-.29.88-.89.63-1.38s-1-.28-1.29.14l.1.67-1.2-1.62c.19-.67,1.51-.61,1.33-1.05-.06-.14-.35-.51-.48-.49l-.57.08-.48-.43-.66.48-.74-1.46.58-.96c.32-.6-.47-1.35-1.01-1.37l-.25.46c-.73-2.01-.23-4.03-1.45-3.69-.26.07-.5.47-.49.76l.04,1.22-.97.25.88,1.21c.09.13.34.37.52.36l.71,2.15-1.61.25-.16-.48c-.21-.63-.59.41-1.54.53.28,1.73-.59,2.33-.66,2.15l.2.55-3.01.78-.38-.67-.49.39c-.36.29.73.95-.22,1.85-.59.56-.45,1.53-.1,2.24l-2.59.3-.12.63c-.03.14-.45.15-.64.15-.12,0-.24.43-.14.49l.5.3c.22.13-.09.68-.19.93l-.47,1.15.15.83-1.29.14c.07-.33.15-.76.09-.94-.15-.48-1.37-.34-1.25-.94.04-.2.29-.35.58-.44.41-.13.53-.7.48-1.21l.99-.55c.23-.44.35-.64.9-.85l-.26-1.27c-.09-.42.07-.78.21-1.18.16-.44.22-.84.59-1.23.45.92.84,1.42,1.65,1.62l.67-.66-.62-1.06c-.15-.27.32-.85.61-1.05l-.22-1.37-.73-.46.85-.85c-.37-.48-.71-.87-.88-1.3-.51-1.31,1.35-1.5.38-2.43l-.31-.3c-.08-.08.33-.18.42-.25.44-.34.31-1.04.04-1.48l-.21-.35c-.05-.09-.25-.05-.42-.05l-.47-.02c-.53-.02.3-.89.05-1.17-.28-.32-.86-.71-1.35-.98l.04-1c-.17-.19-.4-.52-.4-.71,0-.22.43-.5.64-.57.68-.22,1.1-.17,1.55.32.87-.02,1.18-.63,1.79-.81.33-.09.53.72.85.68.43-.06.35-.97.99-1.16l.32.64c.07.14.43.04.72-.08l.3.27c0,.27.04.48.15.51.14.03.47-.12.55-.26.25-.44.95-.38,1.35-.09.32-.86,1.14-.3,1.1-.9s-.77.06-.9-.84c-.03-.2-.58-.27-.79-.21-.2.05-.32.28-.57.68l-.5-.85c-.31-.53-.47-.81-1.04-1.26l.53-.64c.25-.3.51-.6.54-.88.05-.36-.16-.84-.43-.95l-1.46-.58-.12.52-.56.89-.67-.35c-.54-.28-.55-.57-.7-1.06l-.5-1.63.52-.4c-.26-.42-.93-.83-1.41-.44-.32.26-.46.96-.58,1.46-.79-.04-2.17-.89-2.24-1.21l-.11-.47c-.02-.11-.32.08-.42.12l-.38.16c-.1.04-.01-.39-.01-.51,0-.39-.92-.29-.97,0,.23.31.44.63.4.88-.11.61-1.5.81-.91.92l.32.06c.18.03.48.26.63.46l-.85.53c-.7-1.29-2.18-1.6-1.63-2.65.21-.4,1.18-.44,1.49-.73l1.19-1.13c.32-.3.67-.46.95-.36.56.21.66.52.61,1.06,0,.09.05.35.13.36l.38.03c.29.02,1.09,0,1.14-.28l.24-1.36c-.14.03-.41.15-.53.25l-.41.33c-.11.09-.4-.29-.44-.43l-.36-1.21,1.35-.91.46,1.55,1.08.43.75-.39.19.8c.1.03.4-.36.4-.53s-.35-.37-.46-.51c-.26-.32-.52-.72-.87-.87l-1.18-.52c1.4-1.09,3.25-.47,3.27-1.55.02-1.16-1.54-.6-3.13-1.78l-2.07-1.53c-1.66-1.23-2.63,1.68-5.71,2.09-.38.05-1.03.15-1.13.45l-.62-.15c-.17-.05-.34.49-.18.58s.49.13.64.06l.52.88c.35-.15.87-.23,1.13-.09l1.46.77-.52.94c-.56.13-1.08.44-1.29.92l.13.11c.24.02.81.22.97.45.37.51-.86,1.28-1.1,1.22s-.51-.54-.36-.7c.28-.3.4-.57.45-.86l-.17-.11-.57-.36c-.1-.06-.4-.1-.5-.04-.07.05-.15.29-.15.39l.04,1.05-1.38.13-.2-.7c-.14-.09-.65.05-.66.25l-.06.73c-.05.61-.02,1.12.26,1.67l-.53.78c-.37-.3-.66-.36-1.11-.19-.1.04-.33.3-.24.36l.31.21.41.27c.21.14-.34.77-.29.82l.28.26.62.75-.44,1.06c-.11.26-.88.31-1.05.08-.31-.41.04-.79.39-1.14.05-.68-1.05-.11-1.16-2.01-.23-.11-.68.09-.85.32l-.83,1.13.1.08.48.12c.11.03-.08.35-.17.42s-.42.1-.42-.02l.03-.43-.14-.19-1.74.93c.26.34.44,1.02.12,1.13-.36.13-1.04.08-1.29,0-.18-.41-.32-.69-.61-.88-.21-.14-.69.08-.98.23l-1.24-.22.27-.98c.31-1.12-.96-2.41-1.13-3.94l.39-.77-.37.18c-.05.03-.13,0-.18-.05l-.04-2.4.14-.49c.14-1.27.55-2.54,1.27-3.6l.59.53.98-1.45c.02-.15,0-.39-.13-.39l-.52-.04.66-3.58.83-3.48c1.23-5.16,4.74-8.43,9.71-10.06,4.33-1.42,8.84-1.52,13.21-.18,2.48.76,4.71,2.02,6.51,3.88,1.66,1.71,2.66,3.8,3.49,5.92ZM13.87,19.8c.66-1.44.3-3.28-.8-4.34-1.19-1.14-3.08-.9-3.87.44-.68,1.15-.95,2.44-.52,3.66.41,1.14,1.39,1.88,2.5,1.92s2.16-.52,2.7-1.68ZM35.53,16.59c.15.09.65.12.69-.04l.2-.8c.05-.19-.55-.33-.76-.26s-.39.35-.53.6c-.84-1.05-2.43-1.14-3.52-.34-1.56,1.13-2.15,4.25-.01,5.81.69.51,1.7.54,2.6.18.64-.26,1.22-.96,1.54-1.74.47-1.13.22-2.27-.2-3.4ZM5.9,19.84v.29h.72v-.29h-.72ZM40.38,20.3l-.28.54.28.14.28-.54-.28-.14ZM9.26,21.57c-.17-.18-.47-.3-.69-.33-.19-.02-.48.43-.32.54.22.16.81,0,1.01-.22ZM4.49,24.85l.55-.99.42-.91-1.81.57c.3.6.53.98.84,1.34ZM39.4,24.7c.13.07.29-.33.21-.46-.06-.1-.31-.25-.42-.22s-.25.41-.15.47l.36.21ZM36.14,32.21c.34,0,.53-.69.47-1.05l.48-.22s-.09-1.06.15-.84l.26.24,1.1.83c-.06.53-.04.87.02,1.5-.8-1.14-2.29-.14-2.27-.1l.24.52c.2.44.64,1.04,1.02,1.18.35-.44.61-.66.97-.48.15.07.56.22.62.09.23-.51-.03-1.03.25-1.43.36-.5,1.37.33,1.74-1.09l.43-1.65c-.47-.58-2.07-.2-2.23-1.18l-.14-.86c-.05-.3.22-.7.49-.89l.38-.27c.12-.08.66.33.8.21l.35-.32.9-.5c-.27-.51-.89-.88-1.32-.84-.16.1-.56.47-.7.36l-.63-.47-.55,1.78-.6,1-.46-.62c-.07-.1-.48.02-.57.1l-.8.65c.23.52.32.86.09,1.16-.27.36-.68.5-1.11.36-.99-.33-.77.5-1.61.59,1.1,1.2-.53,2.04.07,3.07-.18.14-.47.37-.45.54l.11.68c-.06.37-.04.87.21,1.19l.45.58c.1.13.59.11.67-.04.09-.16.4-.43.47-.32l.27.47c.13.22.55.58.56.82.02.28-.12.58-.3,1.14.38,0,.87-.07,1.25-.18l-.36-1.16c-.09-.3.31-.87.52-1.12l.06-1.11-1.34-.06c-.12-.15-.31-.38-.42-.33l-.46.21c-.17.07-.61.05-.76-.05s-.2-.52-.07-.63c.2-.16.48-.41.58-.57.08-.14-.13-.47-.21-.68-.1-.24.13-.75.15-1.08l.03-.49c0-.1.33-.17.4-.09l.3.32.51,1.12ZM59.21,28.68c0-.14-.11-.25-.25-.25s-.25.11-.25.25.11.25.25.25.25-.11.25-.25ZM43.08,28.77c0-.09-.07-.16-.16-.16s-.16.07-.16.16.07.16.16.16.16-.07.16-.16ZM7.23,32.94l.13-.63c.03-.13-.43-.08-.65,0l.52.63ZM62.47,32.85c.05-.07.04-.39-.02-.36l-.29.1-.35.4c-.07.08.3.34.36.26l.29-.4ZM39.16,36.07c.12-.41.2-.67.09-.71l-.46-.18c-.11-.04-.26.39-.16.47l.54.42ZM32.72,35.87c-.09.08-.2.35-.18.47s.46.2.51.08.07-.35.09-.51c0-.09-.35-.1-.42-.04ZM39.99,37.18c-.1-.53-.14-.81-.25-.94s-.64-.14-.74,0c-.14.21-.09.77,0,1.03l1-.1ZM41.39,36.55l.13.31s.22-.05.21-.1l-.07-.3s-.29.04-.27.09ZM41.74,37.3l-.97-.17c-.05.09-.04.65.12.66l.75.06c.11,0,.42-.13.41-.24s-.19-.29-.31-.32ZM34.46,38.24c.14.13.59-.3.55-.49s-.31-.34-.68-.48c-.11.23-.1.75.14.96ZM31.49,46.66c.2-.03.5-.44.48-.58-.89-.26-1.55-.67-1.72-1.66l-1.2-.07c-.24-.06-.65-.62-.73-.83.37-.47.48-.68.65-1.18l.89-.12.2-1.64c-.28.08-.61.13-.61,0v-.49s-.02-.33-.02-.33c0-.08-.29.07-.32.14l-.34.96c-.19.53-1.21.5-1.41,0-.04-.11.03-.55-.08-.59l-.5-.16c-.15-.55-.58-1-1.14-1.21l.17,2c.33-.2.59-.33.88-.38-.26.54-.53,1.08-.44,1.49,1.45.79.61,1.4,1,2.52l1.04-.24c.21.22.42.84.36,1.23-.11.66-1.21.73-1.23,1.32-.01.41,1.19.14,1.17,1.99,0,.24.62.49.75.29l.87-1.23c.34-.48.53-1.12,1.27-1.24ZM47.22,40.08l-.63-.9c-.1-.15-.53.24-.65.36l-.42.28c-.07.05-.02.35,0,.51l1.7-.25ZM59.3,39.35h-1.07c-.18.01-.26.58-.15.72.09.12.47.11.62.06l.53-.17c.11-.04.1-.41.07-.61ZM39.75,42.84c-.07-.69-.53-1.38-.89-1.55l-.94.61c-.24.22.16.85.46.99.4.18,1.05.24,1.37-.06ZM76.42,42.82c.4-.37-.01-.9-.41-1.2-.31-.23-.89-.53-1.11-.29l-.83.93c-.13.33.68.92,1.05.72.44-.24.9-.25,1.29-.17ZM37.85,44.92l.18-.92c-.25-.24-.93-.63-1.23-.5l-.87.37.32.97,1.6.08ZM47.91,45.11c.62.13.94-.13,1.08-.48.09-.22-.22-.71-.48-.92-.56.26-.83.91-.6,1.41ZM75.08,45.02c.01.08.48.02.47-.09l-.02-.44c0-.11-.31-.14-.45-.13v.66ZM46.42,46.95l-.59-1.18-.33,1c-.49-.05-.94.42-.76.68.68.35,1.42.17,1.68-.5ZM67.58,47.06c.15-.04.13-.44.06-.58s-.51-.24-.51-.09v.58c0,.09.35.11.45.09ZM51.98,47.32c0-.18-.15-.33-.33-.33s-.33.15-.33.33.15.33.33.33.33-.15.33-.33ZM53.23,48.97v-.48c0-.27-.07-.66-.26-.78-.24-.15-.77-.06-.79.17-.03.38-.13.84-.26,1.11-.07.14.16.49.32.49.39,0,.99-.5.99-.53ZM28.59,50.57c-.06-.52-.13-1.13-.31-1.53-.1-.22-.81-.31-.96-.12-.19.25-.45.65-.3.87.33.52.79.98,1.57.79ZM42.91,49.25l-1.1-.07-.2.95c.36.05.62.04.91-.1.24-.11.44-.55.39-.79ZM69.14,49.43c-.09.02.11.28.19.25l.23-.09c.05-.02-.03-.24-.08-.23l-.34.07ZM56.55,51.67c.11-.28-.22-.98-.49-.99-.18.09-.59.34-.64.19l-.21-.62c-.04-.13-.35-.2-.5-.26l-.46-.19c-.1-.04-.25.27-.23.38.08.43.77.54.73.74l-.14.64c-.03.15,0,.52.11.62.09.08.41.05.53,0l1.31-.52ZM44.17,51.65c.1-.06.3-.29.41-.27l.62.11c-.05-.4-.22-1.06-.51-1.3-.37-.3-1.01-.36-1.56-.25l-.23,1.16c-.03.18-.39.56-.25.68l.49.45,1.02-.58ZM71.94,51.3c.66-.07.85-.71.57-1.19-.18.03-.55.24-.59.43-.04.17,0,.63.02.76ZM41.6,51.65c-.13-.86-.73-1.05-1.45-1.13-.05.18-.11.56-.12.75,0,.18.4.43.58.42l.99-.04ZM68.42,51.83c0-.3-.13-.74-.28-.73-.21.01-.6.19-.6.35,0,.21.11.52.26.6.19.1.62,0,.61-.22ZM52.35,56.03l.16.95,1.29.71-.08,1.05c.64-.13,1.04-.23,1.35-.44l-.58-.3c-.24-.12.33-.96-.13-1.3s-1.56.15-1.56-.46c0-.18.16-.47.35-.75l-.54-.99,1.05-.87-.62-1.44c-.58.38-.66.75-.64,1.43l-.71.09c-.12.01-.44-.07-.48-.17s-.05-.35-.04-.46l.05-.41c.01-.08-.28-.06-.37-.06h-.8c-.21.18-.34.7-.33,1.14l-.75.55c-.11.08-.13.4-.08.52.14.35.87-.96,1.54-.4.06.79.38,1.14,1.06,1.36l.84.27ZM44.76,57.23l-.22-.36s-.22.02-.22.08c0,.11.02.37.1.35.05-.01.33-.07.34-.07Z"/>
        <path class="cls-1" d="M70.42,61.99c0,.16.1.37.22.35l.44-.05s.04-.02.1-.05l.46,1.35-.69-.11.09,1.29c.09,1.24,1.26.65,1.96,1.42.05.06.2.1.28.12.58.1,1.28.16,1.94-.05l-.3-.93c.03-.36-.07-1.01-.28-1.26-.09-.11-.54-.21-.61-.09l-.24.44-1.12.33-.46-.92c-.11-.23-.26-.84-.03-.93l.48-.25,1.66.47v.28c0,.06.19.13.22.08l.14-.25,2.99.77c5.17,1.33,10.22,2.7,15.51,3.5.94.14,1.8.72,1.5,1.79-.48.2-1.23.4-1.78.34l-8.04-.88c-5.24-.8-10.35-1.8-15.43-3.03l.32-.54-1.01-.74c-.09-.07-.39-.11-.48-.05s-.1.32-.04.41l.29.69-4.25-1.09.07-.12c.26-.02.54-.04.71-.11.23-.09.34-.58.36-.81l.13-1.35c.6.47,1.32.22,1.83.74.2.2.27.82.32,1.12l.89-.03c.06-.03.23-.44.15-.56l-.37-.49c.03-.36.05-.82-.07-1.23.44,0,.92.05,1.37.19l.78.25Z"/>
        <path class="cls-1" d="M74.7,47.6l.24-1.5,1.18-.07.81,1.08.93-.32c-.11-.86-.97-.44-1.2-.86-.28-.51.1-.99-.47-2.04l.7.1c.42.06-.1,1.16.06,1.21l.5.16c.73.24,1.66.44,2.05-.28-.18-.33-.46-.83-.43-1.1.07-.87,1.43-1.12,1.29-1.46-.08-.19-.38-.48-.55-.54-.52-.17-.28.77-1.09,1.12-.21.09-.44.23-.58.22s-.37-.19-.51-.32l-.51-.46c-.08-.07.24-1.64.69-2.58l2.12,1.73c2.9,2.37,5.44,5.07,7.51,8.21.85,1.3,1.64,2.47,2.04,4.05-.79-.05-1.29-.4-1.92-.71-4.22-2.11-8.48-4.02-12.85-5.65Z"/>
        <path class="cls-1" d="M78.36,56.35l.94-.42.22-.46c.14-.28,1.16.1,1.52-.12.18-.11.26-.47.45-.7l.27-.33-.03-.45.19-.66c.1-.35-1.05-.56-1.78-1.22-.67.2-1.05.3-1.46.86-.06.08-.3-.23-.26-.33.15-.49.09-1.38-.2-1.9l6.99,3.12,4.69,2.29,1.68,2.17c.61.79,1.18,2.3.68,2.74-.14.12-.6.18-.8.11l-2.39-.78-10.7-3.9Z"/>
        <path class="cls-1" d="M78.03,62.62l.48-.75c.25-.29.6-1.01.97-1.06.44-.07.65-.15.72-.5.19-.95.82-.41,1.38-1.26l.82.26,8.65,3.14.73.13,1.86,2.5c.11.15.11.55.01.69s-.54.27-.76.23c-5.09-.78-9.96-2.09-14.85-3.39Z"/>
        <path class="cls-1" d="M68.28,33.34l3.69,2.36,5.69,4.11c-.76.56-1.76.92-2.62.47-.18-.3-.55-.8-.81-.96-.09,0-.4.19-.39.28l.04.67-.81-.77c-.02-.38-.09-1.06-.32-1.36-.39-.53-1.08-.18-1.56-.11-.82.1-1.57-.2-2.39-.48-.44.2-.89.58-1.34,1.03l-.64-.45-.31-.37c-.16-.19.81-.41.81-.64v-.66s1.17-.26,1.17-.26c-.49-.45-.59-.55-.89-1.06l-.85-.25c-.08-.12-.47-.38-.55-.23-.21.42.27,1.06.72,1.39l-1.12.24c-.23.05-.41.58-.41.71l.66.58c-.74.28-1.27-.08-1.86-.29l-.93.34-1.06.28c-.25.07-.71.06-.87-.09-.21-.19-.47-.52-.41-.73l.14-.49c.03-.12-.36-.25-.39-.14-.06.32-.6.83-.83.68.09-.52.12-.72.08-1.24l.67.1.76-.92c0-.25-.41-.61-.67-.57-.36.04-.49.29-.62.92-.94-.24-1.23-1.33-2.46-1.15,0,.11.13.47.2.56.21.09.37.13.36.23-.02.11-.07.47-.05.38l-1.08-.04v-1.18c.01-.22.36-.57.58-.65.56-.2,1.07.62,1.51.26s-.28-1.19.3-1.46c.43.16.77.28,1.2.37l-.19,1.2,1.58.74.69-.19c.23.7,1.14.95,1.25.88l.57-.4c.32-.23.77-.4.97-.84.36.04,1.02.08,1.38-.09l1.4-.7ZM69.89,37.09l.06-.84c.41-.34.5-.68.43-1.15-.06-.39-.51-.56-.91-.61,0,.67-.15.91-.73,1.38l1.16,1.22Z"/>
        <path class="cls-1" d="M47.25,22.94c.06.19.11.36.04.44l-.32.42c-.03.73,1.45.79,1.44,1.01-.04.46-.92.77-.75,1.77.02.13.25.46.38.43s.43-.15.42-.24l-.04-.59.74-1.16,1.1.5.33-1.31,4.18,1.88c-.02.21-.13.56-.26.65s-.46.07-.73.04c-.32,1.18-1.52,1.09-1.53,1.76,0,.23.19.73.41.77.24.05.6-.11.99-.25.13.06.27.63.22.91-.04.22-.45.44-.72.49l-1.13.21c.06.58.03.97-.13,1.47-1.22-.18-1.04-1.04-1.77-1.39l-1.07-.51.49-1.2c.29-.71.47-1.64-.29-2.11-.1.58-.2,1.23-.46,1.48-.13.13-.7.1-.88.04-.2-.08-.21-.56-.34-.75l-.68-.94-.74.56c-.51-.34-1.04-.55-1.67-.57,0,.25.06.7-.07.81l-.52.46c-.1.25-.44.6-.6.54l-.27-1.1c-.04-.18-.19-.49-.07-.58s.48-.18.63-.18h.49c.12.02.26-.26.23-.36l-.34-.84c-.15-.37-.21-.93-.19-1.26l1.44.51.53-1.36,1.21-.56.28.11ZM51.85,26.21c-.24-.32-1.08-.44-1.25.01-.07.2.42.5.63.51.22,0,.67-.31.62-.52ZM51.44,29.8l-.45-.29c-.12-.08-.39.12-.46.24-.05.1.06.5.17.51.19.02.49-.2.73-.46Z"/>
        <path class="cls-3" d="M62.27,59.33l-.43.49v1.13s1.03.29,1.03.29c.72.2,1.39.23,2.09-.05l.2-.87,1.86.63c.38.13,1.13.24,1.24.6.12.41.11.87.07,1.23l.37.49c.09.11-.09.53-.15.56l-.89.03c-.05-.31-.12-.92-.32-1.12-.51-.52-1.22-.27-1.83-.74l-.13,1.35c-.02.24-.12.72-.36.81-.17.07-.45.09-.71.11l-.07.12-1.93-.54c-.12-.62-.11-1.11.07-1.65-.32-.04-.9-.19-1.15-.12l-1.01.3c-.27.08-.58.39-.63.71l-2.61-.77c.28-1.15-.84-1.19-.7-1.67.16-.54,1.12.04,1.67-.73l.59-.33.33-1.5,3.38,1.21Z"/>
        <path class="cls-1" d="M50.18,61.7h-.93s-3.17.56-3.17.56c-.32.06-.99.64-1.21.33l-.84-1.22-.79-.31-.78-1.55c-.17-.33-.32-.63-.6-.86-.43-.35-.77-.46-1.28-.11l-.82-.5c-.03-.56-.2-.77-.5-1.1l-.81-.89.16-.92c.68.69,1.43,1.34,2.29,1.89l2.28,1.48c2.27,1.27,4.61,2.33,7,3.21Z"/>
        <path class="cls-1" d="M66.38,52.02l-4.34-1.55.52-1.48c.68-.12,1.4-.31,1.84-.68l-.28-.61c-.06-.14.13-.59.29-.59l.94-.04.74,1.35c.22.39.87,1.07.3,1.56-.26.22-.55.49-.76.83l-.46.46,1.19.76ZM65.68,49.82c-.02-.16-.13-.48-.25-.47l-.6.03.07.68.77-.24Z"/>
        <path class="cls-3" d="M72.66,62.65l-.48.25c-.23.09-.09.7.03.93l.46.92,1.12-.33.24-.44c.07-.12.51-.02.61.09.21.25.3.9.28,1.26l.3.93c-.66.21-1.36.15-1.94.05l-.28-.12c-.7-.77-1.87-.19-1.96-1.42l-.09-1.29.69.11-.46-1.35,1.48.42Z"/>
        <path class="cls-1" d="M58.76,56.98c-.1.35.03.84.13,1.14l-.33,1.5-.59.33c-.55.77-1.51.19-1.67.73-.14.47.98.52.7,1.67l-2.44-.77,1.03-.87c-.1-.91.59-1.32,1.34-1.49l.65-.72.04-.55c0-.07.6-.76,1.15-.97Z"/>
        <path class="cls-1" d="M61.61,29.53l4.28,2.4-.77.44.12-.53c.08-.34-.82.1-1.39-.16-.18-.08-.28-.32-.54-.74l-.56.89-.49-.3-1.51.48-.5-1.41.55-.56c.22-.23.54-.44.82-.52Z"/>
        <path class="cls-1" d="M48.51,59.38l-3.31-1.56.89-1.3c.19-.31,1.16-.36,1.38-.07.29.38.45.95.65,1.55l.77-1.15.21,1.4-.94.7.34.43Z"/>
        <path class="cls-1" d="M52.43,60.9l-1-.4.43-1.32c.03-.08.08-.26.09-.34s-.26-.18-.31-.11l-.17.22c-.35.46-.91.45-.88.77l.09.52-1.16-.44c.22-.46.29-.85.36-1.55l1.04-.06.95-.18c.22-.04.47.48.59.71.34-.07.82-.12,1.1-.01l-.08,1.02c0,.09-.26.42-.3.34l-.24-.43c-.06-.12-.27-.34-.38-.41s-.37.11-.39.24c-.03.17.09.35.32.56.19.17.09.66-.09.89Z"/>
        <path class="cls-3" d="M48.12,23.23l-.17.65.91.62.4-.84,1.34.55-.33,1.31-1.1-.5-.74,1.16.04.59c0,.09-.3.21-.42.24s-.36-.3-.38-.43c-.17-1,.71-1.31.75-1.77.02-.22-1.47-.29-1.44-1.01l.32-.42c.07-.09.01-.26-.04-.44l.87.28Z"/>
        <path class="cls-1" d="M73.31,47.08l-2.32-1c.34,0,.85.16,1.24.32l.9.37c.31-1.25-1.7-1.87-.62-2.95l1.23-.04c.38.03.81.95.63,1.25l-.43.44c-.19.2.36.64.2,1.03s-.77.24-.8.35l-.03.22Z"/>
        <path class="cls-1" d="M65.16,60.32l-.2.87c-.7.28-1.37.25-2.09.05l-1.04-.29v-1.13s.44-.49.44-.49l2.89.99Z"/>
        <path class="cls-1" d="M74.06,49.15c-.18.19-.6.59-.87.6l-1.06.03-.54-.93c-.74-.07-1.35-.7-1.2-1.35l2.86,1.06c.32.12.68.35.81.59Z"/>
        <path class="cls-1" d="M42.59,56.3l-.56-.37c.23-.36.22-.73.21-1.28,0-.32.93-.38,1.18-.23l.32-1.36,1.2.23c.04.4-.18.9-.52.97l-.46.09c-.11.02-.08.43-.17.53l-1.21,1.41Z"/>
        <path class="cls-1" d="M62.32,63.87l-2.72-.75c.05-.32.36-.63.63-.71l1.01-.3c.25-.07.83.08,1.15.12-.18.55-.19,1.03-.07,1.65Z"/>
        <path class="cls-1" d="M37.39,51.24l-.86-1.42.66-.48.48.43.57-.08c.13-.02.42.35.48.49.18.44-1.14.38-1.33,1.05Z"/>
        <path class="cls-1" d="M77.2,50.19l-.46.42c-.13.11-.48-.22-.64-.27-.55-.16-1.26-.4-1.71-.66l-.21-.6c.11-.01.4,0,.5.04l2.52,1.07Z"/>
        <path class="cls-1" d="M35.79,48.36l-.68-1.87.25-.46c.54.01,1.32.77,1.01,1.37l-.58.96Z"/>
        <path class="cls-1" d="M70.65,46.09c-.17.12-.44.31-.53.48s-.02.61.01.8c-.2,0-.53-.1-.68-.27-.15-.15-.08-.59.05-.78l.74-1.17.91.61-.49.34Z"/>
        <path class="cls-1" d="M39.15,53.44l-.55-.57-.1-.67c.29-.42,1.05-.6,1.29-.14.25.49-.23,1.09-.63,1.38Z"/>
        <path class="cls-1" d="M68.02,33.18l-1.17-.24c-.57.31-1,.36-1.65.14-.03-.02-.17-.19-.11-.2l.46-.07c.14-.02.5-.09.57-.2.08-.13.07-.38.02-.57l1.89,1.15Z"/>
        <path class="cls-3" d="M69.42,65.73l-.92-.22-.29-.69c-.05-.09-.05-.35.04-.41s.39-.02.48.05l1.01.74-.32.54Z"/>
        <path class="cls-3" d="M51.43,60.5l-.32-.11c-.04-.24-.03-.28-.14-.04l-.29-.11-.09-.52c-.03-.32.53-.31.88-.77l.17-.22c.05-.06.32.03.31.11s-.06.26-.09.34l-.43,1.32Z"/>
        <path class="cls-1" d="M33.63,46.61c-.18,0-.43-.24-.52-.36l-.88-1.21.97-.25.42,1.82Z"/>
        <path class="cls-1" d="M40.6,54.71c-.08-.02-.28-.1-.34-.16l.91-.73c.1-.09.42-.08.54-.01s.26.47.16.58c-.23.26-.94.4-1.27.33Z"/>
        <polygon class="cls-1" points="49.26 23.66 48.85 24.5 47.95 23.87 48.12 23.23 49.26 23.66"/>
        <path class="cls-1" d="M57.48,27.42c.06.35-.31.93-.67.87-.17-.03-.45-.45-.37-.6l.37-.6.67.33Z"/>
        <path class="cls-1" d="M60.88,51.37l.49.36c.04.26-.17.58-.36.58-.17,0-.48-.24-.54-.41-.09-.28.13-.55.41-.53Z"/>
        <path class="cls-1" d="M77.35,55.99l-1.03-.37.67-.19c.18-.01.38.37.36.56Z"/>
        <path class="cls-3" d="M71.08,62.29l-.44.05c-.12.02-.22-.19-.22-.35l.66.3Z"/>
        <path class="cls-3" d="M74.67,63.24l-.14.25c-.03.05-.21-.02-.21-.08v-.28s.35.11.35.11Z"/>
        <path class="cls-1" d="M78.09,50.68l-.24-.07s-.06-.05-.07-.16l.31.23Z"/>
        <path class="cls-1" d="M51.11,60.38l-.14-.04c.1-.23.1-.19.14.04Z"/>
        <path class="cls-2" d="M35.12,16.08l.4.51c.43,1.12.67,2.27.2,3.4-.33.79-.9,1.49-1.54,1.74-.9.36-1.9.33-2.6-.18-2.13-1.56-1.55-4.68.01-5.81,1.09-.79,2.68-.71,3.52.34ZM34.31,17.58c0-.4-.32-.72-.72-.72s-.72.32-.72.72.32.72.72.72.72-.32.72-.72Z"/>
        <path class="cls-1" d="M52.35,56.03l-.84-.27c-.68-.22-1-.57-1.06-1.36-.67-.56-1.4.75-1.54.4-.05-.12-.03-.44.08-.52l.75-.55c-.02-.44.11-.96.33-1.14h.8c.09,0,.38-.02.37.06l-.05.41c-.01.11,0,.35.04.46s.36.19.48.17l.71-.09c-.01-.68.06-1.05.64-1.43l.62,1.44-1.05.87.54.99c-.19.27-.35.57-.35.75,0,.62,1.1.13,1.56.46s-.11,1.17.13,1.3l.58.3c-.32.21-.71.31-1.35.44l.08-1.05-1.29-.71-.16-.95Z"/>
        <path class="cls-1" d="M44.17,51.65l-1.02.58-.49-.45c-.13-.12.22-.5.25-.68l.23-1.16c.55-.11,1.19-.05,1.56.25.29.24.46.89.51,1.3l-.62-.11c-.11-.02-.32.21-.41.27Z"/>
        <path class="cls-1" d="M56.55,51.67l-1.31.52c-.12.05-.44.07-.53,0-.11-.1-.15-.47-.11-.62l.14-.64c.04-.2-.65-.31-.73-.74-.02-.1.13-.42.23-.38l.46.19c.16.07.46.13.5.26l.21.62c.05.15.46-.1.64-.19.27,0,.6.7.49.99Z"/>
        <path class="cls-1" d="M76.42,42.82c-.4-.09-.85-.07-1.29.17-.37.2-1.19-.39-1.05-.72l.83-.93c.21-.24.8.05,1.11.29.39.3.81.83.41,1.2Z"/>
        <path class="cls-1" d="M37.85,44.92l-1.6-.08-.32-.97.87-.37c.31-.13.98.26,1.23.5l-.18.92Z"/>
        <path class="cls-1" d="M39.75,42.84c-.31.3-.96.24-1.37.06-.3-.14-.7-.77-.46-.99l.94-.61c.36.16.81.86.89,1.55Z"/>
        <path class="cls-1" d="M53.23,48.97s-.61.53-.99.53c-.16,0-.39-.35-.32-.49.13-.28.23-.73.26-1.11.02-.23.56-.32.79-.17.19.12.27.5.27.78v.48Z"/>
        <path class="cls-1" d="M46.42,46.95c-.25.67-.99.86-1.68.5-.19-.26.27-.74.76-.68l.33-1,.59,1.18Z"/>
        <path class="cls-1" d="M41.6,51.65l-.99.04c-.18,0-.59-.24-.58-.42,0-.19.07-.57.12-.75.72.08,1.32.27,1.45,1.13Z"/>
        <path class="cls-1" d="M47.91,45.11c-.23-.5.05-1.14.6-1.41.26.21.57.7.48.92-.14.35-.46.61-1.08.48Z"/>
        <path class="cls-1" d="M47.22,40.08l-1.7.25c-.02-.16-.07-.46,0-.51l.42-.28c.12-.12.55-.51.65-.36l.63.9Z"/>
        <path class="cls-1" d="M39.99,37.18l-1,.1c-.08-.26-.13-.83,0-1.03.1-.14.62-.14.74,0s.15.41.25.94Z"/>
        <path class="cls-1" d="M42.91,49.25c.05.25-.16.68-.39.79-.29.13-.55.14-.91.1l.2-.95,1.1.07Z"/>
        <path class="cls-1" d="M59.3,39.35c.03.2.04.57-.07.61l-.53.17c-.14.05-.52.06-.62-.06-.11-.14-.04-.71.15-.71h1.07Z"/>
        <path class="cls-1" d="M68.42,51.83c0,.21-.42.32-.61.22-.15-.08-.26-.38-.26-.6,0-.16.39-.34.6-.35.15,0,.27.43.28.73Z"/>
        <path class="cls-1" d="M41.74,37.3c.12.02.3.21.31.32s-.3.25-.41.24l-.75-.06c-.16-.01-.17-.57-.12-.66l.97.17Z"/>
        <path class="cls-1" d="M71.94,51.3c-.03-.13-.06-.59-.02-.76.04-.19.41-.4.59-.43.28.48.1,1.12-.57,1.19Z"/>
        <path class="cls-1" d="M67.58,47.06c-.1.03-.46,0-.46-.09v-.58c0-.15.44-.05.51.09s.09.54-.06.58Z"/>
        <path class="cls-1" d="M39.16,36.07l-.54-.42c-.09-.07.05-.51.16-.47l.46.18c.11.04.03.3-.09.71Z"/>
        <circle class="cls-1" cx="51.65" cy="47.32" r=".33"/>
        <path class="cls-1" d="M75.08,45.02v-.66c.14-.02.45.02.45.13l.02.44c0,.11-.46.17-.47.09Z"/>
        <path class="cls-1" d="M62.47,32.85l-.29.4c-.06.08-.43-.18-.36-.26l.35-.4.29-.1c.06-.02.07.29.02.36Z"/>
        <circle class="cls-1" cx="58.96" cy="28.68" r=".25"/>
        <path class="cls-1" d="M44.76,57.23s-.28.06-.34.07c-.08.02-.09-.24-.1-.35,0-.06.19-.13.22-.08l.22.36Z"/>
        <path class="cls-1" d="M41.39,36.55s.26-.14.27-.09l.07.3s-.19.14-.21.1l-.13-.31Z"/>
        <path class="cls-1" d="M69.14,49.43l.34-.07c.06-.01.14.21.08.23l-.23.09c-.08.03-.28-.23-.19-.25Z"/>
        <path class="cls-2" d="M73,66.19l.28.12c-.08-.01-.23-.06-.28-.12Z"/>
        <path class="cls-3" d="M69.89,37.09l-1.16-1.22c.57-.47.72-.7.73-1.38.4.05.85.22.91.61.08.47-.02.81-.43,1.15l-.06.84Z"/>
        <path class="cls-3" d="M51.85,26.21c.04.22-.4.53-.62.52s-.71-.32-.63-.51c.17-.45,1.01-.34,1.25-.01Z"/>
        <path class="cls-3" d="M65.68,49.82l-.77.24-.07-.68.6-.03c.12,0,.24.31.25.47Z"/>
        <g>
          <path class="cls-1" d="M90.94,54.85c.22-2.73-3.42-7.67-5.31-9.73l-2.35-2.56c-.08-.09-.26-.36-.21-.46s.2-.24.33-.36l3.38-3.11,6.04-6.04,5.1-5.42,1.87-2.05,8.7-9.83,1.84-2.09c.79-.9,1.84-1.62,3.05-1.51.81.08,1,.66,1.09,1.3.08.55.84.48,1.22.27.64-.35,1.49-.64,2.17-.2.44.28.54,1.18.52,1.72-.08,1.67-.69,3.13-1.51,4.53l-1.11,1.9-2.07,3.3c-3.46,5.5-7.33,10.6-11.24,15.8l-5.32,7.07-3.01,4.48-2.45,3.67-.72-.69ZM105.85,27.5l7.36-9.24c.13-.16.07-.62-.03-.78s-.63-.31-.75-.16l-1.56,1.91-6.14,7.67c-.2.25-.06.76.17.87.25.12.7.04.95-.28ZM99.48,40.15l7.4-8.77,4.66-5.87c.21-.27-.05-.87-.3-.92-.32-.07-.64.1-.84.35l-1.65,2.12-.56.74-9.7,11.6c-.22.26-.19.74.05.93.18.14.7.12.94-.16ZM98.83,35.78l4.66-5.62c.15-.18-.03-.8-.23-.86-.25-.07-.62,0-.8.23l-3.53,4.26-1.23,1.49c-.15.18.13.82.36.83.19,0,.61-.1.79-.32Z"/>
          <path class="cls-2" d="M99.48,40.15c-.24.28-.76.31-.94.16-.24-.19-.27-.67-.05-.93l9.7-11.6.56-.74,1.65-2.12c.19-.25.52-.41.84-.35.25.05.51.65.3.92l-4.66,5.87-7.4,8.77Z"/>
          <path class="cls-2" d="M105.85,27.5c-.25.32-.7.4-.95.28-.23-.11-.37-.63-.17-.87l6.14-7.67,1.56-1.91c.12-.14.65,0,.75.16s.16.61.03.78l-7.36,9.24Z"/>
          <path class="cls-2" d="M98.83,35.78c-.18.22-.59.33-.79.32-.22-.01-.5-.65-.36-.83l1.23-1.49,3.53-4.26c.18-.22.55-.3.8-.23.21.06.38.68.23.86l-4.66,5.62Z"/>
        </g>
      </g>
      <path class="cls-3" d="M51.44,29.8c-.24.26-.54.48-.73.46-.11-.01-.23-.41-.17-.51.07-.12.34-.31.46-.24l.45.29Z"/>
      <path class="cls-3" d="M30.18,47.31c-.12.04-.55-.04-.82-.15-.21-.08-.28-.61-.14-.86.09-.15.55-.07.68.03.15.12.21.38.28.97Z"/>
    </g>
  </g>
</svg>